ply
format ascii 1.0
element vertex 1373
property double x
property double y
property double z
property uchar red
property uchar green
property uchar blue
end_header
-140.395756312 -63.585357140 33.956433732 76 83 89
-25.317347435 -18.060249895 4.048621578 230 233 238
-25.330565817 -17.935757697 4.537575265 88 78 66
-19.375041247 0.439764265 5.571246013 47 44 37
-19.375041247 0.439764265 5.571246013 47 44 37
-0.811510808 -9.309275465 -2.434946213 175 171 162
-7.128006146 28.840231778 22.296767068 71 80 79
-7.128006146 28.840231778 22.296767068 71 80 79
-2.914421060 -10.692946709 -2.563790335 178 162 147
-2.669140876 -7.963480027 -2.476659034 80 73 65
-2.492263774 -11.182082672 -2.481846457 68 69 73
-2.421430426 -9.649770397 -2.492573198 125 116 101
-10.374427621 -1.213324265 -3.279338888 132 137 140
-103.553776021 61.325463055 14.352538849 74 80 92
-98.196232747 63.402526184 15.235670600 71 73 85
-92.975144488 62.397231913 18.534608215 96 95 109
-95.690766375 64.973472953 14.701723296 78 85 101
-95.504807206 65.011099504 15.126882775 78 82 93
-58.653356352 58.955620568 8.805257781 59 63 75
-58.653356352 58.955620568 8.805257781 59 63 75
-58.209811464 59.077750119 8.802893410 58 60 73
-56.343806656 58.331829710 6.844904959 124 119 126
-27.152225907 50.429462708 1.795116769 64 65 70
-14.291149144 42.900100013 0.661073393 141 103 116
2.841328020 27.708465885 -0.912524473 71 69 70
-117.288472404 70.611916603 38.998305369 134 141 147
-115.491445563 70.326233382 37.593228647 251 255 255
-115.491445563 70.326233382 37.593228647 251 255 255
-112.037826289 70.632481604 36.959263472 252 255 255
-112.037826289 70.632481604 36.959263472 252 255 255
-94.512441191 62.497134163 19.076342586 143 149 163
-106.811560510 69.983352226 23.041028010 95 107 123
-92.417554289 62.599712778 18.907225151 148 151 168
-102.559596019 71.254391706 26.791040315 148 156 175
-102.559596019 71.254391706 26.791040315 148 156 175
-95.340427580 66.996772935 20.843844493 97 101 112
-95.340427580 66.996772935 20.843844493 97 101 112
-97.659687497 76.352529996 24.895239004 148 154 170
-16.880265868 48.014923902 -1.976682740 140 140 142
-46.373583294 101.873052405 31.004812511 177 177 179
-45.296938570 101.891067253 30.879198226 193 193 195
-13.291168659 36.020668350 -2.163309825 104 99 95
-13.291168659 36.020668350 -2.163309825 104 99 95
-2.768193510 12.899618256 19.995716108 128 144 178
-32.599882828 108.505572048 36.125122864 251 250 255
-32.724541215 106.787040268 35.352954703 92 93 98
-31.878390226 108.827955203 35.850240720 112 110 115
-31.932898615 107.389997350 34.712534854 225 230 236
-33.040992885 107.296417052 34.513193622 253 252 250
-31.526215792 108.188059508 34.024617570 85 88 93
-31.166145383 107.468484941 31.857043309 235 239 248
-31.166145383 107.468484941 31.857043309 235 239 248
-40.749512284 103.210589199 30.993375881 216 219 224
-38.344067907 103.968380218 30.801132450 98 101 110
-38.344067907 103.968380218 30.801132450 98 101 110
-43.257251660 101.948802211 30.567223318 173 172 180
-36.960206100 104.398411604 30.373066585 149 151 163
-37.789767311 103.911699838 30.264562288 81 84 93
0.350454540 -9.840753880 3.939610726 111 128 83
0.269235833 -9.757787469 4.117101106 75 100 71
-4.818878315 8.199360839 5.821202634 32 37 40
-4.734504833 19.693974448 18.141917437 219 220 225
-24.558829725 111.945617600 32.479539739 248 254 252
-24.369163118 111.655512556 31.446423605 104 104 112
-26.831335491 110.634555650 31.481597295 126 132 144
-24.846473586 110.816908918 29.955556134 122 129 147
-27.033730933 109.300911019 30.980000603 255 255 250
-25.328438701 109.869592502 29.690143015 120 127 133
-25.801137696 109.899678804 29.884344582 251 255 255
-29.090147888 109.444000344 31.291805884 254 253 251
-28.508086905 108.683449767 30.399867848 140 111 107
-30.027062945 108.872450382 31.227087766 255 251 250
-19.046958045 60.202137912 8.744820045 55 50 56
-19.022516236 41.899366871 -2.063211137 154 148 152
0.734974518 -4.851434046 2.309675750 90 103 73
-18.230395753 35.272691840 -1.089705794 86 109 159
-6.915042414 -14.286171117 -1.074789332 47 48 53
-12.973103666 -9.709588371 2.082675655 238 241 234
-181.269197230 -13.015224184 30.472096080 89 93 102
-190.592091013 -13.928118242 46.652657965 225 232 238
-169.466361367 26.763789051 38.291767809 247 251 252
-36.216255996 26.220878055 -4.458839500 148 145 126
-36.246655445 26.386285204 -4.285338526 33 14 7
-84.559820290 28.275657541 -9.808346595 73 26 20
-158.282256161 32.093317392 31.132951960 114 122 133
-52.087983492 28.215195286 -7.536466525 145 137 124
-42.322621507 27.738687007 -5.251657329 56 43 34
-42.385266279 28.081383515 -5.359570156 150 140 130
-42.972462962 30.459041124 -5.608932282 71 65 53
-14.110308004 -1.269648233 7.065567414 181 188 207
-177.310207639 -28.924771751 60.889468492 77 91 102
-183.587574004 -27.622798556 62.603479361 85 95 107
-184.368705857 -22.226428939 62.074076405 223 235 247
-184.368705857 -22.226428939 62.074076405 223 235 247
-159.373124464 31.456402599 38.466556300 246 251 254
-149.834464428 45.174324188 40.267833395 76 85 92
-132.569374186 52.200100422 29.474602463 120 128 141
-137.346470472 55.410084250 33.593678516 89 95 111
-111.722228511 71.548732888 28.310406776 126 138 154
-4.538093584 10.397127921 -1.724076795 26 21 2
-63.158887119 143.389263390 47.647175689 176 192 208
-5.042313446 7.543993145 -3.131772904 58 62 71
-4.656546704 6.304711963 -3.275474783 59 61 73
-43.964853596 151.530735356 54.810559890 91 98 108
-41.276507032 148.775450309 53.035531847 106 106 106
-43.520371076 148.775562299 51.999352373 191 212 233
-41.069699622 152.126609593 52.222723784 217 234 244
-41.493819568 151.184270923 51.695751116 74 77 96
-41.441798986 152.311719626 49.255601450 201 209 228
-41.441798986 152.311719626 49.255601450 201 209 228
-52.855187502 147.861891550 48.026178351 58 65 81
-57.756828957 145.837579249 47.579122218 157 172 193
-52.490600211 149.276321069 47.769850656 77 79 102
-43.526736349 149.791449965 46.496362565 151 159 172
-42.962505123 150.113472775 44.184672514 208 220 246
-42.581827501 151.423943686 44.023139078 95 102 120
-42.581827501 151.423943686 44.023139078 95 102 120
-42.859927591 152.166406945 43.467529840 236 237 255
-4.779807338 8.229933241 5.800062224 38 43 62
-3.813723917 15.959519686 16.666818797 241 241 251
-3.813723917 15.959519686 16.666818797 241 241 251
-33.959370037 152.554296714 46.939463232 95 104 109
-34.514348156 151.979648151 46.715223689 232 241 246
-40.564365451 158.385731314 46.908996769 210 227 235
-39.646718460 151.468235591 42.513110796 99 94 75
-27.394900347 35.579046856 -2.225823171 55 28 35
-15.919018010 58.905973442 0.484992998 67 33 31
-28.063180750 44.570769486 6.500529109 124 136 160
-17.995231041 6.961679630 12.415640456 77 79 76
30.418392271 84.490181261 8.561147992 36 33 24
19.409834246 67.421446228 3.643095372 120 126 92
20.290279955 67.291136758 4.019306973 16 17 1
20.444236511 67.158752883 4.048227419 80 82 68
-32.993506411 46.485445327 1.211573872 47 60 42
-34.499030000 46.304667570 1.621100350 92 110 114
-36.339879162 45.817479637 1.960500049 212 231 245
58.770738414 58.030804229 24.163637380 39 48 57
56.017893196 60.339232034 20.523474396 196 181 158
55.124761226 60.894907242 19.559484288 96 92 91
55.124761226 60.894907242 19.559484288 96 92 91
53.619234234 60.089137719 18.757987289 55 50 47
51.885442813 61.053590145 17.463661126 54 56 51
51.379336098 60.361069355 16.689982074 68 73 79
53.028506786 60.966076544 16.256246636 255 255 255
52.874696127 61.192986796 15.893227448 143 145 144
41.687041116 49.967184017 15.931301473 230 206 180
40.712220493 52.987040117 15.627044927 64 61 56
41.188794303 53.304894849 15.944813350 146 139 146
51.924132418 60.610254376 14.413291239 26 25 23
49.135606336 59.568387055 12.648814379 254 252 255
38.083107107 58.268682759 6.320587703 19 19 11
24.760283930 58.837118793 2.764127848 131 138 86
23.977354869 58.887520603 2.834235062 11 16 0
-27.639399085 50.555007702 -0.650349705 113 108 104
-27.933238661 50.498040665 -0.640396949 123 112 106
-28.613054496 50.372756874 0.023586381 117 117 105
-27.464306242 50.804116313 -1.014030276 146 98 75
-27.551950260 50.825617298 -0.787594192 33 39 35
-27.551950260 50.825617298 -0.787594192 33 39 35
-24.202490063 58.357285322 -2.666021618 143 144 138
-24.202490063 58.357285322 -2.666021618 143 144 138
-24.264983046 58.534775367 -2.784878538 149 148 144
-30.201034938 50.136091029 5.757494995 252 254 251
-30.399294596 50.095230764 6.104072197 254 255 255
-30.368403948 50.096848982 6.100189154 251 251 255
-30.346272966 50.200872064 6.256031005 106 110 122
-29.339050298 49.680869846 8.338358533 251 250 248
-30.180408141 50.012642012 8.761847721 253 253 255
-28.901627332 49.651538426 8.326489324 243 249 247
-29.387055236 49.727957866 8.712854797 247 253 253
-19.798170556 53.142170286 -3.125213442 212 208 197
-24.183042382 58.205282541 -2.804729260 156 148 146
-26.683939509 53.023054046 -3.223852244 201 195 179
-27.028047148 52.821176079 -3.211024273 101 66 26
-27.092306455 52.745720292 -3.094266327 216 214 193
-27.006534494 50.699439798 -1.104197349 150 115 95
-26.789601313 50.578221701 -1.058903398 166 104 65
45.340983650 50.742500897 5.579540207 150 136 125
-9.769470703 53.112748817 -0.665137284 48 51 42
9.749153745 85.863320372 27.060287435 67 65 53
33.687338454 76.926141068 24.976761074 22 30 41
35.729473645 77.495330348 21.818723710 40 44 43
45.937814364 81.215324246 26.165561558 184 205 232
53.090926722 82.905174785 23.188800872 39 46 38
48.104306969 81.267083459 20.514796938 180 186 198
46.180407704 80.860777261 18.290739991 197 217 228
57.259790701 83.826028887 22.459044794 66 69 76
-7.466358526 47.129401875 12.188188775 238 234 231
-7.184719811 46.760897756 13.934624280 64 57 65
41.417754292 56.672819434 14.157274229 200 186 160
60.266809910 61.614095374 18.191502706 69 65 66
58.807967799 61.941795412 16.594185286 92 84 71
59.954084137 61.222114152 16.154034427 101 103 100
59.344656826 61.971201243 14.672594990 182 181 177
64.598554710 69.018903086 14.917688394 242 241 246
68.007765716 69.931987115 15.112098708 112 112 110
42.016162696 66.986775492 4.991375650 133 121 107
17.351353753 29.686682699 15.522241602 122 131 130
17.530405576 29.735907315 15.294594201 175 187 175
46.530604183 43.739050791 14.439185599 244 249 252
41.722517240 49.183208003 13.619104228 198 186 170
41.722517240 49.183208003 13.619104228 198 186 170
41.722517240 49.183208003 13.619104228 198 186 170
40.622747950 54.364215483 13.489640075 255 254 239
41.105474903 55.559919408 13.919264031 61 64 81
40.527286040 55.487192166 13.255393554 234 213 186
40.253429463 55.888093356 12.264331199 212 186 169
59.656957024 59.990608435 11.067440987 226 218 215
56.387108392 61.128529390 12.597644693 104 108 117
58.733878310 61.821961275 13.776794060 119 114 111
58.754686485 62.000315216 13.906821413 99 93 79
59.713566904 61.112201290 12.064589300 233 238 234
58.681302546 62.408420585 11.895381055 230 214 198
58.681302546 62.408420585 11.895381055 230 214 198
60.318384383 61.208057293 9.543691810 253 253 251
-0.147487420 56.536127518 -0.358728121 60 65 45
5.067015326 61.967140878 6.361674626 78 72 84
36.589634610 78.902875782 27.812732272 20 23 32
49.379474775 83.504571616 29.203458392 108 104 93
47.139683913 82.478468439 26.279856860 34 28 28
45.235841900 82.006636731 24.479610009 82 70 92
49.149062756 83.308890640 25.629160288 10 19 14
46.952014653 82.344680417 22.904151816 30 35 28
54.152608588 84.674848792 23.583977735 144 150 162
59.035615628 86.440803563 26.153451895 16 10 14
62.820388776 87.573084900 27.046567514 70 62 59
66.683481125 88.628072207 26.727498925 54 59 63
63.043614021 87.501117111 22.766366420 107 106 111
59.632360549 86.969799159 19.947006697 38 29 24
59.632360549 86.969799159 19.947006697 38 29 24
63.826277487 88.393195186 20.569985544 23 18 24
52.651852186 84.554049720 15.094530650 150 163 182
87.421181584 97.101862658 28.574701237 243 248 252
67.975562321 89.304986216 20.628857323 55 60 53
64.351756731 87.661399842 18.726713155 147 158 176
62.991985941 87.310841822 15.672863226 118 129 133
66.954933024 89.909221142 16.406647296 20 23 28
-18.118319618 47.849191662 -4.834265601 163 163 155
-1.660148463 56.626143317 1.844961762 55 59 68
-2.223981451 56.507802409 2.156749669 47 58 54
-1.779607192 56.407024114 2.086181887 57 54 61
-2.114507448 56.454082137 2.251052819 220 237 247
92.989454529 93.846231985 28.255602485 60 65 71
15.251323186 41.268346718 5.187887860 212 204 183
13.707119136 41.103333565 5.130358438 220 208 182
105.140102311 130.785400866 74.551540987 66 66 74
71.217433504 100.363841920 43.290045917 144 150 164
129.361974827 140.330298246 90.368796067 25 23 44
131.377501308 142.859900765 88.459867321 91 76 71
121.496026740 139.409555433 74.775549736 0 17 27
121.496026740 139.409555433 74.775549736 0 17 27
123.940554419 140.334046880 76.300048415 123 140 156
123.940554419 140.334046880 76.300048415 123 140 156
125.359477380 141.474286902 74.922028945 111 122 144
58.394597197 85.964823436 28.545286300 131 152 183
58.801703703 85.719576566 28.051289691 133 150 176
53.432152093 83.939595861 23.311751194 101 68 63
56.434012645 84.721264834 24.464087812 24 24 14
59.868362846 85.902111399 21.126634120 107 113 113
63.442883184 87.102895561 21.794060979 60 63 54
65.037199749 87.523820784 19.675124873 127 131 132
32.461942894 67.630508353 -0.225806101 93 98 94
34.498361281 68.255796724 -0.463781902 31 31 21
-4.808127836 47.565371271 9.126270632 219 221 216
-1.567616269 48.652791240 8.502340393 224 231 239
-0.972953865 48.893960437 9.219860393 213 214 218
1.422687715 49.478723664 9.057204336 228 223 219
-0.986641375 48.711068376 11.876206131 92 92 92
1.113713392 48.799855592 13.820402568 57 46 50
4.246871436 50.322747264 12.106115342 139 141 140
4.168206883 49.638245589 14.683934145 89 64 59
4.552628071 48.214749978 14.585182644 54 42 44
4.600760658 48.218277638 14.691686362 85 60 55
1.741721443 37.074824122 15.404748596 210 209 205
1.556186618 36.098556740 16.617470908 25 29 28
1.556186618 36.098556740 16.617470908 25 29 28
1.755127327 35.785595396 16.546823258 41 43 42
1.755127327 35.785595396 16.546823258 41 43 42
2.542916558 32.773137516 19.468943610 99 100 102
4.271437012 22.661101544 17.857246015 18 19 24
5.206337192 22.578242126 18.949632367 96 98 93
20.348173560 52.457492331 3.284127973 235 219 203
64.562205445 72.413189254 0.175180072 44 50 72
63.587637252 71.404037190 -0.154638415 42 36 40
13.737563586 62.779951419 1.837734708 59 66 84
56.671345793 84.020770074 18.404164954 119 124 127
59.793910299 84.898813153 16.698350821 51 57 45
56.367527197 84.254714132 12.400811332 22 13 16
76.916810338 91.454956168 23.066258950 44 45 40
76.845857444 91.067717593 20.496439874 132 134 131
78.208642453 87.989337544 22.625575178 241 244 249
60.841016673 68.190395259 14.586318689 90 85 82
65.955570219 69.806230982 16.868425855 255 250 252
67.644627513 70.312097432 7.978993134 126 127 119
72.455349143 73.098049450 2.843642020 220 100 66
18.983084368 69.662684662 0.533439074 81 82 87
18.983084368 69.662684662 0.533439074 81 82 87
18.839163388 69.666376022 0.258020658 88 88 96
18.624630644 69.132222269 0.695737132 134 143 158
19.375696600 69.590088294 0.934502300 146 149 154
19.133206631 69.567731961 1.837007114 149 156 164
17.470227177 70.218630257 2.189792021 33 49 65
17.851505464 70.351543829 2.057672710 15 27 39
17.926645341 73.016269263 7.402977495 161 164 171
18.529160859 73.075407281 7.920587258 148 156 159
13.634943946 77.402300536 7.843640934 118 128 130
13.625760833 77.523383529 7.747278424 138 153 160
18.263680712 70.405442956 6.782767374 97 96 101
19.148806407 69.998268563 6.984204427 159 164 168
17.044422667 67.972483426 10.820941356 253 254 249
16.778984223 68.215330566 10.850809468 63 67 76
18.986489616 72.644712390 7.934428730 84 84 92
16.538959401 73.305839463 8.890876411 135 144 149
-9.637483088 117.580809647 79.129558404 86 79 95
-12.528495035 114.537927223 89.044753042 64 66 79
-15.606427283 115.848754513 103.508630995 64 66 79
-12.057298823 125.880276380 98.216834727 140 157 183
-12.737709646 126.153334979 109.629897589 168 181 198
-4.809181577 127.019049546 91.562084343 122 139 157
-7.970918851 128.886230283 111.445486629 166 181 188
6.587484075 129.201545534 115.356773991 132 154 167
7.508408211 129.826985362 110.551554100 9 17 38
11.443298740 130.429571803 110.985928584 128 150 173
12.726216873 130.058852903 105.125067531 43 50 60
10.507580887 146.740483108 125.394655386 37 37 49
41.377668562 84.364218373 23.078977946 103 100 111
45.915173508 81.470123958 24.604261791 92 86 74
45.973495859 81.910796111 24.818825100 33 39 53
46.054474825 81.700274666 24.793744804 71 71 69
80.381163851 96.023191477 28.691278783 127 148 179
82.226923275 95.687524428 28.380754132 51 60 67
80.516172591 95.340730427 26.525904221 217 218 220
82.457686999 91.427234654 24.501258389 139 135 134
82.457686999 91.427234654 24.501258389 139 135 134
82.737768300 90.338683025 23.922498344 227 227 229
97.682703320 95.541543366 26.170436324 48 55 61
3.966473893 21.713604947 18.040704169 182 182 182
4.413573353 21.679056463 18.140217361 77 84 90
84.817447651 90.292784417 1.561502164 53 59 59
84.970863625 89.954286343 1.505369067 142 146 157
84.925717063 89.863831009 1.860689186 92 97 101
-26.400962793 113.275926688 62.415794773 97 88 107
-64.224546996 232.759343651 111.406975996 191 205 216
76.616390645 96.978282061 16.197552295 155 156 158
76.669807565 96.934577301 14.320855263 144 144 142
-28.735669749 93.514777995 58.218830751 135 141 175
-30.438795047 95.524869421 69.383905398 130 116 141
-31.747218064 99.418122774 69.075983117 166 176 203
-32.293884587 96.646802073 74.988619104 131 122 143
-33.588667995 98.665716598 78.620815816 122 109 129
-17.683743460 104.475416830 86.004555819 163 180 198
4.958138674 111.957959023 70.473130482 152 158 184
5.515201785 111.627903759 69.861558928 149 156 182
6.271628888 111.177809589 69.032889151 153 160 186
7.646109476 113.316964782 70.587250355 31 43 65
8.432795939 112.950356745 70.566102904 156 171 194
75.721937184 96.851234673 28.577538639 20 29 38
75.885128578 96.908584363 28.321285446 240 238 239
76.371176198 96.284259509 22.559877419 187 183 180
76.360142253 96.252621657 22.533530079 187 183 180
77.397685123 94.278162511 23.910773537 219 219 221
76.697161198 96.305354105 22.429391644 75 80 74
76.883323870 96.438140136 21.814151624 222 222 224
78.050933395 92.206671268 23.045113676 97 98 93
78.282617093 91.481359566 21.985564955 212 222 214
76.990349911 96.166631048 16.887187118 45 40 36
79.367182347 88.128642671 21.046936210 66 63 72
79.322954662 88.051561525 20.821110001 77 75 86
78.527313648 91.756025210 14.418232458 72 73 68
78.549171450 91.943669901 14.307607422 201 201 203
84.407959634 89.516541569 20.080889689 148 148 150
78.586131057 91.982787163 11.694358339 65 60 56
84.640653736 89.608188558 14.887148285 140 148 151
91.935550737 77.700549463 5.598165430 200 150 125
93.036711080 77.857375800 5.512922878 55 12 0
93.036711080 77.857375800 5.512922878 55 12 0
94.433836812 78.324880760 5.546648446 51 15 0
96.477468509 79.001331190 5.619916305 68 25 0
105.015488967 82.139858000 2.638788339 102 104 67
84.175981942 85.742282680 -0.907930920 17 11 15
117.866756712 79.698281953 4.883201246 102 57 36
67.643921321 87.491272518 6.587790616 162 162 170
67.769141981 77.825028532 0.462103271 66 70 71
46.099896417 93.381204178 52.789899233 92 116 142
95.553496675 90.010051000 10.269338239 38 55 73
95.096834642 91.936862511 7.864007175 71 76 80
95.174464386 91.981687930 7.678711172 74 73 79
107.210682849 76.121606768 9.488088076 236 180 93
108.692811700 76.589071791 9.740391087 36 16 7
162.396376346 74.240574236 15.363423900 120 79 49
105.486847117 78.304371918 8.007884548 46 22 20
100.276261398 80.327344249 6.918761975 127 104 88
76.442813139 90.232266027 -1.834979936 101 101 99
75.625776366 104.194902995 3.662415604 65 69 68
81.284548778 48.050768972 5.476673579 42 56 83
81.284548778 48.050768972 5.476673579 42 56 83
81.041726152 48.241869348 5.631599717 37 50 66
81.041726152 48.241869348 5.631599717 37 50 66
75.269409392 78.465065125 -0.069730486 20 26 16
71.891144964 76.948914655 1.076410589 254 255 250
70.806536800 18.237135584 24.552371208 30 32 45
66.149842032 43.944234301 0.172772010 77 56 55
64.952831015 80.757757593 -0.550527770 33 38 34
64.952831015 80.757757593 -0.550527770 33 38 34
60.824731730 85.001370105 2.401256378 43 44 46
60.905516169 85.090307782 3.423497644 146 148 147
61.563128907 85.159054569 2.378790323 127 129 128
62.638489033 84.919660295 2.310592586 77 78 82
62.594538647 85.547143269 2.337010107 137 137 137
62.859143784 85.665906147 2.240798958 42 43 47
62.869254398 85.857904437 2.381500336 140 143 148
63.319534604 85.916335324 3.180068761 35 39 42
63.664844837 85.980275088 2.248332626 27 28 32
67.624054282 82.795170070 0.038368222 131 135 134
67.577289768 82.856488254 0.044350553 131 135 134
64.067021405 92.634798890 2.470087116 28 28 26
64.067021405 92.634798890 2.470087116 28 28 26
68.902272245 86.772302807 -0.157612011 39 42 49
68.705538790 87.110519848 -0.147062366 41 44 51
70.194713932 87.251299848 -0.679886234 34 37 42
75.331160893 103.965363263 1.104740199 137 127 117
75.554671893 103.300822906 0.813495091 210 203 187
76.392469513 100.506741482 -0.925149167 222 215 197
80.081508129 88.802690160 0.967647370 227 222 218
80.562084592 89.253141942 0.942187857 107 95 81
87.524963407 70.682323739 1.422682138 10 4 4
95.111852129 40.502317710 0.160354538 223 219 208
79.699155496 57.857157404 2.671022489 68 69 71
77.572991178 70.431018288 0.781708861 72 67 64
57.351359392 84.179700393 9.858525611 71 68 59
57.439349687 84.168138882 7.017500766 59 54 48
59.851468415 84.875941787 10.934235052 84 100 115
61.336602046 85.249640483 11.722622766 61 64 69
61.359911691 85.226355140 10.776649652 62 67 71
61.883420869 85.462887092 11.742379990 62 70 81
61.827960170 85.539344122 9.652089515 154 167 176
62.737204274 85.821925240 10.929561571 148 157 166
64.658003942 86.563786191 9.164161450 162 174 188
62.041725617 85.415820173 3.909006157 174 174 172
63.930397444 86.088722400 6.314204045 162 175 184
67.507190766 82.960936285 3.723304122 142 144 141
64.514685904 90.377927779 7.340482029 72 67 61
64.725302691 90.449284586 4.206769344 161 159 147
62.605210597 97.072431829 7.725874045 168 165 156
75.647384916 95.051352373 -0.844168029 208 200 179
75.738170479 91.810056813 -1.675066173 103 98 92
76.452290732 89.345828715 -1.706975384 133 129 120
76.253173336 95.324135255 -1.346896778 75 73 60
57.300274838 83.527373228 24.106814913 131 137 135
65.951202627 86.396398936 24.173763183 130 135 138
65.576282559 86.318992120 23.773996745 252 252 250
64.260777483 86.128241953 18.167524489 170 172 169
64.255318685 86.146092718 17.487198440 163 167 166
64.468316280 86.191837969 17.447499750 106 111 114
64.229227477 91.491795695 24.159211490 247 251 250
61.896190270 85.403614474 15.326610307 153 162 171
61.842901455 85.422367398 14.880869743 156 165 172
63.417039769 86.082780358 15.423025499 90 95 91
64.407924913 86.282783792 15.717121199 108 113 116
63.993878511 86.245606627 15.471743376 91 96 99
64.991717363 86.420681224 15.693342333 85 87 86
63.824612151 86.053336377 14.493385732 102 110 123
64.083121583 86.123961181 14.616390356 83 88 94
64.852126901 86.526659030 14.515094223 161 171 181
64.261300773 86.191672774 13.852787570 147 153 149
64.440995224 86.251609916 13.678187778 84 89 92
64.977833450 86.522846094 13.714711338 88 91 96
65.086262798 86.605174264 12.695711979 149 154 150
62.122989173 98.136657515 21.804903229 97 99 98
65.668308711 87.231570068 11.974926762 167 166 161
64.617416550 90.180591559 13.070164658 84 81 72
27.116531545 155.595870615 51.054199933 102 102 104
64.595482428 90.255514418 10.211353561 85 82 75
64.595482428 90.255514418 10.211353561 85 82 75
56.862427216 113.135786815 24.868714945 147 151 160
57.096157949 113.517783164 23.705332439 254 253 251
62.039384736 98.188551340 13.640655228 163 164 158
62.156640860 97.640567625 12.464960136 93 98 101
61.934373015 98.013992433 12.597325574 93 95 94
61.425579774 99.928722575 13.007448609 162 166 167
61.425579774 99.928722575 13.007448609 162 166 167
70.917153189 89.156289625 8.831711616 89 90 95
57.073652153 112.648509933 17.763296068 80 84 83
54.897467877 117.690688454 17.781633702 208 204 195
76.447067756 83.882731590 -1.739771238 149 149 147
77.216656768 97.805413052 29.869360470 71 75 87
77.469324590 97.239616185 27.591568635 138 138 138
77.264843049 97.052463799 24.374559704 81 81 89
77.273720858 97.048845558 24.368031886 79 77 80
76.947412302 97.852976096 24.316598142 240 246 255
80.110482634 72.137547003 -2.371915892 145 146 141
79.743869080 67.413883421 -7.226805156 156 151 157
80.733323701 67.513695692 -2.538765904 234 231 226
80.800620491 67.290556545 -2.548083052 152 144 141
80.796231618 67.204980455 -2.556547839 242 241 236
80.823779655 67.196570901 -2.553110645 180 177 172
80.988209871 66.771614752 -2.575774638 240 239 237
98.030001138 37.490648920 7.626373898 143 147 148
98.030001138 37.490648920 7.626373898 143 147 148
98.030001138 37.490648920 7.626373898 143 147 148
86.749687896 93.237106244 41.618213850 94 111 137
89.228115490 91.236151492 18.814944865 122 90 114
89.089580796 91.256389344 18.240911117 125 92 119
84.180016842 89.652968678 21.276240127 74 75 77
80.510542359 88.581245792 20.591665858 121 130 139
87.745560926 91.095823128 14.383971210 107 111 110
86.312665463 90.619962122 13.517302189 59 68 85
86.656477708 90.770199438 13.122231676 61 77 93
83.131599315 89.499143463 13.682320070 63 70 86
83.531243048 89.895761210 11.061101382 59 68 83
83.767662466 89.906404843 10.546602688 44 48 47
83.767662466 89.906404843 10.546602688 44 48 47
83.564745267 89.769466485 10.342561636 150 153 162
72.153439223 114.308700757 20.979798235 109 104 101
72.153439223 114.308700757 20.979798235 109 104 101
72.054029902 114.653559769 18.383891062 126 123 118
72.006483568 114.868810382 18.462171699 112 111 107
75.121882995 82.591219858 -1.681642656 154 154 152
123.565153471 94.835629123 46.053451227 52 42 50
87.791666030 90.888648904 12.455501962 79 94 113
86.998168240 90.801489820 13.082555791 59 72 88
87.643677631 91.477085527 7.809585349 48 63 84
86.860282717 90.813843970 6.618050215 153 156 161
84.781867450 91.165867376 4.478975388 109 111 123
83.890766306 89.847783237 3.225348472 128 130 142
83.654137598 90.021360106 3.573535806 118 117 122
77.578244653 95.060335305 4.253766480 228 221 203
76.236389479 101.510730120 3.789805725 221 215 203
72.183192237 88.377656564 -1.048616404 51 25 28
72.183192237 88.377656564 -1.048616404 51 25 28
72.469021249 87.218089714 -1.632179207 14 16 15
72.921797230 85.027094302 -0.883488831 63 75 91
72.218972448 85.149439173 -1.503963072 127 122 126
70.279869411 87.020972961 -1.025276839 22 27 31
71.249025511 84.778796227 -1.960015942 161 161 153
67.895406450 82.773892297 -1.847433798 28 38 40
85.387291958 41.206770004 -3.125833026 88 75 58
85.929860426 39.793470919 -0.079460201 19 24 2
67.326180645 83.133004572 1.052579093 63 63 61
67.713488875 82.667205891 0.187975442 129 129 129
67.867140929 82.747751864 0.196728734 62 63 58
67.867140929 82.747751864 0.196728734 62 63 58
67.876908885 82.762663162 0.485560800 135 131 122
67.876908885 82.762663162 0.485560800 135 131 122
68.175769389 82.676572934 0.178100455 123 119 116
68.175769389 82.676572934 0.178100455 123 119 116
67.904268667 83.211141359 0.401657299 53 51 56
70.226157568 86.771420701 -0.021455337 149 146 141
70.734426310 86.114282474 -0.505549041 76 76 76
70.272761645 87.123841746 0.799100689 119 114 111
70.272761645 87.123841746 0.799100689 119 114 111
70.474232523 87.184803954 -0.008943297 140 137 128
70.648541282 87.269177666 -0.106660000 138 134 125
79.957090551 89.844573347 1.949426888 229 224 204
80.544859921 89.300441419 1.104294379 118 104 93
66.416776776 56.460760937 5.804055169 35 28 20
62.913108103 86.265509224 11.167716852 110 108 111
63.605089606 86.281819429 6.339958109 159 159 157
64.365947626 86.608958316 6.213889789 77 73 72
64.862045094 86.363884985 6.495951932 164 166 163
67.666998404 83.065029713 3.223507923 79 70 71
62.452260086 96.598266408 9.388013943 204 208 209
63.981783785 92.805126200 4.542495329 50 46 43
61.888080768 99.096464997 4.728514739 152 146 146
79.164303909 85.172199489 -0.832285693 213 195 175
91.792870484 22.579920119 5.900221608 83 87 90
24.686630320 60.274809352 82.532706344 67 62 68
65.289068046 86.703542346 24.163518288 253 253 251
63.098042440 85.910693512 19.639961758 150 155 158
63.672879468 86.214963021 20.030389487 170 177 185
63.926876377 86.319053072 18.737907649 136 136 134
64.158698053 86.390566163 18.403432249 176 177 172
64.190335284 86.344570683 18.014863641 176 176 174
64.452541969 86.554060835 17.881964208 181 186 190
63.398838651 86.245377161 15.584263872 107 108 112
63.796925658 86.422644435 15.810016060 174 175 180
64.352859730 86.491154992 15.899220473 110 111 106
63.972520576 86.402849447 14.843760747 98 101 106
64.155327935 86.450970237 14.055683605 167 167 167
64.325090669 86.537678654 13.898614410 105 104 102
64.855762300 86.828351037 13.068907579 94 96 95
64.375666340 87.025530099 12.864716184 165 178 187
64.375666340 87.025530099 12.864716184 165 178 187
64.640301998 86.956419472 12.209585719 173 180 186
57.401149149 112.933784478 23.434347698 248 248 248
56.804689400 114.048518916 22.859589695 255 255 251
70.527920517 89.558597444 9.112094512 255 255 255
62.585209960 96.348449634 9.332561037 203 206 211
70.505508482 89.565493299 8.914440957 104 104 106
70.505508482 89.565493299 8.914440957 104 104 106
70.731118674 89.756635754 9.053148493 97 97 99
60.162847847 105.127023931 11.133771953 166 163 158
60.162847847 105.127023931 11.133771953 166 163 158
59.803495709 105.045650848 10.751768165 72 72 64
59.803495709 105.045650848 10.751768165 72 72 64
94.330014491 33.271139186 -3.466724154 188 179 162
78.278933213 97.305156992 29.988853404 248 253 255
78.036480485 97.147356954 29.899785741 83 87 98
77.174214042 97.946833510 30.000431033 92 98 96
77.015554491 97.427391291 29.497817004 253 255 254
77.195099286 97.910184239 25.741546017 102 103 97
83.574648236 58.679610982 -2.562183066 107 112 118
83.549932326 58.667031137 -2.562020868 80 87 95
83.743699739 58.232285066 -2.581543826 165 169 180
83.838909152 57.926216121 -2.598025431 157 163 175
83.804974341 57.834100376 -2.596358382 152 159 167
83.955052731 57.783187951 -2.602243013 37 38 42
83.886811783 57.544915987 -2.608372316 163 168 174
83.865801125 57.526526715 -2.601646658 90 95 99
83.941709543 57.379793273 -2.616534165 137 141 150
92.209200432 34.622070267 -3.420166415 85 83 86
91.983541594 31.866561621 -3.462664848 252 248 245
86.424755777 93.858263357 34.027224232 93 108 127
86.464685536 93.827911727 32.746944150 99 106 114
86.316754489 94.343280471 32.141782291 75 89 100
86.344739540 94.336483966 30.828237411 150 162 176
86.601860759 94.480396976 27.138998912 68 80 96
88.663897787 91.464010315 21.344780794 109 107 112
87.995798329 91.351183199 20.034227669 96 98 110
89.261810726 91.664947409 19.177274966 139 99 133
89.261810726 91.664947409 19.177274966 139 99 133
89.908846224 91.819076647 18.219558764 171 175 184
89.110116028 91.639765445 18.566972488 136 98 123
85.892450426 90.618570363 20.018018970 105 111 111
85.892450426 90.618570363 20.018018970 105 111 111
86.920523007 91.074764489 18.266228691 102 115 134
87.861234138 91.060321850 17.352915535 159 158 156
87.263410800 91.127532075 17.881302456 180 176 173
86.711145253 90.472756979 17.463586286 138 134 131
86.636678447 91.231557937 17.910743585 138 135 130
85.761531683 90.493652389 17.884834114 181 184 189
83.147523284 89.742753819 14.929357554 159 162 169
83.065310464 90.253682617 14.141900432 88 98 110
83.017531434 90.392009505 12.839292710 156 158 170
83.017531434 90.392009505 12.839292710 156 158 170
83.706143716 90.609259459 12.214675311 157 156 161
83.718208923 90.518030773 11.886534222 58 59 63
83.486981951 90.417474052 11.339742795 76 83 93
83.486981951 90.417474052 11.339742795 76 83 93
83.720702626 90.565397548 10.888176937 52 57 63
83.510690089 90.308744582 10.631706090 152 155 164
82.199206015 90.300409259 9.075873303 75 82 92
72.028479254 115.119874714 15.926632415 122 117 111
72.118216364 115.097557649 12.824858888 255 255 250
89.139028561 34.730738703 -3.251764668 103 102 107
90.073877930 33.922834675 -3.428284690 82 83 87
90.479468194 33.169272825 -3.273670343 199 197 185
104.609023694 17.681000037 1.590609870 226 217 212
104.609023694 17.681000037 1.590609870 226 217 212
102.025411110 33.466373096 3.256635872 255 238 200
134.010661221 13.508220117 14.894745457 254 211 168
161.368366620 -8.866609215 40.559783375 246 252 250
160.739567112 -7.869710830 40.086909119 235 237 232
160.019577209 -6.116686449 39.175719593 163 165 164
160.019577209 -6.116686449 39.175719593 163 165 164
154.495715729 5.527820086 36.346039076 99 99 97
155.314546456 4.971892738 36.755944637 99 99 97
156.044782468 5.785422225 35.733019795 246 246 244
154.329836610 5.605442714 38.399204299 82 80 85
154.716904068 5.470060765 40.107212613 81 84 99
155.882531073 6.351708239 37.324522157 249 252 243
155.882531073 6.351708239 37.324522157 249 252 243
156.656595770 6.408189372 36.605933060 94 90 91
154.624854020 6.345275508 39.064933935 248 251 255
156.992383265 6.642088579 37.397046448 254 255 250
157.078249937 6.395043457 38.394959312 255 253 255
157.898141491 6.618901635 37.568921990 255 254 252
157.124456942 6.389370926 38.948878513 61 60 68
158.273163570 6.763411229 37.057735726 106 101 97
158.524825541 6.706482846 38.558681563 232 231 229
158.524825541 6.706482846 38.558681563 232 231 229
157.649783749 6.747654656 40.126463707 72 74 87
158.953545091 7.097998142 39.498122342 247 250 255
159.852908597 7.688969408 37.490984126 251 249 252
159.194807556 6.815677009 41.177395737 249 255 255
159.506171837 7.419159528 40.102048262 80 83 100
159.506171837 7.419159528 40.102048262 80 83 100
160.265333063 7.317029946 39.604998870 254 253 255
161.404567998 8.266363065 38.961998483 255 254 255
161.472440482 7.825088601 40.290321518 62 69 85
161.472440482 7.825088601 40.290321518 62 69 85
161.540358677 8.287142858 39.384012319 246 243 255
162.475319988 8.554812448 39.834442459 66 72 86
90.261140729 61.157058636 2.023428359 87 48 9
90.287273488 61.202427907 2.037858427 85 46 7
90.287273488 61.202427907 2.037858427 85 46 7
90.311022646 61.243658816 2.050955103 73 36 0
79.886597684 90.276109160 1.991996837 230 226 201
73.094582124 84.150451668 -1.344456949 58 47 51
72.649720252 84.072431207 -1.324606504 122 120 123
72.312547422 83.936658096 -1.254546075 64 59 63
72.312547422 83.936658096 -1.254546075 64 59 63
71.114475226 84.035101710 -1.659552108 141 137 134
91.419546409 17.677666053 -2.354795401 162 163 167
91.985609253 -2.068356478 1.240403313 123 121 73
89.313772442 18.829494616 -1.091384093 83 70 38
91.409243267 -1.422071702 1.245001222 93 77 44
88.605142496 19.336725511 -1.076310615 97 82 53
83.556034965 -4.691402473 4.032774371 175 154 127
65.938669103 26.836495170 4.705808562 116 111 118
65.137675484 30.604116696 3.791826535 149 137 121
105.600033726 24.473998887 -0.840748026 210 211 206
105.618758115 22.724746394 0.321782970 95 97 96
101.616042948 28.555365540 -2.270431055 52 52 54
103.389326692 22.384715243 0.316502547 89 90 92
103.389326692 22.384715243 0.316502547 89 90 92
103.375641552 21.804393986 0.024184376 158 163 159
103.829612842 20.540294300 -0.864132126 150 150 150
104.061907453 19.347707068 0.298176636 82 75 69
104.061907453 19.347707068 0.298176636 82 75 69
104.064281849 17.662045040 0.124882617 242 241 239
90.165955857 -5.486545691 2.964513139 255 252 233
31.582797894 17.049273532 18.970352736 239 235 236
31.166814204 18.512216418 17.284576644 140 141 143
30.054566645 21.336142689 18.941803525 84 84 86
28.614801591 25.612280485 20.531299641 116 117 111
28.463172125 26.880672794 19.499977751 240 240 240
101.608377592 28.777265617 -2.346717362 246 240 240
101.608377592 28.777265617 -2.346717362 246 240 240
101.593525296 28.583741157 -2.262196059 52 52 54
100.359592372 19.139529416 -3.092995644 91 72 58
99.882905787 20.140680684 -1.506589954 79 77 65
88.148566869 37.175495811 6.349948685 84 95 91
87.789301916 37.035158075 6.216845645 95 94 100
87.789301916 37.035158075 6.216845645 95 94 100
-10.367623506 155.999139008 130.153517233 65 72 80
73.442554259 69.736306609 19.013124092 122 122 122
-15.557680942 161.309387565 104.335556557 155 159 168
-1.336283974 142.336340236 84.752601704 68 69 71
-1.336283974 142.336340236 84.752601704 68 69 71
61.863227765 95.052235458 24.565157895 134 130 129
61.335053468 96.260087878 21.244710267 111 115 124
61.330594735 96.797161599 18.242390928 171 171 163
62.030096934 91.704560055 15.104475160 45 49 52
55.329609891 113.261911090 25.499654439 209 218 225
57.852707378 107.573818266 21.573457259 91 93 92
53.801799892 118.096751152 25.138118857 168 175 183
59.886891963 99.731290672 15.830377231 168 168 160
93.287111473 34.096377180 -2.915098997 234 225 208
98.165114760 22.917316161 -3.125388808 228 221 211
76.600566040 103.721093752 33.546847536 152 146 146
76.653846542 102.280082117 31.135061216 168 163 159
75.974877035 103.765306929 29.172194240 102 102 94
83.205887195 60.286650776 -1.731318234 118 119 114
86.411482680 97.213367202 35.575601065 92 102 112
86.245550643 97.914360636 35.037584346 77 90 98
86.256801276 97.769067768 33.520339149 117 127 137
86.854915589 93.790611829 24.869501018 243 253 255
80.068044916 103.658336210 33.436334810 249 255 255
79.244420993 103.996890257 33.936438822 244 249 253
79.435755408 104.168186603 33.258253426 82 85 90
78.175645935 104.005503396 33.471497313 96 95 103
87.265328290 93.984578535 19.359289033 192 192 192
82.636809235 94.367652388 15.837975727 85 98 114
76.337278544 103.962293481 23.390878196 123 120 111
91.308434721 33.485662336 -2.919788410 249 244 224
94.655311054 21.676648044 -3.147031409 162 160 148
94.024836629 21.996858678 -2.554806672 242 239 234
94.191761270 22.362492371 -2.209652784 131 133 132
105.594315480 14.740129114 2.145322367 148 135 119
103.154169718 21.970861618 1.657627657 246 241 237
109.626687391 7.960774848 4.849198800 138 131 125
107.530981250 14.467041688 3.830375687 110 98 84
106.749466346 15.018965190 5.785523436 178 182 183
109.037516689 15.849199725 3.539626091 255 254 249
110.128154084 15.490276528 6.276285713 255 254 248
98.509081836 38.805540698 2.507483646 238 203 137
100.796525461 37.647461487 3.128714611 251 215 155
100.824766192 37.599068457 4.271858636 255 238 204
104.486676388 35.779860225 4.131029222 228 185 132
111.145781895 32.235963606 7.873554469 156 86 27
111.315491641 32.256904486 8.096828571 255 236 187
159.572191664 1.755298411 43.429858826 74 74 76
159.572191664 1.755298411 43.429858826 74 74 76
159.744805765 1.667600235 43.493865858 89 88 93
159.744805765 1.667600235 43.493865858 89 88 93
98.584708239 54.985978079 5.733679705 102 82 83
101.793186290 57.649603771 5.162782208 229 180 113
104.462889635 59.755689142 12.002400954 73 36 17
126.224113682 67.820237677 15.613132259 52 50 53
118.228781699 76.206387778 12.765469322 232 196 162
109.061714421 80.540472128 14.303775912 246 242 233
103.837178222 19.886448693 3.074055274 87 74 66
168.792236054 7.704269539 37.801415340 32 39 57
162.367720809 7.473459312 34.545056955 187 194 204
160.030923248 5.425431438 30.038631755 173 171 185
160.030923248 5.425431438 30.038631755 173 171 185
159.152643866 5.664771188 30.586563491 44 55 85
162.331657074 5.566537698 37.610796399 36 43 53
158.885434398 6.735834733 38.059420304 221 231 232
160.074813162 5.606299380 38.773753194 26 33 41
160.074813162 5.606299380 38.773753194 26 33 41
161.063480979 -0.720512252 40.010275289 241 239 240
165.730276276 -5.426674191 38.773015731 241 236 243
166.549887567 -7.445319683 35.898015331 173 170 163
166.549887567 -7.445319683 35.898015331 173 170 163
166.653839388 -7.543875562 37.620408113 231 229 230
166.653839388 -7.543875562 37.620408113 231 229 230
171.746755736 -15.998493931 29.809703583 144 132 106
172.978920652 -15.410244874 33.416017935 235 236 240
171.729186703 -14.214756195 35.352043237 226 222 223
171.249240290 -13.370545167 36.738413086 64 54 44
173.293031772 -16.602249523 35.389368185 143 131 117
171.445444316 -18.414164070 31.053158684 245 244 240
174.956808689 -18.508580390 37.739555010 230 230 232
168.811771861 -18.677433223 28.366206011 116 114 93
168.801447168 -19.137608697 29.369901617 239 239 237
168.972864734 -19.366403152 31.467590877 156 154 139
169.151934002 -26.354742732 33.028058259 230 243 255
170.062097539 -27.765623683 32.306143819 232 241 246
124.985616814 56.292475975 -6.311508087 95 94 100
120.610826193 39.372722884 -5.522076557 97 93 82
8.576480023 12.640388592 33.926657857 127 130 135
89.237949569 29.087291073 -0.278453473 46 53 35
104.080777700 34.928942101 -1.465818574 7 13 0
43.280099767 9.167744910 13.256305628 91 108 100
120.369418939 37.966207506 -6.813972609 219 218 213
27.512856990 27.235128135 25.588624130 111 106 103
27.512856990 27.235128135 25.588624130 111 106 103
28.111137381 22.479548312 24.774996775 119 117 128
28.461528710 21.441605287 25.279275005 237 246 253
28.548450681 20.846265024 25.336350311 239 250 254
28.567193442 20.163350886 25.414404930 233 244 250
15.879481017 23.375403686 26.437975643 254 254 255
15.879481017 23.375403686 26.437975643 254 254 255
29.189316065 18.633635567 25.340129224 236 246 248
16.938330414 23.617890808 25.660568399 105 111 107
29.551105129 16.468799986 24.987933531 108 113 119
130.601178901 25.400613085 2.307421979 98 81 61
130.709646920 25.034526555 1.980407462 138 118 91
124.364753846 29.638420487 3.080675367 57 47 35
125.594504759 28.345606592 2.323622780 121 112 95
131.430267940 27.180225007 3.187937102 139 126 110
129.558099093 25.025683219 2.466677284 148 120 98
99.281273226 24.276469422 1.389767579 126 115 95
130.927829837 23.442931828 3.282328658 84 70 57
129.909250780 23.286422391 3.811230904 243 244 246
129.167127854 22.340556693 3.232699829 137 121 105
166.816097928 8.727702780 19.736376660 208 209 213
165.262212656 7.863197411 18.770338498 192 201 200
160.468123645 6.415313689 14.967976854 73 77 86
167.484580464 8.844456692 25.939680221 215 218 223
160.812118449 7.426303832 19.721440590 72 81 90
159.063711544 6.066557058 18.232316533 117 124 134
164.801058881 7.655809069 26.274074557 60 71 101
163.660130738 7.127676895 26.876844300 70 72 93
163.909076722 7.478156875 28.151437905 97 94 105
161.819756870 6.615847097 25.189505519 231 237 251
161.240875944 6.732351710 25.077062865 213 219 235
164.406304599 7.470738516 29.555786133 72 76 88
163.531629092 6.813330683 28.933111408 190 162 161
157.667494942 5.594550680 23.220044456 57 58 60
159.031140703 5.869606304 25.058886497 75 77 89
159.996564431 6.377609386 27.133596455 161 167 193
157.701531268 5.665992582 24.133729541 67 70 77
157.570828007 5.686915019 24.095433045 67 70 77
164.187153520 7.572279098 33.006554015 212 220 233
164.187153520 7.572279098 33.006554015 212 220 233
163.430753305 8.677290569 34.744876626 68 79 97
159.311764241 6.513300318 27.628132424 173 184 212
157.597591740 5.757907862 25.545826916 66 65 71
163.166178473 7.178301592 33.773555483 198 205 221
158.117240883 5.908131262 28.228126765 187 184 201
158.122872908 5.853262830 29.073012438 60 70 95
161.667364619 5.943527068 36.320713793 50 61 79
163.243351435 6.272283194 39.156961456 88 87 85
159.544138375 5.853879070 37.252915994 51 56 52
158.950479069 5.480609369 36.733628292 224 221 214
169.272139197 -6.614315420 40.860131964 213 223 214
172.062655797 -16.074759892 31.244613380 134 119 96
172.062655797 -16.074759892 31.244613380 134 119 96
166.290675612 -17.793515086 21.549193804 81 79 64
166.290675612 -17.793515086 21.549193804 81 79 64
166.323484547 -18.135299668 22.449680113 242 239 220
170.003594112 -17.231111844 30.474990533 240 237 228
168.070974951 -17.131149433 29.279190216 101 97 86
167.000589427 -17.934751033 29.566432164 110 107 90
171.528062615 -22.854031564 34.614929206 242 247 250
165.898303242 -24.547526867 30.643461886 239 243 244
165.898303242 -24.547526867 30.643461886 239 243 244
166.003972516 -24.672099187 30.716424372 242 249 255
166.264217945 -25.693102573 29.821376844 245 255 255
166.514845649 -25.656479773 30.510311337 130 154 182
166.514845649 -25.656479773 30.510311337 130 154 182
97.873023132 32.884002816 -4.954114364 165 161 150
161.209695115 -6.017266817 25.726434754 169 169 161
167.676733213 -13.871074580 27.050439921 69 56 39
33.195892046 19.977646355 22.002961890 254 255 249
33.750853412 17.281728788 21.790175302 121 130 129
33.750853412 17.281728788 21.790175302 121 130 129
14.751849467 11.043010085 23.738562309 247 253 251
14.751849467 11.043010085 23.738562309 247 253 251
22.187684006 13.594576058 16.257646119 227 231 232
22.187684006 13.594576058 16.257646119 227 231 232
14.334828579 10.924494786 18.514159979 59 68 67
14.186319566 10.653180372 18.597257858 239 249 240
-11.180649022 102.826901624 49.396171076 0 5 17
101.989366753 22.984225077 -0.070593357 120 110 101
13.038454902 10.914785037 25.894710851 253 254 255
5.954905162 9.061717725 25.828602444 98 98 88
-39.554819711 -52.465631867 23.683943241 119 120 115
-42.365466332 -53.153483159 24.439480319 240 237 232
-40.102366275 -52.244529163 21.846792133 255 255 244
-40.102366275 -52.244529163 21.846792133 255 255 244
-43.644014143 -53.748730681 24.320573836 94 93 91
-40.081754685 -51.948188759 21.217226045 133 134 128
-42.555802342 -51.983307095 22.568222938 165 171 171
-46.825664223 -53.999126479 24.544323513 250 251 243
-45.825840637 -52.372210197 23.225313616 156 161 157
-10.793969807 -22.476921753 9.783226228 255 253 234
-46.767981161 -42.362150192 24.156095837 246 248 243
-39.782254074 -40.084640668 18.628720180 57 39 39
-46.021688949 -41.848766369 20.575431649 253 254 246
-28.974076417 -26.137737035 14.444867206 174 157 141
-30.196831659 -26.105836383 15.786975858 62 62 72
-29.258791039 -25.425476409 14.820937674 187 171 137
-30.504331251 -25.546697690 15.058390694 181 158 124
-30.930932034 -24.910692826 14.300422794 236 221 202
-21.537255285 -10.181678433 13.788961190 179 184 187
-39.442794123 14.926128358 95.293503538 150 149 147
6.405127193 9.546449605 24.180467196 132 136 139
55.203231503 20.750297984 -3.979491186 98 109 105
64.505326322 15.282984237 4.912378344 40 50 60
48.288459411 12.607581854 4.710059594 185 208 242
48.901603543 18.184825875 -4.844281699 138 140 137
50.530876606 18.557492337 -4.764943948 156 152 140
54.752483564 18.974314961 -4.787388094 236 233 228
56.093704111 19.846270571 -4.755388338 226 224 212
57.417615982 20.639439820 -4.808917485 208 206 191
58.599727952 21.101429005 -4.794612959 73 75 51
57.929594685 20.999016626 -4.383893578 0 3 2
49.108777815 16.336702382 -4.670043870 110 123 129
26.138070109 12.205448967 6.877422744 77 80 73
49.956100325 14.915008081 -4.692744128 196 205 210
55.788909950 16.318766545 -3.968493824 38 35 28
7.307127875 2.435507461 0.252044781 196 186 174
30.737562986 -16.878031111 7.551190703 224 236 255
-46.282475819 -55.086149051 20.720769720 174 176 173
-47.070898454 -55.376577365 21.342145770 75 85 74
-47.070898454 -55.376577365 21.342145770 75 85 74
-47.855790894 -55.736632905 22.035143506 172 168 159
-43.948038136 -49.389663847 21.933455961 125 127 124
-43.948038136 -49.389663847 21.933455961 125 127 124
-60.934811941 -31.969949441 23.084119480 235 242 234
-60.264296055 -32.413859665 22.384870618 149 159 158
42.537768441 12.262113129 -5.787069248 186 200 203
42.537768441 12.262113129 -5.787069248 186 200 203
53.925788268 15.716877572 -7.068624556 173 184 202
29.358889468 17.074737520 7.668981602 152 157 160
54.050481479 15.757489980 -7.089871897 173 184 202
39.679715843 7.403253776 -1.318017427 71 74 43
41.943867957 6.935362072 -1.189476294 198 179 147
40.951483441 6.636756140 -0.566968084 42 51 24
40.376200935 6.042512691 -1.922701469 76 80 53
36.794961787 4.984548024 -0.420181352 189 186 171
37.979515121 4.472412568 -0.535635830 98 94 82
39.262306104 4.181433842 -2.643653460 139 138 118
34.147469942 3.413399315 0.070517800 59 61 37
34.814488706 0.979834566 -0.676658377 65 62 55
37.482270626 0.625566086 -2.012745173 37 30 24
36.511405251 0.660386055 -1.290051833 205 200 181
37.960896829 0.332102376 1.616097038 208 202 186
37.936555338 0.289874071 0.957949221 204 201 182
38.154240831 0.062090869 0.796081859 113 109 97
38.242084883 -0.182174155 1.743489445 162 160 148
38.235658872 -0.195870155 1.163183868 108 105 90
38.352732935 -0.339088263 1.904903039 118 117 99
38.257053966 -0.339781647 1.511259410 122 118 106
38.189922201 -0.593773982 -2.032224145 12 15 4
38.343308794 -0.722472513 -2.332162240 63 63 53
38.180706845 -2.683377850 -2.050612264 126 129 122
39.188001909 -3.272593256 1.826305963 47 37 27
34.572446967 -2.389197954 -2.775282934 215 255 222
39.585386905 -3.781035538 0.876167971 27 22 18
39.810102443 -3.914257831 -2.105143615 98 96 84
39.480417969 -4.120261358 1.572212457 216 209 191
40.460079579 -4.582725039 -0.715475579 215 210 191
39.731979951 -4.477446553 2.568869200 81 79 58
39.522242585 -5.116161051 -0.850387718 103 97 83
39.746749976 -5.500582378 -1.581787827 214 208 182
38.769361639 -6.426305941 1.992585706 57 56 51
42.484670095 -9.312088138 -0.318888382 209 208 206
40.857207912 -8.984192609 -1.866375889 25 11 10
40.756099926 -8.953723156 -2.139692095 37 24 16
41.051722347 -9.106890935 -1.255986994 79 69 68
41.375505476 -9.870205860 -0.307482740 208 205 200
41.388488249 -9.912371101 0.068184163 196 193 188
41.149339494 -9.886570298 -2.152186607 23 4 0
41.788027526 -10.317706986 2.701724160 21 16 10
40.783547748 -10.054207804 -0.855891595 144 146 143
40.695060239 -11.241746738 -3.106363742 30 28 33
43.116348301 -13.112659903 2.248363822 68 76 37
42.597604982 -13.522973595 -0.032176478 12 15 8
42.077564729 -13.226285189 1.544999198 249 251 248
42.737892746 -14.818685215 -3.849679261 0 4 0
42.556040658 -15.076717274 -3.637205271 107 113 113
53.777158206 -35.383086097 -3.188155592 221 225 226
54.307644864 -35.986486527 1.704999219 80 98 110
53.823827901 -36.453147435 -1.587852879 234 240 240
70.107330737 -79.987417360 9.257928560 237 241 242
69.195472993 -81.007871337 8.594067817 231 232 237
67.883496079 -83.503479473 7.303140898 98 103 97
67.284974369 -82.837187105 6.294288420 232 232 230
66.772644570 -83.402126400 5.725769892 22 24 19
66.353814888 -83.418982085 7.368562211 91 97 97
66.353814888 -83.418982085 7.368562211 91 97 97
-7.184267061 9.854921856 2.314726904 18 18 20
11.579162871 32.856407939 -0.123928547 71 70 66
12.396422791 35.175922192 -0.160437610 75 74 69
12.396422791 35.175922192 -0.160437610 75 74 69
13.357770739 37.902640664 -0.212209195 71 71 63
13.357770739 37.902640664 -0.212209195 71 71 63
38.331003662 3.356606453 1.018105463 152 149 142
38.846480988 3.423538921 2.078987835 211 206 186
38.285800138 3.187881006 2.302416633 235 232 225
37.984982124 3.108675639 3.026633279 186 185 164
37.973126369 0.803827383 1.754026921 50 38 26
37.741381949 1.044307883 2.588447331 109 105 93
37.660498235 0.758734599 2.211767824 206 205 184
37.939961678 0.303336591 2.168867186 203 200 185
40.016858533 -2.690517484 4.858664368 215 208 200
21.685618706 33.021023963 -8.635534795 69 74 78
31.634936004 13.169304118 -3.322520643 133 142 141
48.925267464 10.618688508 5.977717571 176 193 219
31.328763468 13.101996868 -4.606938869 83 93 102
22.030191356 7.176859444 -4.065050889 155 152 147
30.204720183 16.296714116 15.746567602 166 165 163
30.204720183 16.296714116 15.746567602 166 165 163
10.005048216 10.700793391 23.690045076 147 148 153
10.005048216 10.700793391 23.690045076 147 148 153
29.914191375 -19.143820730 -10.856181106 89 64 42
34.940708103 1.404055523 -4.018980129 20 15 0
35.205975618 1.509990035 -4.198052993 253 219 182
34.421316446 2.220077016 -4.207658449 224 196 157
34.706529614 2.396442265 -4.148975717 254 230 194
35.192904248 3.304928257 -4.283536911 242 201 147
36.824362378 3.473921370 -4.515201248 242 199 146
39.129874670 3.966815591 -4.090753104 29 29 27
39.254606126 4.359220615 -4.368012772 66 65 44
38.504853587 7.090360409 -4.463743122 40 34 2
39.156635697 8.840098306 -4.479150689 11 13 10
39.156635697 8.840098306 -4.479150689 11 13 10
39.544885883 9.135675703 -4.106129922 185 191 179
39.195293000 8.939349404 -3.787355718 223 225 224
39.375789676 9.407895361 -3.986456707 71 72 76
-8.510108643 -13.417081584 -1.092210649 149 148 143
-8.586103289 -13.537520643 -1.402441222 137 136 131
-8.586103289 -13.537520643 -1.402441222 137 136 131
-8.755147906 -13.494324496 -1.481585606 141 140 135
-9.812665517 -13.848678522 -1.174793259 30 29 27
-2.840858295 -13.030261476 0.598218130 31 33 19
-50.313360549 179.865337141 67.258374417 255 253 255
-48.893233900 179.865508047 66.516335312 116 112 109
-49.341483526 178.641630888 65.016809246 244 244 246
-48.852907632 181.232724903 64.190714211 75 72 79
-48.852907632 181.232724903 64.190714211 75 72 79
-52.998034083 185.377890794 63.880613232 254 254 255
-49.105254586 183.559545733 61.580312726 254 254 254
-64.474962520 183.135774096 61.870622297 75 76 80
-70.263424578 179.843066560 61.066312103 167 170 175
-61.730564858 183.729605735 60.910672382 140 141 143
-63.734554923 184.050451361 61.189390194 78 79 83
-55.012488754 187.144823771 60.909742983 152 153 158
-53.397834262 187.687476063 60.783031564 134 134 132
-48.314164166 184.236651975 56.713421777 91 96 115
1.975779171 -17.468940070 -3.714349035 175 171 162
2.594718226 -20.342952533 -3.776056271 54 58 59
5.310106120 -23.424970193 5.433645046 100 115 72
6.411772389 -19.464013919 5.421899275 29 30 22
-40.407333554 181.842738936 58.128996142 249 248 246
-44.969177590 186.009992927 60.090119753 242 242 242
-43.837587272 184.345147954 58.348788573 135 110 88
-47.048281615 186.662794220 60.563149001 255 255 255
6.180842165 -15.426608521 2.362045596 38 48 23
6.712182033 -15.956874263 2.956459639 138 150 66
8.751146993 -17.709743893 5.311659439 27 32 26
8.700418475 -17.624598092 5.587093457 104 113 86
11.967480736 -14.523424753 3.512634880 129 133 100
-7.528552544 -12.715947516 -2.558554458 136 137 129
0.190890890 -23.795103050 -3.182500428 217 169 121
-98.093519824 83.952918531 39.540359276 248 251 255
-90.435030158 87.006880953 37.092397484 144 148 157
-65.460587860 63.154110523 13.652128063 131 137 149
-65.493077240 63.171558912 11.897599094 108 112 123
-65.493077240 63.171558912 11.897599094 108 112 123
-62.686627653 64.051480739 11.861061056 106 109 124
6.337298262 -79.036005417 16.939000265 225 217 215
-38.746645359 74.529530529 12.422343267 104 110 124
-45.209279411 112.107986072 14.009459208 74 78 103
-45.209279411 112.107986072 14.009459208 74 78 103
-42.747094357 111.468195207 11.333396073 87 111 147
-38.783588482 130.456685128 44.568393619 92 93 98
-37.077313279 130.495465088 44.209333057 112 110 115
-38.753437804 129.631650583 42.943431714 253 252 250
-36.981041204 131.325470070 42.540864190 85 88 93
-36.761108209 131.457110816 40.182606029 235 239 248
-36.761108209 131.457110816 40.182606029 235 239 248
-45.972885437 127.174408875 38.931864476 98 101 110
-45.482530919 127.742929064 38.474098489 81 84 93
-38.612006774 129.920051309 38.162400219 188 188 196
-41.471335846 129.638531463 37.930362123 115 112 119
-38.598913295 130.800520319 37.749369023 243 246 251
-37.968233181 129.446434790 35.962714063 238 237 243
-37.595575594 130.274482507 35.734714498 114 118 127
-37.595575594 130.274482507 35.734714498 114 118 127
-37.913959458 131.577383123 34.778953056 116 114 102
-41.733318613 118.211552770 19.548471351 158 164 176
-41.657947350 114.964564830 14.165497773 69 71 83
-39.920650544 114.613896231 12.559558244 67 58 63
-42.127778121 112.567215402 12.116924488 67 69 81
-0.069018409 -8.865184262 2.397819229 128 141 113
1.855717895 -13.846449589 4.415754463 58 64 50
3.978405771 -13.629674733 4.938073794 25 32 16
4.228233878 -13.574986845 4.880549776 137 148 116
5.208381284 -14.339708591 5.163571506 29 38 33
-4.802819547 8.209714865 5.811401120 32 37 40
-30.926865210 133.683402019 39.087765533 126 132 144
-31.301325179 132.681940490 38.684466207 255 255 250
-35.302659434 131.002224748 34.737167114 134 129 125
-65.970824042 4.287369538 4.721741222 45 43 44
-54.304127875 37.873344058 -4.552644637 90 95 91
-59.302148057 36.496066486 5.215493136 49 60 56
-70.172346839 0.474138506 8.931051424 96 96 98
-45.339726058 41.097754154 -3.897730420 16 15 10
1.774612429 57.777984165 -1.919179770 80 81 76
1.085365623 57.631460690 -1.998606021 143 140 133
42.103562372 67.474510597 -4.315622030 218 214 205
-94.056741672 8.002969866 -22.051685814 38 43 39
-131.158262928 -6.537798722 41.853124174 233 253 254
-133.614502571 -9.509073642 43.233716387 77 96 113
-131.066496247 -8.276984922 42.509158507 110 129 146
-130.771099236 -9.511440331 42.639316972 232 255 255
-130.771099236 -9.511440331 42.639316972 232 255 255
-131.933445090 -12.152409704 43.395373434 233 251 251
-131.933445090 -12.152409704 43.395373434 233 251 251
-132.304292254 -13.635979759 43.229798716 123 136 144
-133.203563005 -17.085786638 43.602314644 97 111 122
-133.203563005 -17.085786638 43.602314644 97 111 122
63.647227241 68.103990381 18.900234969 240 241 243
92.750016754 93.484812936 28.390397060 174 192 202
24.318717660 75.799856235 -1.058216051 40 43 58
-113.686707899 0.961481121 36.774008299 211 228 244
-114.817359870 -1.204249520 37.673066908 88 100 124
-117.976835079 -3.996891166 38.750470499 211 228 248
14.688679913 97.563335270 -9.504245271 96 98 110
10.306307166 109.292997667 -13.047943429 122 124 136
63.941603898 102.121726291 47.943241737 140 147 165
88.488551252 96.176410425 52.065388305 137 155 179
0.731780252 35.778485218 13.056501600 90 92 91
1.377539546 36.266126424 13.002562979 92 92 90
-71.538655741 68.238210400 20.135843129 160 165 171
36.545224875 95.159025599 22.093531335 137 102 100
61.319027878 87.549858828 8.526770952 14 19 23
121.464581117 97.384087566 5.810105187 60 65 35
15.946187087 58.626273984 6.197181357 207 222 241
13.568884102 57.365716483 6.850662682 241 253 255
119.829693838 95.992409982 5.462867009 95 99 84
114.615517081 93.950909675 4.133448219 34 40 26
110.211381148 78.858253125 5.853175459 98 50 12
100.376552914 80.317796017 6.935635111 140 113 104
64.145037979 70.821766154 0.526535859 169 167 152
52.915812784 85.209628083 9.891771919 125 133 154
60.218568905 85.790289565 12.141087634 19 29 41
90.290265320 75.092603724 2.225605542 31 0 0
82.940356174 76.043888543 1.195855355 55 28 17
73.107813085 111.841249560 1.992568413 122 118 106
68.062065117 7.825930342 18.903342157 183 180 187
64.435715300 86.467316380 9.016508903 112 113 115
65.454450276 86.452946639 23.983561380 252 252 250
63.412439632 86.143216527 15.507137275 90 95 91
64.223809584 86.288356884 13.966827319 147 153 149
64.610432137 86.578806018 14.303611922 162 175 183
64.354145942 86.416211801 10.940391397 75 75 77
77.221251005 97.872078949 29.937268756 71 75 87
89.273023236 91.393981641 19.002152597 122 90 114
89.129499988 91.399137801 18.405413467 125 92 119
86.626269076 90.789561033 17.701394905 129 119 110
83.917001200 89.942650262 16.162454095 86 99 108
83.204222264 89.366892259 14.751364810 146 152 164
83.539931285 90.083097645 11.203997774 59 68 83
96.134915647 9.130314271 -4.119439866 24 22 23
86.083091585 -3.579477272 3.196655415 248 247 245
48.565372058 121.878866874 28.482779993 178 181 172
70.380374239 120.791265822 24.364236546 254 253 251
123.961833310 -35.491241533 14.023627037 242 235 229
123.213313180 -32.514869427 13.464894476 62 33 27
86.517327866 95.074836108 34.150538139 99 106 114
66.987580415 84.240618739 0.761911837 152 152 140
66.987580415 84.240618739 0.761911837 152 152 140
67.883471596 83.243315906 0.651316178 35 36 41
87.059404367 103.301308191 13.709732088 76 45 27
79.055559564 45.090765352 -0.370366358 169 174 178
79.055559564 45.090765352 -0.370366358 169 174 178
89.349905806 69.633069634 10.126347443 153 156 165
90.146909977 69.024244622 9.750519925 111 113 125
88.569511928 45.040111023 8.708069733 143 166 207
73.153041899 36.057135702 6.210448128 254 254 252
-39.035333995 -18.032289344 27.547134813 134 139 135
68.762785722 38.134942804 4.418093995 156 162 174
-8.619026628 -9.993271125 6.262399251 236 231 211
-74.446126933 -15.132106429 47.061273018 245 255 254
-69.958850699 -30.019363256 41.644664675 109 112 119
67.477569967 11.797861262 -1.930206319 3 15 3
-81.950031794 -39.356453243 36.474929949 143 147 146
-77.546100565 -36.552854799 34.751246168 186 190 189
-101.709460770 -55.270878984 41.107836169 75 76 78
25.703950241 11.861379258 4.777885087 105 108 99
186.492169927 8.467216369 34.505358578 97 109 133
186.492169927 8.467216369 34.505358578 97 109 133
178.085693630 7.150113435 30.586950844 244 248 251
178.695614324 7.225895950 32.594338030 235 244 253
181.653561964 -7.419299568 37.139973325 49 51 46
181.085092256 -9.908597020 36.722597641 254 255 248
-103.315962143 -47.164791788 37.961363615 187 193 189
174.963579198 8.300930902 31.932544725 94 108 137
169.297654853 7.011908170 30.921146899 234 241 255
169.297654853 7.011908170 30.921146899 234 241 255
170.059486475 7.096282377 32.893035973 208 217 226
170.205871174 6.189614857 34.913656685 85 98 117
166.933367333 5.224585111 34.862161141 252 255 255
-143.327741396 -216.331991149 150.071316573 247 255 255
30.336607419 31.968451117 36.797299171 87 88 82
65.122378939 17.913276675 -6.487703549 29 40 36
65.122378939 17.913276675 -6.487703549 29 40 36
28.262550630 34.581715412 19.993109219 65 74 83
27.788785882 34.002185903 19.657842438 60 73 81
27.224910593 33.297561578 19.270164016 60 75 78
26.096595914 31.889455100 18.492521913 59 70 74
25.100716805 30.651813672 17.801931171 63 72 79
24.725364617 30.183638314 17.542781781 65 75 84
-164.256296152 -76.509948289 40.283453662 103 106 115
-165.863679513 -75.867836099 44.818413166 86 90 101
-165.863679513 -75.867836099 44.818413166 86 90 101
-166.031461330 -74.832531616 45.709034703 169 173 182
-44.846924258 163.725310578 60.303911601 116 112 109
-44.923541267 165.718327154 58.442384160 75 72 79
-58.363526993 164.670636359 55.409044449 75 76 80
-57.832151795 165.884762442 54.933626498 78 79 83
-52.201480105 168.195329968 54.028846681 91 85 89
-46.340403879 166.669408621 52.678941579 120 125 131
-47.002139328 169.462203500 51.154443581 114 118 117
-47.654863716 171.805512215 51.070598951 255 251 240
-48.096996594 173.967214117 50.792575914 114 105 98
7.115254488 -18.687521467 5.500591672 14 23 4
-44.006106515 173.752878264 53.090363356 249 255 251
3.739148521 34.567037770 3.521883782 127 109 69
-64.262871373 5.966496564 4.252444834 45 43 44
-0.028749880 57.141498617 -1.737249698 121 117 114
-221.357546907 -46.530341177 66.495870091 207 227 252
-218.546694124 -46.209539171 65.228704555 212 228 241
-214.308639855 -45.671419931 64.502340794 79 96 104
-215.099781381 -47.003106676 66.467203285 197 217 241
-215.099781381 -47.003106676 66.467203285 197 217 241
-213.014036569 -47.446727854 67.144478831 204 229 251
-210.954680940 -50.045408747 66.551188315 206 226 250
-210.954680940 -50.045408747 66.551188315 206 226 250
-207.534912148 -49.945482800 65.524335420 23 39 62
-172.721118702 -47.876172688 33.780401898 208 224 239
8.032131210 59.655921328 -1.960663252 160 161 156
-149.935458794 -5.832243216 45.532271148 233 252 255
-149.453705697 -5.684166514 45.403209742 235 254 255
-148.699617698 -6.886387347 45.187692091 128 140 152
-146.040501214 -11.986930511 45.006552820 243 255 255
-144.321395032 -14.713208116 46.732802732 77 96 113
-146.575167863 -24.372326705 48.030735266 97 111 122
-123.379852665 0.237149296 37.819327732 100 111 129
-123.699397454 -2.161437212 37.864983906 232 245 251
-124.773566527 -1.976252164 38.468354591 209 224 247
-123.878066624 -3.146415798 38.187051311 87 106 113
-123.691369725 -3.522882929 39.194284442 208 227 241
-126.929666415 -8.169044909 40.976377073 215 236 255
149.457870295 113.538094145 7.963414510 126 134 111
190.680989540 132.481363020 20.634207342 71 71 71
191.621242228 132.264187839 21.372966306 250 250 250
191.916802726 131.770522882 20.892383123 84 88 89
191.916802726 131.770522882 20.892383123 84 88 89
187.536456634 129.375996016 18.747861381 247 248 252
187.536456634 129.375996016 18.747861381 247 248 252
187.101129397 128.219303088 18.637222748 240 244 247
150.735328734 112.205472034 8.363405809 113 120 89
149.697978810 111.722819274 7.646939894 18 22 5
149.697978810 111.722819274 7.646939894 18 22 5
67.164986917 82.442813942 6.692682075 81 81 79
60.548150579 85.972560607 13.307698111 30 34 43
69.951734069 82.344900426 5.147410286 236 234 239
117.543325199 144.446298969 62.412836562 222 222 220
69.350940829 92.415771796 -6.960087984 128 132 135
119.998955743 -25.316611246 12.166137100 43 30 24
71.698220471 117.159443056 22.771560089 125 118 102
93.459593137 53.098903587 3.867936586 205 162 120
-73.998882680 -7.126318486 64.044254280 230 242 255
84.518128231 37.055762145 0.923766480 226 231 234
-136.158503969 -87.445752798 65.023169442 62 71 76
-136.158503969 -87.445752798 65.023169442 62 71 76
-135.599768100 -90.397139966 61.370621427 144 154 156
-136.718597345 -82.232130393 65.147345741 91 106 109
-136.951728780 -86.842043785 62.778832095 83 94 96
-136.951728780 -86.842043785 62.778832095 83 94 96
-138.127966412 -82.718656250 63.045490652 112 120 123
-136.732802033 -80.583702087 57.247255548 168 172 183
-69.414369386 -35.039416479 27.777198809 122 137 132
-69.142207079 -34.923224891 24.248521768 92 113 98
-141.299965460 -32.234392618 71.767377402 231 242 246
-141.299965460 -32.234392618 71.767377402 231 242 246
-53.139181023 -35.896198382 25.052379059 51 54 47
163.915949302 27.772759427 30.830515199 96 93 86
165.514330659 25.866817757 30.410713760 35 34 39
-125.519840312 -71.671773831 58.264067321 101 101 99
-120.398078184 -53.548113470 59.022523988 252 253 255
-119.925575286 -55.107907136 57.604227672 255 255 255
-120.375232658 -54.163749347 58.185364419 104 111 117
-116.779064438 -55.996897330 53.539980431 96 101 105
-120.312102271 -61.425452843 48.104624341 66 70 69
-120.312102271 -61.425452843 48.104624341 66 70 69
-118.188925726 -54.123525914 50.123627136 145 154 153
-114.809987660 -51.049932335 48.248478784 149 154 157
-115.846310531 -53.176222548 44.966409401 153 158 161
-56.623666866 -29.921236563 23.743416621 122 138 128
-52.727413351 -28.850854790 22.056734609 223 230 223
-55.821376315 -29.603676042 21.997351521 97 115 101
-127.523282838 -29.034781395 64.740349237 245 255 254
-127.523282838 -29.034781395 64.740349237 245 255 254
-120.697975991 -49.415856965 57.059877840 109 112 119
-120.629551940 -46.891081501 55.577455379 250 248 253
-122.350293377 -47.853839258 53.422153856 56 60 71
-121.907024079 -48.842229655 49.191181967 141 146 149
-116.710568395 -46.827065897 41.420611464 142 148 144
-144.350756826 -115.109621603 74.988642514 63 72 77
-151.181126926 -106.994571525 66.847288556 177 185 187
-150.937993647 -110.063286345 74.031081729 106 116 125
-152.210447340 -108.052984413 74.281621402 114 125 127
-150.411409801 -108.305527498 72.362688840 162 170 173
-152.940411130 -108.654134392 71.799740145 84 91 97
-152.940411130 -108.654134392 71.799740145 84 91 97
-154.616107649 -90.561577610 74.928248550 127 136 141
-153.353833420 -96.617888170 70.900877726 86 90 99
-153.353833420 -96.617888170 70.900877726 86 90 99
-153.905382671 -95.016209230 70.149185386 172 177 183
-153.905382671 -95.016209230 70.149185386 172 177 183
-153.380576313 -98.879628377 68.000408334 77 86 95
-153.380576313 -98.879628377 68.000408334 77 86 95
-154.730089275 -100.952747265 67.569666060 163 168 174
-155.421707307 -91.696206189 71.507193988 113 127 130
-153.173152818 -95.449379257 68.099298586 113 120 126
-153.537235127 -94.380261601 66.804838135 171 178 184
-154.092223193 -90.717954022 68.284900134 123 128 132
-153.985145906 -96.584611331 64.322011182 168 173 179
-155.018548433 -93.731641658 65.882507520 92 100 103
-153.750748666 -86.703557732 66.586241853 72 76 77
-162.972567574 -80.290059947 73.924532803 245 250 253
-156.034562635 -68.717144888 72.329873573 103 104 106
-163.728392873 -76.308274908 70.737123784 125 130 136
-157.746803148 -70.828123079 64.462638279 171 175 178
-160.758783710 -73.431260420 62.512498695 109 113 116
-114.844467599 -53.715227270 47.320377492 107 111 114
-161.982215558 -37.533703789 79.234375669 252 255 255
-161.982215558 -37.533703789 79.234375669 252 255 255
-160.278613687 -41.038708026 77.308106083 132 133 128
-160.278613687 -41.038708026 77.308106083 132 133 128
-156.101572575 -62.998973426 70.765825563 113 119 117
-156.310240418 -63.246768785 70.719628847 116 122 122
-165.912390574 -63.923439345 69.045016070 84 86 81
38.085443221 12.100352714 -2.209847516 94 102 113
167.923094065 7.381538578 29.777026733 243 249 255
-136.516757625 -66.828179928 51.332977500 192 199 192
-191.138713556 -86.381771842 67.052052148 123 127 128
-138.885124779 -63.528999956 49.480077515 119 125 125
-137.134327214 -54.216560998 46.901427887 176 180 181
-140.505647297 -54.156060998 38.454510026 81 91 82
-141.086560035 -55.616417163 38.501106888 171 176 180
74.661843878 26.037615519 -6.407916380 90 94 59
16.667747403 11.620999603 10.317084846 205 204 199
-31.587958793 -19.482137221 -10.579982183 147 143 131
