ply
format ascii 1.0
element vertex 1890
property double x
property double y
property double z
property uchar red
property uchar green
property uchar blue
end_header
0.000000000 0.000000000 0.000000000 255 255 255
0.000000000 0.000000000 0.000000000 0 100 255
-0.095280384 -0.030176393 0.003321709 0 100 255
-0.190560768 -0.060352786 0.006643418 0 100 255
-0.285841152 -0.090529179 0.009965127 0 100 255
-0.381121536 -0.120705571 0.013286836 0 100 255
-0.476401920 -0.150881964 0.016608545 0 100 255
-0.571682304 -0.181058357 0.019930254 0 100 255
-0.666962688 -0.211234750 0.023251963 0 100 255
-0.762243072 -0.241411143 0.026573672 0 100 255
-0.857523455 -0.271587536 0.029895380 0 100 255
-0.952803839 -0.301763929 0.033217089 0 100 255
-1.048084223 -0.331940321 0.036538798 0 100 255
-1.143364607 -0.362116714 0.039860507 0 100 255
-1.238644991 -0.392293107 0.043182216 0 100 255
-1.333925375 -0.422469500 0.046503925 0 100 255
-1.429205759 -0.452645893 0.049825634 0 100 255
-1.524486143 -0.482822286 0.053147343 0 100 255
-1.619766527 -0.512998678 0.056469052 0 100 255
-1.715046911 -0.543175071 0.059790761 0 100 255
-1.810327295 -0.573351464 0.063112470 0 100 255
-1.905607679 -0.603527857 0.066434179 0 100 255
-2.000888063 -0.633704250 0.069755888 0 100 255
-2.096168447 -0.663880643 0.073077597 0 100 255
-2.191448831 -0.694057036 0.076399306 0 100 255
-2.286729215 -0.724233428 0.079721015 0 100 255
-2.382009599 -0.754409821 0.083042723 0 100 255
-2.477289983 -0.784586214 0.086364432 0 100 255
-2.572570366 -0.814762607 0.089686141 0 100 255
-2.667850750 -0.844939000 0.093007850 0 100 255
-2.763131134 -0.875115393 0.096329559 0 100 255
-2.858411518 -0.905291786 0.099651268 0 100 255
0.000000000 0.000000000 0.000000000 255 140 0
-0.030188580 0.095334306 0.000140271 255 140 0
-0.060377161 0.190668612 0.000280542 255 140 0
-0.090565741 0.286002919 0.000420813 255 140 0
-0.120754322 0.381337225 0.000561084 255 140 0
-0.150942902 0.476671531 0.000701355 255 140 0
-0.181131483 0.572005837 0.000841627 255 140 0
-0.211320063 0.667340143 0.000981898 255 140 0
-0.241508644 0.762674449 0.001122169 255 140 0
-0.271697224 0.858008756 0.001262440 255 140 0
-0.301885804 0.953343062 0.001402711 255 140 0
-0.332074385 1.048677368 0.001542982 255 140 0
-0.362262965 1.144011674 0.001683253 255 140 0
-0.392451546 1.239345980 0.001823524 255 140 0
-0.422640126 1.334680287 0.001963795 255 140 0
-0.452828707 1.430014593 0.002104066 255 140 0
-0.483017287 1.525348899 0.002244337 255 140 0
-0.513205868 1.620683205 0.002384609 255 140 0
-0.543394448 1.716017511 0.002524880 255 140 0
-0.573583028 1.811351817 0.002665151 255 140 0
-0.603771609 1.906686124 0.002805422 255 140 0
-0.633960189 2.002020430 0.002945693 255 140 0
-0.664148770 2.097354736 0.003085964 255 140 0
-0.694337350 2.192689042 0.003226235 255 140 0
-0.724525931 2.288023348 0.003366506 255 140 0
-0.754714511 2.383357654 0.003506777 255 140 0
-0.784903092 2.478691961 0.003647048 255 140 0
-0.815091672 2.574026267 0.003787320 255 140 0
-0.845280253 2.669360573 0.003927591 255 140 0
-0.875468833 2.764694879 0.004067862 255 140 0
-0.905657413 2.860029185 0.004208133 255 140 0
-6.331262337 6.348342181 0.000000000 255 255 255
-6.331262337 6.348342181 0.000000000 0 100 255
-6.361515945 6.443630304 0.002211961 0 100 255
-6.391769554 6.538918428 0.004423922 0 100 255
-6.422023162 6.634206551 0.006635883 0 100 255
-6.452276771 6.729494674 0.008847844 0 100 255
-6.482530379 6.824782797 0.011059805 0 100 255
-6.512783988 6.920070920 0.013271766 0 100 255
-6.543037596 7.015359043 0.015483727 0 100 255
-6.573291205 7.110647166 0.017695688 0 100 255
-6.603544814 7.205935289 0.019907649 0 100 255
-6.633798422 7.301223412 0.022119610 0 100 255
-6.664052031 7.396511535 0.024331571 0 100 255
-6.694305639 7.491799658 0.026543532 0 100 255
-6.724559248 7.587087781 0.028755493 0 100 255
-6.754812856 7.682375904 0.030967454 0 100 255
-6.785066465 7.777664027 0.033179415 0 100 255
-6.815320074 7.872952150 0.035391376 0 100 255
-6.845573682 7.968240274 0.037603337 0 100 255
-6.875827291 8.063528397 0.039815298 0 100 255
-6.906080899 8.158816520 0.042027260 0 100 255
-6.936334508 8.254104643 0.044239221 0 100 255
-6.966588116 8.349392766 0.046451182 0 100 255
-6.996841725 8.444680889 0.048663143 0 100 255
-7.027095333 8.539969012 0.050875104 0 100 255
-7.057348942 8.635257135 0.053087065 0 100 255
-7.087602551 8.730545258 0.055299026 0 100 255
-7.117856159 8.825833381 0.057510987 0 100 255
-7.148109768 8.921121504 0.059722948 0 100 255
-7.178363376 9.016409627 0.061934909 0 100 255
-7.208616985 9.111697750 0.064146870 0 100 255
-7.238870593 9.206985873 0.066358831 0 100 255
-6.331262337 6.348342181 0.000000000 255 140 0
-6.235949330 6.378596824 0.000295804 255 140 0
-6.140636324 6.408851466 0.000591609 255 140 0
-6.045323318 6.439106108 0.000887413 255 140 0
-5.950010312 6.469360750 0.001183217 255 140 0
-5.854697306 6.499615392 0.001479022 255 140 0
-5.759384300 6.529870035 0.001774826 255 140 0
-5.664071294 6.560124677 0.002070631 255 140 0
-5.568758288 6.590379319 0.002366435 255 140 0
-5.473445282 6.620633961 0.002662239 255 140 0
-5.378132276 6.650888603 0.002958044 255 140 0
-5.282819270 6.681143246 0.003253848 255 140 0
-5.187506264 6.711397888 0.003549652 255 140 0
-5.092193258 6.741652530 0.003845457 255 140 0
-4.996880252 6.771907172 0.004141261 255 140 0
-4.901567246 6.802161814 0.004437066 255 140 0
-4.806254239 6.832416457 0.004732870 255 140 0
-4.710941233 6.862671099 0.005028674 255 140 0
-4.615628227 6.892925741 0.005324479 255 140 0
-4.520315221 6.923180383 0.005620283 255 140 0
-4.425002215 6.953435025 0.005916087 255 140 0
-4.329689209 6.983689668 0.006211892 255 140 0
-4.234376203 7.013944310 0.006507696 255 140 0
-4.139063197 7.044198952 0.006803501 255 140 0
-4.043750191 7.074453594 0.007099305 255 140 0
-3.948437185 7.104708236 0.007395109 255 140 0
-3.853124179 7.134962878 0.007690914 255 140 0
-3.757811173 7.165217521 0.007986718 255 140 0
-3.662498167 7.195472163 0.008282522 255 140 0
-3.567185161 7.225726805 0.008578327 255 140 0
-3.471872155 7.255981447 0.008874131 255 140 0
-9.343874056 16.079076236 0.000000000 255 255 255
-9.343874056 16.079076236 0.000000000 0 100 255
-9.373920378 16.174449633 0.001064712 0 100 255
-9.403966700 16.269823031 0.002129423 0 100 255
-9.434013021 16.365196428 0.003194135 0 100 255
-9.464059343 16.460569826 0.004258847 0 100 255
-9.494105664 16.555943223 0.005323558 0 100 255
-9.524151986 16.651316621 0.006388270 0 100 255
-9.554198308 16.746690018 0.007452982 0 100 255
-9.584244629 16.842063415 0.008517693 0 100 255
-9.614290951 16.937436813 0.009582405 0 100 255
-9.644337272 17.032810210 0.010647117 0 100 255
-9.674383594 17.128183608 0.011711829 0 100 255
-9.704429916 17.223557005 0.012776540 0 100 255
-9.734476237 17.318930403 0.013841252 0 100 255
-9.764522559 17.414303800 0.014905964 0 100 255
-9.794568880 17.509677198 0.015970675 0 100 255
-9.824615202 17.605050595 0.017035387 0 100 255
-9.854661524 17.700423993 0.018100099 0 100 255
-9.884707845 17.795797390 0.019164810 0 100 255
-9.914754167 17.891170788 0.020229522 0 100 255
-9.944800488 17.986544185 0.021294234 0 100 255
-9.974846810 18.081917583 0.022358945 0 100 255
-10.004893131 18.177290980 0.023423657 0 100 255
-10.034939453 18.272664378 0.024488369 0 100 255
-10.064985775 18.368037775 0.025553080 0 100 255
-10.095032096 18.463411173 0.026617792 0 100 255
-10.125078418 18.558784570 0.027682504 0 100 255
-10.155124739 18.654157968 0.028747216 0 100 255
-10.185171061 18.749531365 0.029811927 0 100 255
-10.215217383 18.844904763 0.030876639 0 100 255
-10.245263704 18.940278160 0.031941351 0 100 255
-9.343874056 16.079076236 0.000000000 255 140 0
-9.248495000 16.109123319 0.000091501 255 140 0
-9.153115943 16.139170401 0.000183002 255 140 0
-9.057736887 16.169217484 0.000274503 255 140 0
-8.962357830 16.199264567 0.000366004 255 140 0
-8.866978774 16.229311650 0.000457505 255 140 0
-8.771599717 16.259358733 0.000549006 255 140 0
-8.676220660 16.289405816 0.000640507 255 140 0
-8.580841604 16.319452899 0.000732008 255 140 0
-8.485462547 16.349499982 0.000823509 255 140 0
-8.390083491 16.379547065 0.000915010 255 140 0
-8.294704434 16.409594148 0.001006511 255 140 0
-8.199325377 16.439641231 0.001098012 255 140 0
-8.103946321 16.469688314 0.001189513 255 140 0
-8.008567264 16.499735397 0.001281014 255 140 0
-7.913188208 16.529782480 0.001372515 255 140 0
-7.817809151 16.559829563 0.001464016 255 140 0
-7.722430095 16.589876646 0.001555517 255 140 0
-7.627051038 16.619923729 0.001647018 255 140 0
-7.531671981 16.649970812 0.001738519 255 140 0
-7.436292925 16.680017895 0.001830020 255 140 0
-7.340913868 16.710064977 0.001921521 255 140 0
-7.245534812 16.740112060 0.002013022 255 140 0
-7.150155755 16.770159143 0.002104523 255 140 0
-7.054776699 16.800206226 0.002196024 255 140 0
-6.959397642 16.830253309 0.002287525 255 140 0
-6.864018585 16.860300392 0.002379026 255 140 0
-6.768639529 16.890347475 0.002470527 255 140 0
-6.673260472 16.920394558 0.002562028 255 140 0
-6.577881416 16.950441641 0.002653529 255 140 0
-6.482502359 16.980488724 0.002745030 255 140 0
-12.299103897 25.500700419 0.000000000 255 255 255
-12.299103897 25.500700419 0.000000000 0 100 255
-12.329274565 25.596027196 0.001592570 0 100 255
-12.359445233 25.691353974 0.003185139 0 100 255
-12.389615901 25.786680751 0.004777709 0 100 255
-12.419786569 25.882007529 0.006370278 0 100 255
-12.449957237 25.977334306 0.007962848 0 100 255
-12.480127905 26.072661084 0.009555417 0 100 255
-12.510298573 26.167987861 0.011147987 0 100 255
-12.540469242 26.263314639 0.012740557 0 100 255
-12.570639910 26.358641416 0.014333126 0 100 255
-12.600810578 26.453968194 0.015925696 0 100 255
-12.630981246 26.549294971 0.017518265 0 100 255
-12.661151914 26.644621749 0.019110835 0 100 255
-12.691322582 26.739948526 0.020703405 0 100 255
-12.721493250 26.835275304 0.022295974 0 100 255
-12.751663918 26.930602081 0.023888544 0 100 255
-12.781834586 27.025928859 0.025481113 0 100 255
-12.812005254 27.121255636 0.027073683 0 100 255
-12.842175922 27.216582414 0.028666252 0 100 255
-12.872346590 27.311909191 0.030258822 0 100 255
-12.902517258 27.407235969 0.031851392 0 100 255
-12.932687926 27.502562746 0.033443961 0 100 255
-12.962858595 27.597889524 0.035036531 0 100 255
-12.993029263 27.693216302 0.036629100 0 100 255
-13.023199931 27.788543079 0.038221670 0 100 255
-13.053370599 27.883869857 0.039814240 0 100 255
-13.083541267 27.979196634 0.041406809 0 100 255
-13.113711935 28.074523412 0.042999379 0 100 255
-13.143882603 28.169850189 0.044591948 0 100 255
-13.174053271 28.265176967 0.046184518 0 100 255
-13.204223939 28.360503744 0.047777087 0 100 255
-12.299103897 25.500700419 0.000000000 255 140 0
-12.203765277 25.530875658 -0.000049226 255 140 0
-12.108426656 25.561050896 -0.000098452 255 140 0
-12.013088036 25.591226135 -0.000147678 255 140 0
-11.917749415 25.621401374 -0.000196904 255 140 0
-11.822410795 25.651576612 -0.000246131 255 140 0
-11.727072174 25.681751851 -0.000295357 255 140 0
-11.631733554 25.711927090 -0.000344583 255 140 0
-11.536394934 25.742102329 -0.000393809 255 140 0
-11.441056313 25.772277567 -0.000443035 255 140 0
-11.345717693 25.802452806 -0.000492261 255 140 0
-11.250379072 25.832628045 -0.000541487 255 140 0
-11.155040452 25.862803283 -0.000590713 255 140 0
-11.059701831 25.892978522 -0.000639939 255 140 0
-10.964363211 25.923153761 -0.000689166 255 140 0
-10.869024591 25.953329000 -0.000738392 255 140 0
-10.773685970 25.983504238 -0.000787618 255 140 0
-10.678347350 26.013679477 -0.000836844 255 140 0
-10.583008729 26.043854716 -0.000886070 255 140 0
-10.487670109 26.074029954 -0.000935296 255 140 0
-10.392331488 26.104205193 -0.000984522 255 140 0
-10.296992868 26.134380432 -0.001033748 255 140 0
-10.201654248 26.164555671 -0.001082974 255 140 0
-10.106315627 26.194730909 -0.001132201 255 140 0
-10.010977007 26.224906148 -0.001181427 255 140 0
-9.915638386 26.255081387 -0.001230653 255 140 0
-9.820299766 26.285256625 -0.001279879 255 140 0
-9.724961145 26.315431864 -0.001329105 255 140 0
-9.629622525 26.345607103 -0.001378331 255 140 0
-9.534283905 26.375782342 -0.001427557 255 140 0
-9.438945284 26.405957580 -0.001476783 255 140 0
-16.401997854 38.637809129 0.000000000 255 255 255
-16.401997854 38.637809129 0.000000000 0 100 255
-16.432700230 38.732970211 0.001316336 0 100 255
-16.463402606 38.828131292 0.002632672 0 100 255
-16.494104982 38.923292373 0.003949008 0 100 255
-16.524807358 39.018453454 0.005265344 0 100 255
-16.555509734 39.113614535 0.006581679 0 100 255
-16.586212110 39.208775616 0.007898015 0 100 255
-16.616914486 39.303936697 0.009214351 0 100 255
-16.647616862 39.399097779 0.010530687 0 100 255
-16.678319238 39.494258860 0.011847023 0 100 255
-16.709021614 39.589419941 0.013163359 0 100 255
-16.739723990 39.684581022 0.014479695 0 100 255
-16.770426366 39.779742103 0.015796031 0 100 255
-16.801128742 39.874903184 0.017112366 0 100 255
-16.831831118 39.970064266 0.018428702 0 100 255
-16.862533494 40.065225347 0.019745038 0 100 255
-16.893235870 40.160386428 0.021061374 0 100 255
-16.923938246 40.255547509 0.022377710 0 100 255
-16.954640622 40.350708590 0.023694046 0 100 255
-16.985342998 40.445869671 0.025010382 0 100 255
-17.016045374 40.541030752 0.026326718 0 100 255
-17.046747750 40.636191834 0.027643053 0 100 255
-17.077450126 40.731352915 0.028959389 0 100 255
-17.108152502 40.826513996 0.030275725 0 100 255
-17.138854878 40.921675077 0.031592061 0 100 255
-17.169557254 41.016836158 0.032908397 0 100 255
-17.200259630 41.111997239 0.034224733 0 100 255
-17.230962006 41.207158321 0.035541069 0 100 255
-17.261664382 41.302319402 0.036857405 0 100 255
-17.292366758 41.397480483 0.038173740 0 100 255
-17.323069134 41.492641564 0.039490076 0 100 255
-16.401997854 38.637809129 0.000000000 255 140 0
-16.306827689 38.668509457 0.000359921 255 140 0
-16.211657524 38.699209786 0.000719842 255 140 0
-16.116487359 38.729910114 0.001079763 255 140 0
-16.021317194 38.760610442 0.001439684 255 140 0
-15.926147029 38.791310770 0.001799604 255 140 0
-15.830976864 38.822011098 0.002159525 255 140 0
-15.735806698 38.852711426 0.002519446 255 140 0
-15.640636533 38.883411754 0.002879367 255 140 0
-15.545466368 38.914112082 0.003239288 255 140 0
-15.450296203 38.944812410 0.003599209 255 140 0
-15.355126038 38.975512739 0.003959130 255 140 0
-15.259955873 39.006213067 0.004319051 255 140 0
-15.164785708 39.036913395 0.004678972 255 140 0
-15.069615543 39.067613723 0.005038892 255 140 0
-14.974445378 39.098314051 0.005398813 255 140 0
-14.879275213 39.129014379 0.005758734 255 140 0
-14.784105048 39.159714707 0.006118655 255 140 0
-14.688934883 39.190415035 0.006478576 255 140 0
-14.593764718 39.221115363 0.006838497 255 140 0
-14.498594553 39.251815692 0.007198418 255 140 0
-14.403424388 39.282516020 0.007558339 255 140 0
-14.308254223 39.313216348 0.007918260 255 140 0
-14.213084058 39.343916676 0.008278180 255 140 0
-14.117913893 39.374617004 0.008638101 255 140 0
-14.022743728 39.405317332 0.008998022 255 140 0
-13.927573563 39.436017660 0.009357943 255 140 0
-13.832403398 39.466717988 0.009717864 255 140 0
-13.737233233 39.497418317 0.010077785 255 140 0
-13.642063068 39.528118645 0.010437706 255 140 0
-13.546892903 39.558818973 0.010797627 255 140 0
-20.103212051 50.697989612 0.000000000 255 255 255
-20.103212051 50.697989612 0.000000000 0 100 255
-20.008027538 50.728554719 0.002383823 0 100 255
-19.912843024 50.759119826 0.004767645 0 100 255
-19.817658511 50.789684934 0.007151468 0 100 255
-19.722473997 50.820250041 0.009535291 0 100 255
-19.627289484 50.850815148 0.011919113 0 100 255
-19.532104970 50.881380256 0.014302936 0 100 255
-19.436920457 50.911945363 0.016686759 0 100 255
-19.341735943 50.942510470 0.019070581 0 100 255
-19.246551430 50.973075577 0.021454404 0 100 255
-19.151366916 51.003640685 0.023838227 0 100 255
-19.056182403 51.034205792 0.026222049 0 100 255
-18.960997889 51.064770899 0.028605872 0 100 255
-18.865813376 51.095336007 0.030989695 0 100 255
-18.770628862 51.125901114 0.033373517 0 100 255
-18.675444349 51.156466221 0.035757340 0 100 255
-18.580259835 51.187031328 0.038141163 0 100 255
-18.485075322 51.217596436 0.040524985 0 100 255
-18.389890808 51.248161543 0.042908808 0 100 255
-18.294706295 51.278726650 0.045292631 0 100 255
-18.199521782 51.309291758 0.047676453 0 100 255
-18.104337268 51.339856865 0.050060276 0 100 255
-18.009152755 51.370421972 0.052444099 0 100 255
-17.913968241 51.400987079 0.054827921 0 100 255
-17.818783728 51.431552187 0.057211744 0 100 255
-17.723599214 51.462117294 0.059595567 0 100 255
-17.628414701 51.492682401 0.061979389 0 100 255
-17.533230187 51.523247509 0.064363212 0 100 255
-17.438045674 51.553812616 0.066747035 0 100 255
-17.342861160 51.584377723 0.069130857 0 100 255
-17.247676647 51.614942830 0.071514680 0 100 255
-20.103212051 50.697989612 0.000000000 255 140 0
-20.072682288 50.602779745 0.001736333 255 140 0
-20.042152524 50.507569879 0.003472666 255 140 0
-20.011622761 50.412360012 0.005208998 255 140 0
-19.981092997 50.317150146 0.006945331 255 140 0
-19.950563234 50.221940279 0.008681664 255 140 0
-19.920033471 50.126730412 0.010417997 255 140 0
-19.889503707 50.031520546 0.012154329 255 140 0
-19.858973944 49.936310679 0.013890662 255 140 0
-19.828444180 49.841100813 0.015626995 255 140 0
-19.797914417 49.745890946 0.017363328 255 140 0
-19.767384654 49.650681080 0.019099661 255 140 0
-19.736854890 49.555471213 0.020835993 255 140 0
-19.706325127 49.460261346 0.022572326 255 140 0
-19.675795363 49.365051480 0.024308659 255 140 0
-19.645265600 49.269841613 0.026044992 255 140 0
-19.614735836 49.174631747 0.027781324 255 140 0
-19.584206073 49.079421880 0.029517657 255 140 0
-19.553676310 48.984212013 0.031253990 255 140 0
-19.523146546 48.889002147 0.032990323 255 140 0
-19.492616783 48.793792280 0.034726655 255 140 0
-19.462087019 48.698582414 0.036462988 255 140 0
-19.431557256 48.603372547 0.038199321 255 140 0
-19.401027493 48.508162681 0.039935654 255 140 0
-19.370497729 48.412952814 0.041671987 255 140 0
-19.339967966 48.317742947 0.043408319 255 140 0
-19.309438202 48.222533081 0.045144652 255 140 0
-19.278908439 48.127323214 0.046880985 255 140 0
-19.248378675 48.032113348 0.048617318 255 140 0
-19.217848912 47.936903481 0.050353650 255 140 0
-19.187319149 47.841693614 0.052089983 255 140 0
-10.635005718 53.610934769 0.000000000 255 255 255
-10.635005718 53.610934769 0.000000000 0 100 255
-10.539745415 53.641212208 0.002958260 0 100 255
-10.444485112 53.671489648 0.005916521 0 100 255
-10.349224809 53.701767087 0.008874781 0 100 255
-10.253964506 53.732044526 0.011833042 0 100 255
-10.158704202 53.762321966 0.014791302 0 100 255
-10.063443899 53.792599405 0.017749563 0 100 255
-9.968183596 53.822876844 0.020707823 0 100 255
-9.872923293 53.853154284 0.023666083 0 100 255
-9.777662990 53.883431723 0.026624344 0 100 255
-9.682402686 53.913709162 0.029582604 0 100 255
-9.587142383 53.943986602 0.032540865 0 100 255
-9.491882080 53.974264041 0.035499125 0 100 255
-9.396621777 54.004541481 0.038457386 0 100 255
-9.301361474 54.034818920 0.041415646 0 100 255
-9.206101171 54.065096359 0.044373906 0 100 255
-9.110840867 54.095373799 0.047332167 0 100 255
-9.015580564 54.125651238 0.050290427 0 100 255
-8.920320261 54.155928677 0.053248688 0 100 255
-8.825059958 54.186206117 0.056206948 0 100 255
-8.729799655 54.216483556 0.059165209 0 100 255
-8.634539351 54.246760995 0.062123469 0 100 255
-8.539279048 54.277038435 0.065081729 0 100 255
-8.444018745 54.307315874 0.068039990 0 100 255
-8.348758442 54.337593313 0.070998250 0 100 255
-8.253498139 54.367870753 0.073956511 0 100 255
-8.158237836 54.398148192 0.076914771 0 100 255
-8.062977532 54.428425631 0.079873032 0 100 255
-7.967717229 54.458703071 0.082831292 0 100 255
-7.872456926 54.488980510 0.085789552 0 100 255
-7.777196623 54.519257949 0.088747813 0 100 255
-10.635005718 53.610934769 0.000000000 255 140 0
-10.604741319 53.515628555 0.000889787 255 140 0
-10.574476919 53.420322341 0.001779574 255 140 0
-10.544212519 53.325016128 0.002669361 255 140 0
-10.513948120 53.229709914 0.003559147 255 140 0
-10.483683720 53.134403700 0.004448934 255 140 0
-10.453419320 53.039097486 0.005338721 255 140 0
-10.423154921 52.943791272 0.006228508 255 140 0
-10.392890521 52.848485058 0.007118295 255 140 0
-10.362626121 52.753178845 0.008008082 255 140 0
-10.332361722 52.657872631 0.008897869 255 140 0
-10.302097322 52.562566417 0.009787656 255 140 0
-10.271832922 52.467260203 0.010677442 255 140 0
-10.241568523 52.371953989 0.011567229 255 140 0
-10.211304123 52.276647776 0.012457016 255 140 0
-10.181039723 52.181341562 0.013346803 255 140 0
-10.150775324 52.086035348 0.014236590 255 140 0
-10.120510924 51.990729134 0.015126377 255 140 0
-10.090246524 51.895422920 0.016016164 255 140 0
-10.059982125 51.800116706 0.016905951 255 140 0
-10.029717725 51.704810493 0.017795737 255 140 0
-9.999453326 51.609504279 0.018685524 255 140 0
-9.969188926 51.514198065 0.019575311 255 140 0
-9.938924526 51.418891851 0.020465098 255 140 0
-9.908660127 51.323585637 0.021354885 255 140 0
-9.878395727 51.228279424 0.022244672 255 140 0
-9.848131327 51.132973210 0.023134459 255 140 0
-9.817866928 51.037666996 0.024024246 255 140 0
-9.787602528 50.942360782 0.024914032 255 140 0
-9.757338128 50.847054568 0.025803819 255 140 0
-9.727073729 50.751748354 0.026693606 255 140 0
-0.889438846 56.622284691 0.000000000 255 255 255
-0.889438846 56.622284691 0.000000000 0 100 255
-0.794402755 56.653369263 0.001375053 0 100 255
-0.699366664 56.684453835 0.002750107 0 100 255
-0.604330572 56.715538407 0.004125160 0 100 255
-0.509294481 56.746622979 0.005500213 0 100 255
-0.414258390 56.777707551 0.006875266 0 100 255
-0.319222299 56.808792123 0.008250320 0 100 255
-0.224186208 56.839876695 0.009625373 0 100 255
-0.129150117 56.870961267 0.011000426 0 100 255
-0.034114026 56.902045839 0.012375479 0 100 255
0.060922065 56.933130411 0.013750533 0 100 255
0.155958156 56.964214983 0.015125586 0 100 255
0.250994248 56.995299555 0.016500639 0 100 255
0.346030339 57.026384127 0.017875692 0 100 255
0.441066430 57.057468699 0.019250746 0 100 255
0.536102521 57.088553271 0.020625799 0 100 255
0.631138612 57.119637842 0.022000852 0 100 255
0.726174703 57.150722414 0.023375905 0 100 255
0.821210794 57.181806986 0.024750959 0 100 255
0.916246885 57.212891558 0.026126012 0 100 255
1.011282977 57.243976130 0.027501065 0 100 255
1.106319068 57.275060702 0.028876118 0 100 255
1.201355159 57.306145274 0.030251172 0 100 255
1.296391250 57.337229846 0.031626225 0 100 255
1.391427341 57.368314418 0.033001278 0 100 255
1.486463432 57.399398990 0.034376332 0 100 255
1.581499523 57.430483562 0.035751385 0 100 255
1.676535614 57.461568134 0.037126438 0 100 255
1.771571706 57.492652706 0.038501491 0 100 255
1.866607797 57.523737278 0.039876545 0 100 255
1.961643888 57.554821850 0.041251598 0 100 255
-0.889438846 56.622284691 0.000000000 255 140 0
-0.858346760 56.527241815 -0.000365956 255 140 0
-0.827254674 56.432198939 -0.000731912 255 140 0
-0.796162588 56.337156064 -0.001097869 255 140 0
-0.765070502 56.242113188 -0.001463825 255 140 0
-0.733978416 56.147070312 -0.001829781 255 140 0
-0.702886329 56.052027436 -0.002195737 255 140 0
-0.671794243 55.956984560 -0.002561693 255 140 0
-0.640702157 55.861941684 -0.002927649 255 140 0
-0.609610071 55.766898808 -0.003293606 255 140 0
-0.578517985 55.671855932 -0.003659562 255 140 0
-0.547425899 55.576813056 -0.004025518 255 140 0
-0.516333813 55.481770180 -0.004391474 255 140 0
-0.485241727 55.386727304 -0.004757430 255 140 0
-0.454149641 55.291684429 -0.005123386 255 140 0
-0.423057555 55.196641553 -0.005489343 255 140 0
-0.391965469 55.101598677 -0.005855299 255 140 0
-0.360873383 55.006555801 -0.006221255 255 140 0
-0.329781297 54.911512925 -0.006587211 255 140 0
-0.298689211 54.816470049 -0.006953167 255 140 0
-0.267597125 54.721427173 -0.007319124 255 140 0
-0.236505039 54.626384297 -0.007685080 255 140 0
-0.205412953 54.531341421 -0.008051036 255 140 0
-0.174320866 54.436298545 -0.008416992 255 140 0
-0.143228780 54.341255670 -0.008782948 255 140 0
-0.112136694 54.246212794 -0.009148904 255 140 0
-0.081044608 54.151169918 -0.009514861 255 140 0
-0.049952522 54.056127042 -0.009880817 255 140 0
-0.018860436 53.961084166 -0.010246773 255 140 0
0.012231650 53.866041290 -0.010612729 255 140 0
0.043323736 53.770998414 -0.010978685 255 140 0
8.129283419 59.749847649 0.000000000 255 255 255
8.129283419 59.749847649 0.000000000 0 100 255
8.223712941 59.782722614 0.001517264 0 100 255
8.318142463 59.815597579 0.003034529 0 100 255
8.412571984 59.848472544 0.004551793 0 100 255
8.507001506 59.881347509 0.006069058 0 100 255
8.601431028 59.914222474 0.007586322 0 100 255
8.695860550 59.947097439 0.009103587 0 100 255
8.790290071 59.979972404 0.010620851 0 100 255
8.884719593 60.012847369 0.012138116 0 100 255
8.979149115 60.045722334 0.013655380 0 100 255
9.073578637 60.078597300 0.015172645 0 100 255
9.168008159 60.111472265 0.016689909 0 100 255
9.262437680 60.144347230 0.018207174 0 100 255
9.356867202 60.177222195 0.019724438 0 100 255
9.451296724 60.210097160 0.021241703 0 100 255
9.545726246 60.242972125 0.022758967 0 100 255
9.640155767 60.275847090 0.024276232 0 100 255
9.734585289 60.308722055 0.025793496 0 100 255
9.829014811 60.341597020 0.027310761 0 100 255
9.923444333 60.374471985 0.028828025 0 100 255
10.017873854 60.407346950 0.030345290 0 100 255
10.112303376 60.440221915 0.031862554 0 100 255
10.206732898 60.473096880 0.033379819 0 100 255
10.301162420 60.505971845 0.034897083 0 100 255
10.395591941 60.538846810 0.036414348 0 100 255
10.490021463 60.571721775 0.037931612 0 100 255
10.584450985 60.604596740 0.039448877 0 100 255
10.678880507 60.637471705 0.040966141 0 100 255
10.773310029 60.670346671 0.042483406 0 100 255
10.867739550 60.703221636 0.044000670 0 100 255
10.962169072 60.736096601 0.045517935 0 100 255
8.129283419 59.749847649 0.000000000 255 140 0
8.162151846 59.655406032 0.000669011 255 140 0
8.195020272 59.560964415 0.001338021 255 140 0
8.227888698 59.466522799 0.002007032 255 140 0
8.260757125 59.372081182 0.002676042 255 140 0
8.293625551 59.277639565 0.003345053 255 140 0
8.326493977 59.183197948 0.004014063 255 140 0
8.359362404 59.088756332 0.004683074 255 140 0
8.392230830 58.994314715 0.005352085 255 140 0
8.425099257 58.899873098 0.006021095 255 140 0
8.457967683 58.805431482 0.006690106 255 140 0
8.490836109 58.710989865 0.007359116 255 140 0
8.523704536 58.616548248 0.008028127 255 140 0
8.556572962 58.522106631 0.008697138 255 140 0
8.589441388 58.427665015 0.009366148 255 140 0
8.622309815 58.333223398 0.010035159 255 140 0
8.655178241 58.238781781 0.010704169 255 140 0
8.688046668 58.144340164 0.011373180 255 140 0
8.720915094 58.049898548 0.012042190 255 140 0
8.753783520 57.955456931 0.012711201 255 140 0
8.786651947 57.861015314 0.013380212 255 140 0
8.819520373 57.766573697 0.014049222 255 140 0
8.852388799 57.672132081 0.014718233 255 140 0
8.885257226 57.577690464 0.015387243 255 140 0
8.918125652 57.483248847 0.016056254 255 140 0
8.950994079 57.388807230 0.016725265 255 140 0
8.983862505 57.294365614 0.017394275 255 140 0
9.016730931 57.199923997 0.018063286 255 140 0
9.049599358 57.105482380 0.018732296 255 140 0
9.082467784 57.011040764 0.019401307 255 140 0
9.115336211 56.916599147 0.020070317 255 140 0
17.980070829 62.983618821 0.000000000 255 255 255
17.980070829 62.983618821 0.000000000 0 100 255
18.074617525 63.016152160 0.001582451 0 100 255
18.169164221 63.048685499 0.003164902 0 100 255
18.263710917 63.081218838 0.004747353 0 100 255
18.358257613 63.113752177 0.006329803 0 100 255
18.452804309 63.146285516 0.007912254 0 100 255
18.547351005 63.178818855 0.009494705 0 100 255
18.641897701 63.211352194 0.011077156 0 100 255
18.736444396 63.243885532 0.012659607 0 100 255
18.830991092 63.276418871 0.014242058 0 100 255
18.925537788 63.308952210 0.015824508 0 100 255
19.020084484 63.341485549 0.017406959 0 100 255
19.114631180 63.374018888 0.018989410 0 100 255
19.209177876 63.406552227 0.020571861 0 100 255
19.303724572 63.439085566 0.022154312 0 100 255
19.398271268 63.471618904 0.023736763 0 100 255
19.492817964 63.504152243 0.025319214 0 100 255
19.587364660 63.536685582 0.026901664 0 100 255
19.681911356 63.569218921 0.028484115 0 100 255
19.776458052 63.601752260 0.030066566 0 100 255
19.871004748 63.634285599 0.031649017 0 100 255
19.965551444 63.666818938 0.033231468 0 100 255
20.060098140 63.699352276 0.034813919 0 100 255
20.154644835 63.731885615 0.036396369 0 100 255
20.249191531 63.764418954 0.037978820 0 100 255
20.343738227 63.796952293 0.039561271 0 100 255
20.438284923 63.829485632 0.041143722 0 100 255
20.532831619 63.862018971 0.042726173 0 100 255
20.627378315 63.894552310 0.044308624 0 100 255
20.721925011 63.927085648 0.045891075 0 100 255
20.816471707 63.959618987 0.047473525 0 100 255
17.980070829 62.983618821 0.000000000 255 140 0
18.012590431 62.889060173 0.001066495 255 140 0
18.045110032 62.794501524 0.002132991 255 140 0
18.077629634 62.699942875 0.003199486 255 140 0
18.110149236 62.605384226 0.004265982 255 140 0
18.142668837 62.510825577 0.005332477 255 140 0
18.175188439 62.416266928 0.006398973 255 140 0
18.207708041 62.321708279 0.007465468 255 140 0
18.240227642 62.227149630 0.008531964 255 140 0
18.272747244 62.132590981 0.009598459 255 140 0
18.305266846 62.038032332 0.010664955 255 140 0
18.337786448 61.943473683 0.011731450 255 140 0
18.370306049 61.848915034 0.012797946 255 140 0
18.402825651 61.754356385 0.013864441 255 140 0
18.435345253 61.659797736 0.014930937 255 140 0
18.467864854 61.565239087 0.015997432 255 140 0
18.500384456 61.470680438 0.017063928 255 140 0
18.532904058 61.376121789 0.018130423 255 140 0
18.565423659 61.281563140 0.019196919 255 140 0
18.597943261 61.187004491 0.020263414 255 140 0
18.630462863 61.092445842 0.021329910 255 140 0
18.662982464 60.997887193 0.022396405 255 140 0
18.695502066 60.903328544 0.023462901 255 140 0
18.728021668 60.808769895 0.024529396 255 140 0
18.760541269 60.714211246 0.025595892 255 140 0
18.793060871 60.619652597 0.026662387 255 140 0
18.825580473 60.525093948 0.027728883 255 140 0
18.858100074 60.430535299 0.028795378 255 140 0
18.890619676 60.335976651 0.029861874 255 140 0
18.923139278 60.241418002 0.030928369 255 140 0
18.955658879 60.146859353 0.031994865 255 140 0
28.404700823 66.358418706 0.000000000 255 255 255
28.404700823 66.358418706 0.000000000 0 100 255
28.500132386 66.388265247 0.001414504 0 100 255
28.595563948 66.418111789 0.002829008 0 100 255
28.690995511 66.447958330 0.004243512 0 100 255
28.786427073 66.477804872 0.005658017 0 100 255
28.881858636 66.507651414 0.007072521 0 100 255
28.977290198 66.537497955 0.008487025 0 100 255
29.072721761 66.567344497 0.009901529 0 100 255
29.168153323 66.597191039 0.011316033 0 100 255
29.263584886 66.627037580 0.012730537 0 100 255
29.359016448 66.656884122 0.014145042 0 100 255
29.454448011 66.686730664 0.015559546 0 100 255
29.549879574 66.716577205 0.016974050 0 100 255
29.645311136 66.746423747 0.018388554 0 100 255
29.740742699 66.776270289 0.019803058 0 100 255
29.836174261 66.806116830 0.021217562 0 100 255
29.931605824 66.835963372 0.022632066 0 100 255
30.027037386 66.865809913 0.024046571 0 100 255
30.122468949 66.895656455 0.025461075 0 100 255
30.217900511 66.925502997 0.026875579 0 100 255
30.313332074 66.955349538 0.028290083 0 100 255
30.408763636 66.985196080 0.029704587 0 100 255
30.504195199 67.015042622 0.031119091 0 100 255
30.599626762 67.044889163 0.032533596 0 100 255
30.695058324 67.074735705 0.033948100 0 100 255
30.790489887 67.104582247 0.035362604 0 100 255
30.885921449 67.134428788 0.036777108 0 100 255
30.981353012 67.164275330 0.038191612 0 100 255
31.076784574 67.194121872 0.039606116 0 100 255
31.172216137 67.223968413 0.041020620 0 100 255
31.267647699 67.253814955 0.042435125 0 100 255
28.404700823 66.358418706 0.000000000 255 140 0
28.434536995 66.262977659 0.000899727 255 140 0
28.464373167 66.167536613 0.001799453 255 140 0
28.494209338 66.072095566 0.002699180 255 140 0
28.524045510 65.976654520 0.003598907 255 140 0
28.553881682 65.881213473 0.004498634 255 140 0
28.583717854 65.785772427 0.005398360 255 140 0
28.613554026 65.690331381 0.006298087 255 140 0
28.643390198 65.594890334 0.007197814 255 140 0
28.673226370 65.499449288 0.008097540 255 140 0
28.703062541 65.404008241 0.008997267 255 140 0
28.732898713 65.308567195 0.009896994 255 140 0
28.762734885 65.213126148 0.010796720 255 140 0
28.792571057 65.117685102 0.011696447 255 140 0
28.822407229 65.022244056 0.012596174 255 140 0
28.852243401 64.926803009 0.013495901 255 140 0
28.882079572 64.831361963 0.014395627 255 140 0
28.911915744 64.735920916 0.015295354 255 140 0
28.941751916 64.640479870 0.016195081 255 140 0
28.971588088 64.545038824 0.017094807 255 140 0
29.001424260 64.449597777 0.017994534 255 140 0
29.031260432 64.354156731 0.018894261 255 140 0
29.061096603 64.258715684 0.019793987 255 140 0
29.090932775 64.163274638 0.020693714 255 140 0
29.120768947 64.067833591 0.021593441 255 140 0
29.150605119 63.972392545 0.022493168 255 140 0
29.180441291 63.876951499 0.023392894 255 140 0
29.210277463 63.781510452 0.024292621 255 140 0
29.240113635 63.686069406 0.025192348 255 140 0
29.269949806 63.590628359 0.026092074 255 140 0
29.299785978 63.495187313 0.026991801 255 140 0
38.284198638 68.960387264 0.000000000 255 255 255
38.284198638 68.960387264 0.000000000 0 100 255
38.381829900 68.981934611 0.001961785 0 100 255
38.479461161 69.003481958 0.003923570 0 100 255
38.577092423 69.025029305 0.005885355 0 100 255
38.674723684 69.046576651 0.007847140 0 100 255
38.772354946 69.068123998 0.009808925 0 100 255
38.869986208 69.089671345 0.011770710 0 100 255
38.967617469 69.111218692 0.013732495 0 100 255
39.065248731 69.132766039 0.015694280 0 100 255
39.162879992 69.154313386 0.017656065 0 100 255
39.260511254 69.175860733 0.019617850 0 100 255
39.358142516 69.197408080 0.021579635 0 100 255
39.455773777 69.218955427 0.023541420 0 100 255
39.553405039 69.240502774 0.025503205 0 100 255
39.651036300 69.262050121 0.027464990 0 100 255
39.748667562 69.283597468 0.029426775 0 100 255
39.846298823 69.305144815 0.031388560 0 100 255
39.943930085 69.326692162 0.033350344 0 100 255
40.041561347 69.348239509 0.035312129 0 100 255
40.139192608 69.369786856 0.037273914 0 100 255
40.236823870 69.391334203 0.039235699 0 100 255
40.334455131 69.412881550 0.041197484 0 100 255
40.432086393 69.434428897 0.043159269 0 100 255
40.529717655 69.455976244 0.045121054 0 100 255
40.627348916 69.477523591 0.047082839 0 100 255
40.724980178 69.499070938 0.049044624 0 100 255
40.822611439 69.520618284 0.051006409 0 100 255
40.920242701 69.542165631 0.052968194 0 100 255
41.017873963 69.563712978 0.054929979 0 100 255
41.115505224 69.585260325 0.056891764 0 100 255
41.213136486 69.606807672 0.058853549 0 100 255
38.284198638 68.960387264 0.000000000 255 140 0
38.305736079 68.862736657 0.000705490 255 140 0
38.327273519 68.765086051 0.001410979 255 140 0
38.348810959 68.667435444 0.002116469 255 140 0
38.370348400 68.569784838 0.002821958 255 140 0
38.391885840 68.472134231 0.003527448 255 140 0
38.413423281 68.374483625 0.004232937 255 140 0
38.434960721 68.276833018 0.004938427 255 140 0
38.456498161 68.179182412 0.005643916 255 140 0
38.478035602 68.081531805 0.006349406 255 140 0
38.499573042 67.983881199 0.007054895 255 140 0
38.521110483 67.886230592 0.007760385 255 140 0
38.542647923 67.788579986 0.008465874 255 140 0
38.564185364 67.690929379 0.009171364 255 140 0
38.585722804 67.593278773 0.009876853 255 140 0
38.607260244 67.495628167 0.010582343 255 140 0
38.628797685 67.397977560 0.011287832 255 140 0
38.650335125 67.300326954 0.011993322 255 140 0
38.671872566 67.202676347 0.012698811 255 140 0
38.693410006 67.105025741 0.013404301 255 140 0
38.714947446 67.007375134 0.014109790 255 140 0
38.736484887 66.909724528 0.014815280 255 140 0
38.758022327 66.812073921 0.015520769 255 140 0
38.779559768 66.714423315 0.016226259 255 140 0
38.801097208 66.616772708 0.016931748 255 140 0
38.822634649 66.519122102 0.017637238 255 140 0
38.844172089 66.421471495 0.018342727 255 140 0
38.865709529 66.323820889 0.019048217 255 140 0
38.887246970 66.226170282 0.019753706 255 140 0
38.908784410 66.128519676 0.020459196 255 140 0
38.930321851 66.030869069 0.021164685 255 140 0
48.240215156 70.564291516 0.000000000 255 255 255
48.240215156 70.564291516 0.000000000 0 100 255
48.338207216 70.584151123 0.001775436 0 100 255
48.436199276 70.604010730 0.003550872 0 100 255
48.534191336 70.623870336 0.005326309 0 100 255
48.632183396 70.643729943 0.007101745 0 100 255
48.730175457 70.663589550 0.008877181 0 100 255
48.828167517 70.683449157 0.010652617 0 100 255
48.926159577 70.703308764 0.012428053 0 100 255
49.024151637 70.723168370 0.014203490 0 100 255
49.122143697 70.743027977 0.015978926 0 100 255
49.220135757 70.762887584 0.017754362 0 100 255
49.318127817 70.782747191 0.019529798 0 100 255
49.416119877 70.802606798 0.021305235 0 100 255
49.514111937 70.822466404 0.023080671 0 100 255
49.612103998 70.842326011 0.024856107 0 100 255
49.710096058 70.862185618 0.026631543 0 100 255
49.808088118 70.882045225 0.028406979 0 100 255
49.906080178 70.901904832 0.030182416 0 100 255
50.004072238 70.921764438 0.031957852 0 100 255
50.102064298 70.941624045 0.033733288 0 100 255
50.200056358 70.961483652 0.035508724 0 100 255
50.298048418 70.981343259 0.037284160 0 100 255
50.396040478 71.001202866 0.039059597 0 100 255
50.494032538 71.021062473 0.040835033 0 100 255
50.592024599 71.040922079 0.042610469 0 100 255
50.690016659 71.060781686 0.044385905 0 100 255
50.788008719 71.080641293 0.046161341 0 100 255
50.886000779 71.100500900 0.047936778 0 100 255
50.983992839 71.120360507 0.049712214 0 100 255
51.081984899 71.140220113 0.051487650 0 100 255
51.179976959 71.160079720 0.053263086 0 100 255
48.240215156 70.564291516 0.000000000 255 140 0
48.260089209 70.466288635 -0.000676279 255 140 0
48.279963262 70.368285754 -0.001352559 255 140 0
48.299837314 70.270282873 -0.002028838 255 140 0
48.319711367 70.172279992 -0.002705118 255 140 0
48.339585420 70.074277111 -0.003381397 255 140 0
48.359459473 69.976274230 -0.004057677 255 140 0
48.379333525 69.878271349 -0.004733956 255 140 0
48.399207578 69.780268468 -0.005410236 255 140 0
48.419081631 69.682265587 -0.006086515 255 140 0
48.438955684 69.584262707 -0.006762794 255 140 0
48.458829736 69.486259826 -0.007439074 255 140 0
48.478703789 69.388256945 -0.008115353 255 140 0
48.498577842 69.290254064 -0.008791633 255 140 0
48.518451895 69.192251183 -0.009467912 255 140 0
48.538325947 69.094248302 -0.010144192 255 140 0
48.558200000 68.996245421 -0.010820471 255 140 0
48.578074053 68.898242540 -0.011496751 255 140 0
48.597948106 68.800239659 -0.012173030 255 140 0
48.617822158 68.702236778 -0.012849309 255 140 0
48.637696211 68.604233897 -0.013525589 255 140 0
48.657570264 68.506231016 -0.014201868 255 140 0
48.677444317 68.408228135 -0.014878148 255 140 0
48.697318370 68.310225254 -0.015554427 255 140 0
48.717192422 68.212222373 -0.016230707 255 140 0
48.737066475 68.114219492 -0.016906986 255 140 0
48.756940528 68.016216611 -0.017583266 255 140 0
48.776814581 67.918213730 -0.018259545 255 140 0
48.796688633 67.820210850 -0.018935824 255 140 0
48.816562686 67.722207969 -0.019612104 255 140 0
48.836436739 67.624205088 -0.020288383 255 140 0
57.718047610 73.524937133 0.000000000 255 255 255
57.718047610 73.524937133 0.000000000 0 100 255
57.812527239 73.557678195 0.001273742 0 100 255
57.907006869 73.590419257 0.002547484 0 100 255
58.001486499 73.623160319 0.003821227 0 100 255
58.095966129 73.655901381 0.005094969 0 100 255
58.190445759 73.688642442 0.006368711 0 100 255
58.284925388 73.721383504 0.007642453 0 100 255
58.379405018 73.754124566 0.008916195 0 100 255
58.473884648 73.786865628 0.010189938 0 100 255
58.568364278 73.819606690 0.011463680 0 100 255
58.662843908 73.852347752 0.012737422 0 100 255
58.757323537 73.885088814 0.014011164 0 100 255
58.851803167 73.917829876 0.015284906 0 100 255
58.946282797 73.950570938 0.016558648 0 100 255
59.040762427 73.983312000 0.017832391 0 100 255
59.135242056 74.016053062 0.019106133 0 100 255
59.229721686 74.048794124 0.020379875 0 100 255
59.324201316 74.081535186 0.021653617 0 100 255
59.418680946 74.114276248 0.022927359 0 100 255
59.513160576 74.147017310 0.024201102 0 100 255
59.607640205 74.179758372 0.025474844 0 100 255
59.702119835 74.212499433 0.026748586 0 100 255
59.796599465 74.245240495 0.028022328 0 100 255
59.891079095 74.277981557 0.029296070 0 100 255
59.985558724 74.310722619 0.030569813 0 100 255
60.080038354 74.343463681 0.031843555 0 100 255
60.174517984 74.376204743 0.033117297 0 100 255
60.268997614 74.408945805 0.034391039 0 100 255
60.363477244 74.441686867 0.035664781 0 100 255
60.457956873 74.474427929 0.036938523 0 100 255
60.552436503 74.507168991 0.038212266 0 100 255
57.718047610 73.524937133 0.000000000 255 140 0
57.750799312 73.430455482 -0.000737328 255 140 0
57.783551015 73.335973831 -0.001474656 255 140 0
57.816302718 73.241492181 -0.002211984 255 140 0
57.849054420 73.147010530 -0.002949312 255 140 0
57.881806123 73.052528879 -0.003686640 255 140 0
57.914557826 72.958047229 -0.004423967 255 140 0
57.947309528 72.863565578 -0.005161295 255 140 0
57.980061231 72.769083927 -0.005898623 255 140 0
58.012812934 72.674602276 -0.006635951 255 140 0
58.045564636 72.580120626 -0.007373279 255 140 0
58.078316339 72.485638975 -0.008110607 255 140 0
58.111068042 72.391157324 -0.008847935 255 140 0
58.143819744 72.296675674 -0.009585263 255 140 0
58.176571447 72.202194023 -0.010322591 255 140 0
58.209323150 72.107712372 -0.011059919 255 140 0
58.242074852 72.013230722 -0.011797246 255 140 0
58.274826555 71.918749071 -0.012534574 255 140 0
58.307578258 71.824267420 -0.013271902 255 140 0
58.340329960 71.729785769 -0.014009230 255 140 0
58.373081663 71.635304119 -0.014746558 255 140 0
58.405833366 71.540822468 -0.015483886 255 140 0
58.438585068 71.446340817 -0.016221214 255 140 0
58.471336771 71.351859167 -0.016958542 255 140 0
58.504088474 71.257377516 -0.017695870 255 140 0
58.536840176 71.162895865 -0.018433198 255 140 0
58.569591879 71.068414215 -0.019170525 255 140 0
58.602343582 70.973932564 -0.019907853 255 140 0
58.635095284 70.879450913 -0.020645181 255 140 0
58.667846987 70.784969262 -0.021382509 255 140 0
58.700598690 70.690487612 -0.022119837 255 140 0
66.908971936 76.745830594 0.000000000 255 255 255
66.908971936 76.745830594 0.000000000 0 100 255
67.003132474 76.779448345 0.001907853 0 100 255
67.097293012 76.813066095 0.003815705 0 100 255
67.191453550 76.846683846 0.005723558 0 100 255
67.285614089 76.880301596 0.007631411 0 100 255
67.379774627 76.913919347 0.009539264 0 100 255
67.473935165 76.947537097 0.011447116 0 100 255
67.568095703 76.981154848 0.013354969 0 100 255
67.662256241 77.014772598 0.015262822 0 100 255
67.756416779 77.048390349 0.017170675 0 100 255
67.850577318 77.082008099 0.019078527 0 100 255
67.944737856 77.115625850 0.020986380 0 100 255
68.038898394 77.149243600 0.022894233 0 100 255
68.133058932 77.182861351 0.024802086 0 100 255
68.227219470 77.216479102 0.026709938 0 100 255
68.321380008 77.250096852 0.028617791 0 100 255
68.415540547 77.283714603 0.030525644 0 100 255
68.509701085 77.317332353 0.032433497 0 100 255
68.603861623 77.350950104 0.034341349 0 100 255
68.698022161 77.384567854 0.036249202 0 100 255
68.792182699 77.418185605 0.038157055 0 100 255
68.886343237 77.451803355 0.040064908 0 100 255
68.980503775 77.485421106 0.041972760 0 100 255
69.074664314 77.519038856 0.043880613 0 100 255
69.168824852 77.552656607 0.045788466 0 100 255
69.262985390 77.586274358 0.047696319 0 100 255
69.357145928 77.619892108 0.049604171 0 100 255
69.451306466 77.653509859 0.051512024 0 100 255
69.545467004 77.687127609 0.053419877 0 100 255
69.639627543 77.720745360 0.055327729 0 100 255
69.733788081 77.754363110 0.057235582 0 100 255
66.908971936 76.745830594 0.000000000 255 140 0
66.942586852 76.651650926 0.000476990 255 140 0
66.976201768 76.557471257 0.000953980 255 140 0
67.009816684 76.463291589 0.001430970 255 140 0
67.043431599 76.369111921 0.001907960 255 140 0
67.077046515 76.274932253 0.002384950 255 140 0
67.110661431 76.180752584 0.002861940 255 140 0
67.144276347 76.086572916 0.003338930 255 140 0
67.177891263 75.992393248 0.003815920 255 140 0
67.211506179 75.898213580 0.004292910 255 140 0
67.245121095 75.804033911 0.004769900 255 140 0
67.278736010 75.709854243 0.005246890 255 140 0
67.312350926 75.615674575 0.005723880 255 140 0
67.345965842 75.521494907 0.006200870 255 140 0
67.379580758 75.427315238 0.006677860 255 140 0
67.413195674 75.333135570 0.007154851 255 140 0
67.446810590 75.238955902 0.007631841 255 140 0
67.480425506 75.144776234 0.008108831 255 140 0
67.514040421 75.050596565 0.008585821 255 140 0
67.547655337 74.956416897 0.009062811 255 140 0
67.581270253 74.862237229 0.009539801 255 140 0
67.614885169 74.768057561 0.010016791 255 140 0
67.648500085 74.673877892 0.010493781 255 140 0
67.682115001 74.579698224 0.010970771 255 140 0
67.715729916 74.485518556 0.011447761 255 140 0
67.749344832 74.391338888 0.011924751 255 140 0
67.782959748 74.297159219 0.012401741 255 140 0
67.816574664 74.202979551 0.012878731 255 140 0
67.850189580 74.108799883 0.013355721 255 140 0
67.883804496 74.014620215 0.013832711 255 140 0
67.917419412 73.920440546 0.014309701 255 140 0
76.970221814 80.065322993 0.000000000 255 255 255
76.970221814 80.065322993 0.000000000 0 100 255
77.064926375 80.097319466 0.002696616 0 100 255
77.159630936 80.129315939 0.005393233 0 100 255
77.254335498 80.161312412 0.008089849 0 100 255
77.349040059 80.193308886 0.010786465 0 100 255
77.443744621 80.225305359 0.013483082 0 100 255
77.538449182 80.257301832 0.016179698 0 100 255
77.633153744 80.289298305 0.018876315 0 100 255
77.727858305 80.321294779 0.021572931 0 100 255
77.822562867 80.353291252 0.024269547 0 100 255
77.917267428 80.385287725 0.026966164 0 100 255
78.011971989 80.417284198 0.029662780 0 100 255
78.106676551 80.449280672 0.032359396 0 100 255
78.201381112 80.481277145 0.035056013 0 100 255
78.296085674 80.513273618 0.037752629 0 100 255
78.390790235 80.545270092 0.040449245 0 100 255
78.485494797 80.577266565 0.043145862 0 100 255
78.580199358 80.609263038 0.045842478 0 100 255
78.674903920 80.641259511 0.048539095 0 100 255
78.769608481 80.673255985 0.051235711 0 100 255
78.864313042 80.705252458 0.053932327 0 100 255
78.959017604 80.737248931 0.056628944 0 100 255
79.053722165 80.769245404 0.059325560 0 100 255
79.148426727 80.801241878 0.062022176 0 100 255
79.243131288 80.833238351 0.064718793 0 100 255
79.337835850 80.865234824 0.067415409 0 100 255
79.432540411 80.897231297 0.070112025 0 100 255
79.527244973 80.929227771 0.072808642 0 100 255
79.621949534 80.961224244 0.075505258 0 100 255
79.716654095 80.993220717 0.078201875 0 100 255
79.811358657 81.025217190 0.080898491 0 100 255
76.970221814 80.065322993 0.000000000 255 140 0
77.002243286 79.970590039 -0.000541065 255 140 0
77.034264758 79.875857085 -0.001082129 255 140 0
77.066286230 79.781124131 -0.001623194 255 140 0
77.098307702 79.686391177 -0.002164258 255 140 0
77.130329174 79.591658223 -0.002705323 255 140 0
77.162350646 79.496925269 -0.003246387 255 140 0
77.194372118 79.402192315 -0.003787452 255 140 0
77.226393590 79.307459361 -0.004328516 255 140 0
77.258415063 79.212726407 -0.004869581 255 140 0
77.290436535 79.117993453 -0.005410646 255 140 0
77.322458007 79.023260499 -0.005951710 255 140 0
77.354479479 78.928527545 -0.006492775 255 140 0
77.386500951 78.833794591 -0.007033839 255 140 0
77.418522423 78.739061637 -0.007574904 255 140 0
77.450543895 78.644328683 -0.008115968 255 140 0
77.482565367 78.549595729 -0.008657033 255 140 0
77.514586839 78.454862775 -0.009198097 255 140 0
77.546608312 78.360129821 -0.009739162 255 140 0
77.578629784 78.265396867 -0.010280227 255 140 0
77.610651256 78.170663913 -0.010821291 255 140 0
77.642672728 78.075930959 -0.011362356 255 140 0
77.674694200 77.981198005 -0.011903420 255 140 0
77.706715672 77.886465051 -0.012444485 255 140 0
77.738737144 77.791732097 -0.012985549 255 140 0
77.770758616 77.696999143 -0.013526614 255 140 0
77.802780088 77.602266189 -0.014067679 255 140 0
77.834801561 77.507533235 -0.014608743 255 140 0
77.866823033 77.412800281 -0.015149808 255 140 0
77.898844505 77.318067327 -0.015690872 255 140 0
77.930865977 77.223334373 -0.016231937 255 140 0
79.896758376 71.162156971 0.000000000 255 255 255
79.896758376 71.162156971 0.000000000 0 100 255
79.865154821 71.257022777 0.001301570 0 100 255
79.833551266 71.351888583 0.002603140 0 100 255
79.801947711 71.446754390 0.003904710 0 100 255
79.770344155 71.541620196 0.005206280 0 100 255
79.738740600 71.636486003 0.006507850 0 100 255
79.707137045 71.731351809 0.007809419 0 100 255
79.675533490 71.826217615 0.009110989 0 100 255
79.643929935 71.921083422 0.010412559 0 100 255
79.612326379 72.015949228 0.011714129 0 100 255
79.580722824 72.110815034 0.013015699 0 100 255
79.549119269 72.205680841 0.014317269 0 100 255
79.517515714 72.300546647 0.015618839 0 100 255
79.485912159 72.395412453 0.016920409 0 100 255
79.454308604 72.490278260 0.018221979 0 100 255
79.422705048 72.585144066 0.019523549 0 100 255
79.391101493 72.680009872 0.020825119 0 100 255
79.359497938 72.774875679 0.022126689 0 100 255
79.327894383 72.869741485 0.023428258 0 100 255
79.296290828 72.964607292 0.024729828 0 100 255
79.264687273 73.059473098 0.026031398 0 100 255
79.233083717 73.154338904 0.027332968 0 100 255
79.201480162 73.249204711 0.028634538 0 100 255
79.169876607 73.344070517 0.029936108 0 100 255
79.138273052 73.438936323 0.031237678 0 100 255
79.106669497 73.533802130 0.032539248 0 100 255
79.075065942 73.628667936 0.033840818 0 100 255
79.043462386 73.723533742 0.035142388 0 100 255
79.011858831 73.818399549 0.036443958 0 100 255
78.980255276 73.913265355 0.037745528 0 100 255
78.948651721 74.008131162 0.039047097 0 100 255
79.896758376 71.162156971 0.000000000 255 140 0
79.991628185 71.193769890 -0.000585354 255 140 0
80.086497994 71.225382810 -0.001170708 255 140 0
80.181367803 71.256995730 -0.001756061 255 140 0
80.276237612 71.288608650 -0.002341415 255 140 0
80.371107421 71.320221569 -0.002926769 255 140 0
80.465977230 71.351834489 -0.003512123 255 140 0
80.560847039 71.383447409 -0.004097477 255 140 0
80.655716848 71.415060329 -0.004682831 255 140 0
80.750586657 71.446673248 -0.005268184 255 140 0
80.845456466 71.478286168 -0.005853538 255 140 0
80.940326275 71.509899088 -0.006438892 255 140 0
81.035196084 71.541512008 -0.007024246 255 140 0
81.130065893 71.573124927 -0.007609600 255 140 0
81.224935703 71.604737847 -0.008194954 255 140 0
81.319805512 71.636350767 -0.008780307 255 140 0
81.414675321 71.667963687 -0.009365661 255 140 0
81.509545130 71.699576606 -0.009951015 255 140 0
81.604414939 71.731189526 -0.010536369 255 140 0
81.699284748 71.762802446 -0.011121723 255 140 0
81.794154557 71.794415366 -0.011707077 255 140 0
81.889024366 71.826028285 -0.012292430 255 140 0
81.983894175 71.857641205 -0.012877784 255 140 0
82.078763984 71.889254125 -0.013463138 255 140 0
82.173633793 71.920867045 -0.014048492 255 140 0
82.268503602 71.952479964 -0.014633846 255 140 0
82.363373411 71.984092884 -0.015219200 255 140 0
82.458243220 72.015705804 -0.015804553 255 140 0
82.553113029 72.047318724 -0.016389907 255 140 0
82.647982838 72.078931643 -0.016975261 255 140 0
82.742852647 72.110544563 -0.017560615 255 140 0
82.622453178 62.863594925 0.000000000 255 255 255
82.622453178 62.863594925 0.000000000 0 100 255
82.591725318 62.958748788 0.001241361 0 100 255
82.560997457 63.053902651 0.002482721 0 100 255
82.530269597 63.149056514 0.003724082 0 100 255
82.499541736 63.244210377 0.004965443 0 100 255
82.468813876 63.339364239 0.006206804 0 100 255
82.438086015 63.434518102 0.007448164 0 100 255
82.407358155 63.529671965 0.008689525 0 100 255
82.376630294 63.624825828 0.009930886 0 100 255
82.345902434 63.719979691 0.011172246 0 100 255
82.315174574 63.815133554 0.012413607 0 100 255
82.284446713 63.910287416 0.013654968 0 100 255
82.253718853 64.005441279 0.014896329 0 100 255
82.222990992 64.100595142 0.016137689 0 100 255
82.192263132 64.195749005 0.017379050 0 100 255
82.161535271 64.290902868 0.018620411 0 100 255
82.130807411 64.386056731 0.019861771 0 100 255
82.100079550 64.481210594 0.021103132 0 100 255
82.069351690 64.576364456 0.022344493 0 100 255
82.038623829 64.671518319 0.023585854 0 100 255
82.007895969 64.766672182 0.024827214 0 100 255
81.977168108 64.861826045 0.026068575 0 100 255
81.946440248 64.956979908 0.027309936 0 100 255
81.915712387 65.052133771 0.028551296 0 100 255
81.884984527 65.147287633 0.029792657 0 100 255
81.854256666 65.242441496 0.031034018 0 100 255
81.823528806 65.337595359 0.032275378 0 100 255
81.792800945 65.432749222 0.033516739 0 100 255
81.762073085 65.527903085 0.034758100 0 100 255
81.731345224 65.623056948 0.035999461 0 100 255
81.700617364 65.718210810 0.037240821 0 100 255
82.622453178 62.863594925 0.000000000 255 140 0
82.717615026 62.894322138 0.000247335 255 140 0
82.812776874 62.925049350 0.000494670 255 140 0
82.907938721 62.955776562 0.000742005 255 140 0
83.003100569 62.986503774 0.000989340 255 140 0
83.098262417 63.017230987 0.001236675 255 140 0
83.193424264 63.047958199 0.001484011 255 140 0
83.288586112 63.078685411 0.001731346 255 140 0
83.383747960 63.109412624 0.001978681 255 140 0
83.478909807 63.140139836 0.002226016 255 140 0
83.574071655 63.170867048 0.002473351 255 140 0
83.669233503 63.201594261 0.002720686 255 140 0
83.764395350 63.232321473 0.002968021 255 140 0
83.859557198 63.263048685 0.003215356 255 140 0
83.954719045 63.293775898 0.003462691 255 140 0
84.049880893 63.324503110 0.003710026 255 140 0
84.145042741 63.355230322 0.003957361 255 140 0
84.240204588 63.385957534 0.004204697 255 140 0
84.335366436 63.416684747 0.004452032 255 140 0
84.430528284 63.447411959 0.004699367 255 140 0
84.525690131 63.478139171 0.004946702 255 140 0
84.620851979 63.508866384 0.005194037 255 140 0
84.716013827 63.539593596 0.005441372 255 140 0
84.811175674 63.570320808 0.005688707 255 140 0
84.906337522 63.601048021 0.005936042 255 140 0
85.001499370 63.631775233 0.006183377 255 140 0
85.096661217 63.662502445 0.006430712 255 140 0
85.191823065 63.693229658 0.006678047 255 140 0
85.286984913 63.723956870 0.006925383 255 140 0
85.382146760 63.754684082 0.007172718 255 140 0
85.477308608 63.785411295 0.007420053 255 140 0
85.673316836 53.361576328 0.000000000 255 255 255
85.673316836 53.361576328 0.000000000 0 100 255
85.642117659 53.456577717 0.001160833 0 100 255
85.610918482 53.551579106 0.002321665 0 100 255
85.579719306 53.646580494 0.003482498 0 100 255
85.548520129 53.741581883 0.004643330 0 100 255
85.517320952 53.836583272 0.005804163 0 100 255
85.486121775 53.931584660 0.006964995 0 100 255
85.454922599 54.026586049 0.008125828 0 100 255
85.423723422 54.121587437 0.009286660 0 100 255
85.392524245 54.216588826 0.010447493 0 100 255
85.361325069 54.311590215 0.011608325 0 100 255
85.330125892 54.406591603 0.012769158 0 100 255
85.298926715 54.501592992 0.013929990 0 100 255
85.267727539 54.596594381 0.015090823 0 100 255
85.236528362 54.691595769 0.016251655 0 100 255
85.205329185 54.786597158 0.017412488 0 100 255
85.174130008 54.881598546 0.018573320 0 100 255
85.142930832 54.976599935 0.019734153 0 100 255
85.111731655 55.071601324 0.020894986 0 100 255
85.080532478 55.166602712 0.022055818 0 100 255
85.049333302 55.261604101 0.023216651 0 100 255
85.018134125 55.356605490 0.024377483 0 100 255
84.986934948 55.451606878 0.025538316 0 100 255
84.955735772 55.546608267 0.026699148 0 100 255
84.924536595 55.641609655 0.027859981 0 100 255
84.893337418 55.736611044 0.029020813 0 100 255
84.862138241 55.831612433 0.030181646 0 100 255
84.830939065 55.926613821 0.031342478 0 100 255
84.799739888 56.021615210 0.032503311 0 100 255
84.768540711 56.116616599 0.033664143 0 100 255
84.737341535 56.211617987 0.034824976 0 100 255
85.673316836 53.361576328 0.000000000 255 140 0
85.768324602 53.392768204 0.000768902 255 140 0
85.863332368 53.423960080 0.001537803 255 140 0
85.958340135 53.455151956 0.002306705 255 140 0
86.053347901 53.486343832 0.003075607 255 140 0
86.148355667 53.517535708 0.003844509 255 140 0
86.243363434 53.548727584 0.004613410 255 140 0
86.338371200 53.579919460 0.005382312 255 140 0
86.433378967 53.611111336 0.006151214 255 140 0
86.528386733 53.642303211 0.006920116 255 140 0
86.623394499 53.673495087 0.007689017 255 140 0
86.718402266 53.704686963 0.008457919 255 140 0
86.813410032 53.735878839 0.009226821 255 140 0
86.908417798 53.767070715 0.009995723 255 140 0
87.003425565 53.798262591 0.010764624 255 140 0
87.098433331 53.829454467 0.011533526 255 140 0
87.193441097 53.860646343 0.012302428 255 140 0
87.288448864 53.891838219 0.013071330 255 140 0
87.383456630 53.923030095 0.013840231 255 140 0
87.478464396 53.954221970 0.014609133 255 140 0
87.573472163 53.985413846 0.015378035 255 140 0
87.668479929 54.016605722 0.016146937 255 140 0
87.763487696 54.047797598 0.016915838 255 140 0
87.858495462 54.078989474 0.017684740 255 140 0
87.953503228 54.110181350 0.018453642 255 140 0
88.048510995 54.141373226 0.019222544 255 140 0
88.143518761 54.172565102 0.019991445 255 140 0
88.238526527 54.203756978 0.020760347 255 140 0
88.333534294 54.234948853 0.021529249 255 140 0
88.428542060 54.266140729 0.022298151 255 140 0
88.523549826 54.297332605 0.023067052 255 140 0
88.791126177 43.692666772 0.000000000 255 255 255
88.791126177 43.692666772 0.000000000 0 100 255
88.758619354 43.787221971 0.001618865 0 100 255
88.726112531 43.881777171 0.003237730 0 100 255
88.693605708 43.976332370 0.004856595 0 100 255
88.661098884 44.070887570 0.006475460 0 100 255
88.628592061 44.165442769 0.008094325 0 100 255
88.596085238 44.259997968 0.009713189 0 100 255
88.563578415 44.354553168 0.011332054 0 100 255
88.531071592 44.449108367 0.012950919 0 100 255
88.498564769 44.543663566 0.014569784 0 100 255
88.466057946 44.638218766 0.016188649 0 100 255
88.433551123 44.732773965 0.017807514 0 100 255
88.401044299 44.827329165 0.019426379 0 100 255
88.368537476 44.921884364 0.021045244 0 100 255
88.336030653 45.016439563 0.022664109 0 100 255
88.303523830 45.110994763 0.024282974 0 100 255
88.271017007 45.205549962 0.025901839 0 100 255
88.238510184 45.300105161 0.027520703 0 100 255
88.206003361 45.394660361 0.029139568 0 100 255
88.173496538 45.489215560 0.030758433 0 100 255
88.140989715 45.583770759 0.032377298 0 100 255
88.108482891 45.678325959 0.033996163 0 100 255
88.075976068 45.772881158 0.035615028 0 100 255
88.043469245 45.867436358 0.037233893 0 100 255
88.010962422 45.961991557 0.038852758 0 100 255
87.978455599 46.056546756 0.040471623 0 100 255
87.945948776 46.151101956 0.042090488 0 100 255
87.913441953 46.245657155 0.043709353 0 100 255
87.880935130 46.340212354 0.045328217 0 100 255
87.848428307 46.434767554 0.046947082 0 100 255
87.815921483 46.529322753 0.048565947 0 100 255
88.791126177 43.692666772 0.000000000 255 140 0
88.885691727 43.725152885 0.001417474 255 140 0
88.980257277 43.757638998 0.002834948 255 140 0
89.074822826 43.790125111 0.004252422 255 140 0
89.169388376 43.822611225 0.005669896 255 140 0
89.263953926 43.855097338 0.007087370 255 140 0
89.358519476 43.887583451 0.008504843 255 140 0
89.453085026 43.920069564 0.009922317 255 140 0
89.547650576 43.952555677 0.011339791 255 140 0
89.642216126 43.985041790 0.012757265 255 140 0
89.736781676 44.017527903 0.014174739 255 140 0
89.831347225 44.050014017 0.015592213 255 140 0
89.925912775 44.082500130 0.017009687 255 140 0
90.020478325 44.114986243 0.018427161 255 140 0
90.115043875 44.147472356 0.019844635 255 140 0
90.209609425 44.179958469 0.021262109 255 140 0
90.304174975 44.212444582 0.022679583 255 140 0
90.398740525 44.244930695 0.024097056 255 140 0
90.493306074 44.277416808 0.025514530 255 140 0
90.587871624 44.309902922 0.026932004 255 140 0
90.682437174 44.342389035 0.028349478 255 140 0
90.777002724 44.374875148 0.029766952 255 140 0
90.871568274 44.407361261 0.031184426 255 140 0
90.966133824 44.439847374 0.032601900 255 140 0
91.060699374 44.472333487 0.034019374 255 140 0
91.155264924 44.504819600 0.035436848 255 140 0
91.249830473 44.537305713 0.036854322 255 140 0
91.344396023 44.569791827 0.038271796 255 140 0
91.438961573 44.602277940 0.039689269 255 140 0
91.533527123 44.634764053 0.041106743 255 140 0
91.628092673 44.667250166 0.042524217 255 140 0
96.021409284 30.800675277 0.000000000 255 255 255
96.021409284 30.800675277 0.000000000 0 100 255
95.926511810 30.769441896 0.004352627 0 100 255
95.831614336 30.738208515 0.008705253 0 100 255
95.736716863 30.706975134 0.013057880 0 100 255
95.641819389 30.675741753 0.017410506 0 100 255
95.546921915 30.644508372 0.021763133 0 100 255
95.452024441 30.613274990 0.026115759 0 100 255
95.357126967 30.582041609 0.030468386 0 100 255
95.262229493 30.550808228 0.034821012 0 100 255
95.167332019 30.519574847 0.039173639 0 100 255
95.072434545 30.488341466 0.043526265 0 100 255
94.977537071 30.457108085 0.047878892 0 100 255
94.882639598 30.425874704 0.052231518 0 100 255
94.787742124 30.394641323 0.056584145 0 100 255
94.692844650 30.363407942 0.060936771 0 100 255
94.597947176 30.332174561 0.065289398 0 100 255
94.503049702 30.300941180 0.069642024 0 100 255
94.408152228 30.269707799 0.073994651 0 100 255
94.313254754 30.238474418 0.078347277 0 100 255
94.218357280 30.207241037 0.082699904 0 100 255
94.123459806 30.176007656 0.087052531 0 100 255
94.028562333 30.144774275 0.091405157 0 100 255
93.933664859 30.113540893 0.095757784 0 100 255
93.838767385 30.082307512 0.100110410 0 100 255
93.743869911 30.051074131 0.104463037 0 100 255
93.648972437 30.019840750 0.108815663 0 100 255
93.554074963 29.988607369 0.113168290 0 100 255
93.459177489 29.957373988 0.117520916 0 100 255
93.364280015 29.926140607 0.121873543 0 100 255
93.269382542 29.894907226 0.126226169 0 100 255
93.174485068 29.863673845 0.130578796 0 100 255
96.021409284 30.800675277 0.000000000 255 140 0
95.990211828 30.895672496 0.001499000 255 140 0
95.959014372 30.990669716 0.002998000 255 140 0
95.927816916 31.085666936 0.004497000 255 140 0
95.896619460 31.180664155 0.005996000 255 140 0
95.865422004 31.275661375 0.007495000 255 140 0
95.834224548 31.370658595 0.008994000 255 140 0
95.803027092 31.465655814 0.010493000 255 140 0
95.771829636 31.560653034 0.011992000 255 140 0
95.740632179 31.655650253 0.013490999 255 140 0
95.709434723 31.750647473 0.014989999 255 140 0
95.678237267 31.845644693 0.016488999 255 140 0
95.647039811 31.940641912 0.017987999 255 140 0
95.615842355 32.035639132 0.019486999 255 140 0
95.584644899 32.130636351 0.020985999 255 140 0
95.553447443 32.225633571 0.022484999 255 140 0
95.522249987 32.320630791 0.023983999 255 140 0
95.491052531 32.415628010 0.025482999 255 140 0
95.459855075 32.510625230 0.026981999 255 140 0
95.428657619 32.605622449 0.028480999 255 140 0
95.397460163 32.700619669 0.029979999 255 140 0
95.366262707 32.795616889 0.031478999 255 140 0
95.335065250 32.890614108 0.032977999 255 140 0
95.303867794 32.985611328 0.034476999 255 140 0
95.272670338 33.080608548 0.035975999 255 140 0
95.241472882 33.175605767 0.037474999 255 140 0
95.210275426 33.270602987 0.038973999 255 140 0
95.179077970 33.365600206 0.040472998 255 140 0
95.147880514 33.460597426 0.041971998 255 140 0
95.116683058 33.555594646 0.043470998 255 140 0
95.085485602 33.650591865 0.044969998 255 140 0
86.533994995 27.763943658 0.000000000 255 255 255
86.533994995 27.763943658 0.000000000 0 100 255
86.439161723 27.732462827 0.003950690 0 100 255
86.344328452 27.700981997 0.007901380 0 100 255
86.249495181 27.669501166 0.011852070 0 100 255
86.154661909 27.638020336 0.015802759 0 100 255
86.059828638 27.606539505 0.019753449 0 100 255
85.964995366 27.575058675 0.023704139 0 100 255
85.870162095 27.543577844 0.027654829 0 100 255
85.775328824 27.512097014 0.031605519 0 100 255
85.680495552 27.480616183 0.035556209 0 100 255
85.585662281 27.449135353 0.039506898 0 100 255
85.490829010 27.417654522 0.043457588 0 100 255
85.395995738 27.386173692 0.047408278 0 100 255
85.301162467 27.354692861 0.051358968 0 100 255
85.206329195 27.323212031 0.055309658 0 100 255
85.111495924 27.291731200 0.059260348 0 100 255
85.016662653 27.260250370 0.063211037 0 100 255
84.921829381 27.228769539 0.067161727 0 100 255
84.826996110 27.197288709 0.071112417 0 100 255
84.732162838 27.165807878 0.075063107 0 100 255
84.637329567 27.134327048 0.079013797 0 100 255
84.542496296 27.102846217 0.082964487 0 100 255
84.447663024 27.071365387 0.086915177 0 100 255
84.352829753 27.039884556 0.090865866 0 100 255
84.257996482 27.008403726 0.094816556 0 100 255
84.163163210 26.976922895 0.098767246 0 100 255
84.068329939 26.945442065 0.102717936 0 100 255
83.973496667 26.913961234 0.106668626 0 100 255
83.878663396 26.882480404 0.110619316 0 100 255
83.783830125 26.850999573 0.114570005 0 100 255
83.688996853 26.819518743 0.118520695 0 100 255
86.533994995 27.763943658 0.000000000 255 140 0
86.502500333 27.858854173 0.000283511 255 140 0
86.471005672 27.953764688 0.000567023 255 140 0
86.439511010 28.048675204 0.000850534 255 140 0
86.408016349 28.143585719 0.001134045 255 140 0
86.376521687 28.238496234 0.001417556 255 140 0
86.345027026 28.333406749 0.001701068 255 140 0
86.313532364 28.428317265 0.001984579 255 140 0
86.282037703 28.523227780 0.002268090 255 140 0
86.250543041 28.618138295 0.002551602 255 140 0
86.219048380 28.713048811 0.002835113 255 140 0
86.187553718 28.807959326 0.003118624 255 140 0
86.156059057 28.902869841 0.003402135 255 140 0
86.124564395 28.997780357 0.003685647 255 140 0
86.093069734 29.092690872 0.003969158 255 140 0
86.061575072 29.187601387 0.004252669 255 140 0
86.030080411 29.282511903 0.004536181 255 140 0
85.998585749 29.377422418 0.004819692 255 140 0
85.967091088 29.472332933 0.005103203 255 140 0
85.935596426 29.567243449 0.005386715 255 140 0
85.904101765 29.662153964 0.005670226 255 140 0
85.872607104 29.757064479 0.005953737 255 140 0
85.841112442 29.851974995 0.006237248 255 140 0
85.809617781 29.946885510 0.006520760 255 140 0
85.778123119 30.041796025 0.006804271 255 140 0
85.746628458 30.136706541 0.007087782 255 140 0
85.715133796 30.231617056 0.007371294 255 140 0
85.683639135 30.326527571 0.007654805 255 140 0
85.652144473 30.421438087 0.007938316 255 140 0
85.620649812 30.516348602 0.008221827 255 140 0
85.589155150 30.611259117 0.008505339 255 140 0
76.922258529 24.655071149 0.000000000 255 255 255
76.922258529 24.655071149 0.000000000 0 100 255
76.827522055 24.623320915 0.004113756 0 100 255
76.732785580 24.591570681 0.008227511 0 100 255
76.638049105 24.559820447 0.012341267 0 100 255
76.543312630 24.528070213 0.016455022 0 100 255
76.448576156 24.496319979 0.020568778 0 100 255
76.353839681 24.464569744 0.024682534 0 100 255
76.259103206 24.432819510 0.028796289 0 100 255
76.164366731 24.401069276 0.032910045 0 100 255
76.069630257 24.369319042 0.037023800 0 100 255
75.974893782 24.337568808 0.041137556 0 100 255
75.880157307 24.305818574 0.045251312 0 100 255
75.785420833 24.274068339 0.049365067 0 100 255
75.690684358 24.242318105 0.053478823 0 100 255
75.595947883 24.210567871 0.057592579 0 100 255
75.501211408 24.178817637 0.061706334 0 100 255
75.406474934 24.147067403 0.065820090 0 100 255
75.311738459 24.115317169 0.069933845 0 100 255
75.217001984 24.083566934 0.074047601 0 100 255
75.122265509 24.051816700 0.078161357 0 100 255
75.027529035 24.020066466 0.082275112 0 100 255
74.932792560 23.988316232 0.086388868 0 100 255
74.838056085 23.956565998 0.090502623 0 100 255
74.743319610 23.924815764 0.094616379 0 100 255
74.648583136 23.893065529 0.098730135 0 100 255
74.553846661 23.861315295 0.102843890 0 100 255
74.459110186 23.829565061 0.106957646 0 100 255
74.364373712 23.797814827 0.111071401 0 100 255
74.269637237 23.766064593 0.115185157 0 100 255
74.174900762 23.734314359 0.119298913 0 100 255
74.080164287 23.702564124 0.123412668 0 100 255
76.922258529 24.655071149 0.000000000 255 140 0
76.890435254 24.749864233 -0.001245174 255 140 0
76.858611978 24.844657316 -0.002490349 255 140 0
76.826788703 24.939450400 -0.003735523 255 140 0
76.794965427 25.034243483 -0.004980697 255 140 0
76.763142152 25.129036567 -0.006225871 255 140 0
76.731318876 25.223829650 -0.007471046 255 140 0
76.699495600 25.318622734 -0.008716220 255 140 0
76.667672325 25.413415817 -0.009961394 255 140 0
76.635849049 25.508208901 -0.011206569 255 140 0
76.604025774 25.603001984 -0.012451743 255 140 0
76.572202498 25.697795068 -0.013696917 255 140 0
76.540379223 25.792588151 -0.014942092 255 140 0
76.508555947 25.887381235 -0.016187266 255 140 0
76.476732672 25.982174318 -0.017432440 255 140 0
76.444909396 26.076967402 -0.018677614 255 140 0
76.413086121 26.171760485 -0.019922789 255 140 0
76.381262845 26.266553568 -0.021167963 255 140 0
76.349439569 26.361346652 -0.022413137 255 140 0
76.317616294 26.456139735 -0.023658312 255 140 0
76.285793018 26.550932819 -0.024903486 255 140 0
76.253969743 26.645725902 -0.026148660 255 140 0
76.222146467 26.740518986 -0.027393834 255 140 0
76.190323192 26.835312069 -0.028639009 255 140 0
76.158499916 26.930105153 -0.029884183 255 140 0
76.126676641 27.024898236 -0.031129357 255 140 0
76.094853365 27.119691320 -0.032374532 255 140 0
76.063030089 27.214484403 -0.033619706 255 140 0
76.031206814 27.309277487 -0.034864880 255 140 0
75.999383538 27.404070570 -0.036110055 255 140 0
75.967560263 27.498863654 -0.037355229 255 140 0
67.234019947 21.561414068 0.000000000 255 255 255
67.234019947 21.561414068 0.000000000 0 100 255
67.138933467 21.530684252 0.003773562 0 100 255
67.043846987 21.499954436 0.007547124 0 100 255
66.948760507 21.469224621 0.011320686 0 100 255
66.853674027 21.438494805 0.015094248 0 100 255
66.758587547 21.407764989 0.018867811 0 100 255
66.663501067 21.377035174 0.022641373 0 100 255
66.568414587 21.346305358 0.026414935 0 100 255
66.473328108 21.315575542 0.030188497 0 100 255
66.378241628 21.284845727 0.033962059 0 100 255
66.283155148 21.254115911 0.037735621 0 100 255
66.188068668 21.223386095 0.041509183 0 100 255
66.092982188 21.192656280 0.045282745 0 100 255
65.997895708 21.161926464 0.049056307 0 100 255
65.902809228 21.131196648 0.052829870 0 100 255
65.807722748 21.100466833 0.056603432 0 100 255
65.712636268 21.069737017 0.060376994 0 100 255
65.617549789 21.039007201 0.064150556 0 100 255
65.522463309 21.008277386 0.067924118 0 100 255
65.427376829 20.977547570 0.071697680 0 100 255
65.332290349 20.946817754 0.075471242 0 100 255
65.237203869 20.916087939 0.079244804 0 100 255
65.142117389 20.885358123 0.083018366 0 100 255
65.047030909 20.854628307 0.086791929 0 100 255
64.951944429 20.823898492 0.090565491 0 100 255
64.856857949 20.793168676 0.094339053 0 100 255
64.761771470 20.762438860 0.098112615 0 100 255
64.666684990 20.731709045 0.101886177 0 100 255
64.571598510 20.700979229 0.105659739 0 100 255
64.476512030 20.670249413 0.109433301 0 100 255
64.381425550 20.639519598 0.113206863 0 100 255
67.234019947 21.561414068 0.000000000 255 140 0
67.203270928 21.656569163 0.000074888 255 140 0
67.172521909 21.751724259 0.000149776 255 140 0
67.141772890 21.846879355 0.000224664 255 140 0
67.111023871 21.942034451 0.000299552 255 140 0
67.080274853 22.037189546 0.000374440 255 140 0
67.049525834 22.132344642 0.000449328 255 140 0
67.018776815 22.227499738 0.000524216 255 140 0
66.988027796 22.322654833 0.000599104 255 140 0
66.957278778 22.417809929 0.000673992 255 140 0
66.926529759 22.512965025 0.000748880 255 140 0
66.895780740 22.608120120 0.000823768 255 140 0
66.865031721 22.703275216 0.000898656 255 140 0
66.834282702 22.798430312 0.000973544 255 140 0
66.803533684 22.893585407 0.001048432 255 140 0
66.772784665 22.988740503 0.001123320 255 140 0
66.742035646 23.083895599 0.001198208 255 140 0
66.711286627 23.179050694 0.001273095 255 140 0
66.680537608 23.274205790 0.001347983 255 140 0
66.649788590 23.369360886 0.001422871 255 140 0
66.619039571 23.464515982 0.001497759 255 140 0
66.588290552 23.559671077 0.001572647 255 140 0
66.557541533 23.654826173 0.001647535 255 140 0
66.526792515 23.749981269 0.001722423 255 140 0
66.496043496 23.845136364 0.001797311 255 140 0
66.465294477 23.940291460 0.001872199 255 140 0
66.434545458 24.035446556 0.001947087 255 140 0
66.403796439 24.130601651 0.002021975 255 140 0
66.373047421 24.225756747 0.002096863 255 140 0
66.342298402 24.320911843 0.002171751 255 140 0
66.311549383 24.416066938 0.002246639 255 140 0
57.545790704 18.571710253 0.000000000 255 255 255
57.545790704 18.571710253 0.000000000 0 100 255
57.450582334 18.541458741 0.004495817 0 100 255
57.355373964 18.511207230 0.008991635 0 100 255
57.260165594 18.480955719 0.013487452 0 100 255
57.164957224 18.450704208 0.017983270 0 100 255
57.069748854 18.420452697 0.022479087 0 100 255
56.974540484 18.390201185 0.026974905 0 100 255
56.879332115 18.359949674 0.031470722 0 100 255
56.784123745 18.329698163 0.035966540 0 100 255
56.688915375 18.299446652 0.040462357 0 100 255
56.593707005 18.269195141 0.044958175 0 100 255
56.498498635 18.238943629 0.049453992 0 100 255
56.403290265 18.208692118 0.053949810 0 100 255
56.308081895 18.178440607 0.058445627 0 100 255
56.212873525 18.148189096 0.062941445 0 100 255
56.117665156 18.117937585 0.067437262 0 100 255
56.022456786 18.087686073 0.071933080 0 100 255
55.927248416 18.057434562 0.076428897 0 100 255
55.832040046 18.027183051 0.080924715 0 100 255
55.736831676 17.996931540 0.085420532 0 100 255
55.641623306 17.966680029 0.089916350 0 100 255
55.546414936 17.936428517 0.094412167 0 100 255
55.451206566 17.906177006 0.098907985 0 100 255
55.355998196 17.875925495 0.103403802 0 100 255
55.260789827 17.845673984 0.107899620 0 100 255
55.165581457 17.815422473 0.112395437 0 100 255
55.070373087 17.785170961 0.116891255 0 100 255
54.975164717 17.754919450 0.121387072 0 100 255
54.879956347 17.724667939 0.125882890 0 100 255
54.784747977 17.694416428 0.130378707 0 100 255
54.689539607 17.664164917 0.134874525 0 100 255
57.545790704 18.571710253 0.000000000 255 140 0
57.515488325 18.667007342 -0.000480259 255 140 0
57.485185946 18.762304431 -0.000960518 255 140 0
57.454883567 18.857601520 -0.001440777 255 140 0
57.424581188 18.952898609 -0.001921036 255 140 0
57.394278808 19.048195698 -0.002401295 255 140 0
57.363976429 19.143492787 -0.002881554 255 140 0
57.333674050 19.238789876 -0.003361812 255 140 0
57.303371671 19.334086965 -0.003842071 255 140 0
57.273069292 19.429384054 -0.004322330 255 140 0
57.242766913 19.524681143 -0.004802589 255 140 0
57.212464534 19.619978232 -0.005282848 255 140 0
57.182162155 19.715275321 -0.005763107 255 140 0
57.151859776 19.810572410 -0.006243366 255 140 0
57.121557397 19.905869499 -0.006723625 255 140 0
57.091255018 20.001166588 -0.007203884 255 140 0
57.060952639 20.096463677 -0.007684143 255 140 0
57.030650260 20.191760766 -0.008164402 255 140 0
57.000347881 20.287057855 -0.008644661 255 140 0
56.970045502 20.382354944 -0.009124920 255 140 0
56.939743123 20.477652033 -0.009605178 255 140 0
56.909440744 20.572949122 -0.010085437 255 140 0
56.879138365 20.668246211 -0.010565696 255 140 0
56.848835986 20.763543300 -0.011045955 255 140 0
56.818533607 20.858840389 -0.011526214 255 140 0
56.788231228 20.954137478 -0.012006473 255 140 0
56.757928848 21.049434567 -0.012486732 255 140 0
56.727626469 21.144731656 -0.012966991 255 140 0
56.697324090 21.240028745 -0.013447250 255 140 0
56.667021711 21.335325834 -0.013927509 255 140 0
56.636719332 21.430622923 -0.014407768 255 140 0
47.934081412 15.481732826 0.000000000 255 255 255
47.934081412 15.481732826 0.000000000 0 100 255
47.839283322 15.450277716 0.004888560 0 100 255
47.744485231 15.418822605 0.009777120 0 100 255
47.649687140 15.387367495 0.014665680 0 100 255
47.554889049 15.355912384 0.019554240 0 100 255
47.460090958 15.324457274 0.024442800 0 100 255
47.365292868 15.293002164 0.029331360 0 100 255
47.270494777 15.261547053 0.034219920 0 100 255
47.175696686 15.230091943 0.039108480 0 100 255
47.080898595 15.198636833 0.043997040 0 100 255
46.986100505 15.167181722 0.048885600 0 100 255
46.891302414 15.135726612 0.053774160 0 100 255
46.796504323 15.104271501 0.058662720 0 100 255
46.701706232 15.072816391 0.063551280 0 100 255
46.606908142 15.041361281 0.068439840 0 100 255
46.512110051 15.009906170 0.073328400 0 100 255
46.417311960 14.978451060 0.078216960 0 100 255
46.322513869 14.946995950 0.083105520 0 100 255
46.227715779 14.915540839 0.087994079 0 100 255
46.132917688 14.884085729 0.092882639 0 100 255
46.038119597 14.852630618 0.097771199 0 100 255
45.943321506 14.821175508 0.102659759 0 100 255
45.848523415 14.789720398 0.107548319 0 100 255
45.753725325 14.758265287 0.112436879 0 100 255
45.658927234 14.726810177 0.117325439 0 100 255
45.564129143 14.695355067 0.122213999 0 100 255
45.469331052 14.663899956 0.127102559 0 100 255
45.374532962 14.632444846 0.131991119 0 100 255
45.279734871 14.600989735 0.136879679 0 100 255
45.184936780 14.569534625 0.141768239 0 100 255
45.090138689 14.538079515 0.146656799 0 100 255
47.934081412 15.481732826 0.000000000 255 140 0
47.902561297 15.576633411 -0.000601067 255 140 0
47.871041182 15.671533996 -0.001202134 255 140 0
47.839521067 15.766434581 -0.001803201 255 140 0
47.808000952 15.861335167 -0.002404268 255 140 0
47.776480837 15.956235752 -0.003005335 255 140 0
47.744960722 16.051136337 -0.003606401 255 140 0
47.713440607 16.146036922 -0.004207468 255 140 0
47.681920491 16.240937507 -0.004808535 255 140 0
47.650400376 16.335838092 -0.005409602 255 140 0
47.618880261 16.430738677 -0.006010669 255 140 0
47.587360146 16.525639263 -0.006611736 255 140 0
47.555840031 16.620539848 -0.007212803 255 140 0
47.524319916 16.715440433 -0.007813870 255 140 0
47.492799801 16.810341018 -0.008414937 255 140 0
47.461279686 16.905241603 -0.009016004 255 140 0
47.429759571 17.000142188 -0.009617070 255 140 0
47.398239456 17.095042774 -0.010218137 255 140 0
47.366719340 17.189943359 -0.010819204 255 140 0
47.335199225 17.284843944 -0.011420271 255 140 0
47.303679110 17.379744529 -0.012021338 255 140 0
47.272158995 17.474645114 -0.012622405 255 140 0
47.240638880 17.569545699 -0.013223472 255 140 0
47.209118765 17.664446284 -0.013824539 255 140 0
47.177598650 17.759346870 -0.014425606 255 140 0
47.146078535 17.854247455 -0.015026673 255 140 0
47.114558420 17.949148040 -0.015627739 255 140 0
47.083038305 18.044048625 -0.016228806 255 140 0
47.051518189 18.138949210 -0.016829873 255 140 0
47.019998074 18.233849795 -0.017430940 255 140 0
46.988477959 18.328750381 -0.018032007 255 140 0
38.389328066 12.262669723 0.000000000 255 255 255
38.389328066 12.262669723 0.000000000 0 100 255
38.294977383 12.229859628 0.004631005 0 100 255
38.200626699 12.197049532 0.009262010 0 100 255
38.106276016 12.164239437 0.013893015 0 100 255
38.011925333 12.131429342 0.018524020 0 100 255
37.917574649 12.098619246 0.023155025 0 100 255
37.823223966 12.065809151 0.027786030 0 100 255
37.728873283 12.032999056 0.032417035 0 100 255
37.634522600 12.000188960 0.037048040 0 100 255
37.540171916 11.967378865 0.041679045 0 100 255
37.445821233 11.934568770 0.046310050 0 100 255
37.351470550 11.901758674 0.050941055 0 100 255
37.257119866 11.868948579 0.055572060 0 100 255
37.162769183 11.836138484 0.060203065 0 100 255
37.068418500 11.803328388 0.064834070 0 100 255
36.974067816 11.770518293 0.069465076 0 100 255
36.879717133 11.737708198 0.074096081 0 100 255
36.785366450 11.704898102 0.078727086 0 100 255
36.691015767 11.672088007 0.083358091 0 100 255
36.596665083 11.639277912 0.087989096 0 100 255
36.502314400 11.606467817 0.092620101 0 100 255
36.407963717 11.573657721 0.097251106 0 100 255
36.313613033 11.540847626 0.101882111 0 100 255
36.219262350 11.508037531 0.106513116 0 100 255
36.124911667 11.475227435 0.111144121 0 100 255
36.030560984 11.442417340 0.115775126 0 100 255
35.936210300 11.409607245 0.120406131 0 100 255
35.841859617 11.376797149 0.125037136 0 100 255
35.747508934 11.343987054 0.129668141 0 100 255
35.653158250 11.311176959 0.134299146 0 100 255
35.558807567 11.278366863 0.138930151 0 100 255
38.389328066 12.262669723 0.000000000 255 140 0
38.356497959 12.357126413 0.000343338 255 140 0
38.323667853 12.451583102 0.000686676 255 140 0
38.290837746 12.546039792 0.001030014 255 140 0
38.258007639 12.640496481 0.001373353 255 140 0
38.225177533 12.734953171 0.001716691 255 140 0
38.192347426 12.829409861 0.002060029 255 140 0
38.159517320 12.923866550 0.002403367 255 140 0
38.126687213 13.018323240 0.002746705 255 140 0
38.093857106 13.112779930 0.003090043 255 140 0
38.061027000 13.207236619 0.003433381 255 140 0
38.028196893 13.301693309 0.003776719 255 140 0
37.995366787 13.396149999 0.004120058 255 140 0
37.962536680 13.490606688 0.004463396 255 140 0
37.929706574 13.585063378 0.004806734 255 140 0
37.896876467 13.679520068 0.005150072 255 140 0
37.864046360 13.773976757 0.005493410 255 140 0
37.831216254 13.868433447 0.005836748 255 140 0
37.798386147 13.962890137 0.006180086 255 140 0
37.765556041 14.057346826 0.006523425 255 140 0
37.732725934 14.151803516 0.006866763 255 140 0
37.699895827 14.246260206 0.007210101 255 140 0
37.667065721 14.340716895 0.007553439 255 140 0
37.634235614 14.435173585 0.007896777 255 140 0
37.601405508 14.529630274 0.008240115 255 140 0
37.568575401 14.624086964 0.008583453 255 140 0
37.535745294 14.718543654 0.008926792 255 140 0
37.502915188 14.813000343 0.009270130 255 140 0
37.470085081 14.907457033 0.009613468 255 140 0
37.437254975 15.001913723 0.009956806 255 140 0
37.404424868 15.096370412 0.010300144 255 140 0
28.643742587 9.081187664 0.000000000 255 255 255
28.643742587 9.081187664 0.000000000 0 100 255
28.549153560 9.049139265 0.005080947 0 100 255
28.454564532 9.017090865 0.010161894 0 100 255
28.359975505 8.985042465 0.015242841 0 100 255
28.265386478 8.952994066 0.020323788 0 100 255
28.170797451 8.920945666 0.025404735 0 100 255
28.076208424 8.888897266 0.030485682 0 100 255
27.981619397 8.856848866 0.035566628 0 100 255
27.887030370 8.824800467 0.040647575 0 100 255
27.792441343 8.792752067 0.045728522 0 100 255
27.697852315 8.760703667 0.050809469 0 100 255
27.603263288 8.728655268 0.055890416 0 100 255
27.508674261 8.696606868 0.060971363 0 100 255
27.414085234 8.664558468 0.066052310 0 100 255
27.319496207 8.632510068 0.071133257 0 100 255
27.224907180 8.600461669 0.076214204 0 100 255
27.130318153 8.568413269 0.081295151 0 100 255
27.035729125 8.536364869 0.086376098 0 100 255
26.941140098 8.504316470 0.091457045 0 100 255
26.846551071 8.472268070 0.096537991 0 100 255
26.751962044 8.440219670 0.101618938 0 100 255
26.657373017 8.408171271 0.106699885 0 100 255
26.562783990 8.376122871 0.111780832 0 100 255
26.468194963 8.344074471 0.116861779 0 100 255
26.373605935 8.312026071 0.121942726 0 100 255
26.279016908 8.279977672 0.127023673 0 100 255
26.184427881 8.247929272 0.132104620 0 100 255
26.089838854 8.215880872 0.137185567 0 100 255
25.995249827 8.183832473 0.142266514 0 100 255
25.900660800 8.151784073 0.147347461 0 100 255
25.806071773 8.119735673 0.152428408 0 100 255
28.643742587 9.081187664 0.000000000 255 140 0
28.611605384 9.175877502 -0.001017320 255 140 0
28.579468182 9.270567339 -0.002034641 255 140 0
28.547330980 9.365257176 -0.003051961 255 140 0
28.515193777 9.459947014 -0.004069282 255 140 0
28.483056575 9.554636851 -0.005086602 255 140 0
28.450919373 9.649326688 -0.006103922 255 140 0
28.418782170 9.744016525 -0.007121243 255 140 0
28.386644968 9.838706363 -0.008138563 255 140 0
28.354507766 9.933396200 -0.009155883 255 140 0
28.322370563 10.028086037 -0.010173204 255 140 0
28.290233361 10.122775875 -0.011190524 255 140 0
28.258096159 10.217465712 -0.012207845 255 140 0
28.225958956 10.312155549 -0.013225165 255 140 0
28.193821754 10.406845386 -0.014242485 255 140 0
28.161684552 10.501535224 -0.015259806 255 140 0
28.129547349 10.596225061 -0.016277126 255 140 0
28.097410147 10.690914898 -0.017294447 255 140 0
28.065272945 10.785604736 -0.018311767 255 140 0
28.033135742 10.880294573 -0.019329087 255 140 0
28.000998540 10.974984410 -0.020346408 255 140 0
27.968861337 11.069674247 -0.021363728 255 140 0
27.936724135 11.164364085 -0.022381048 255 140 0
27.904586933 11.259053922 -0.023398369 255 140 0
27.872449730 11.353743759 -0.024415689 255 140 0
27.840312528 11.448433597 -0.025433010 255 140 0
27.808175326 11.543123434 -0.026450330 255 140 0
27.776038123 11.637813271 -0.027467650 255 140 0
27.743900921 11.732503108 -0.028484971 255 140 0
27.711763719 11.827192946 -0.029502291 255 140 0
27.679626516 11.921882783 -0.030519612 255 140 0
19.089443483 5.833308437 0.000000000 255 255 255
19.089443483 5.833308437 0.000000000 0 100 255
18.994501314 5.802158118 0.003955001 0 100 255
18.899559144 5.771007799 0.007910002 0 100 255
18.804616974 5.739857480 0.011865002 0 100 255
18.709674805 5.708707160 0.015820003 0 100 255
18.614732635 5.677556841 0.019775004 0 100 255
18.519790465 5.646406522 0.023730005 0 100 255
18.424848296 5.615256203 0.027685006 0 100 255
18.329906126 5.584105883 0.031640006 0 100 255
18.234963957 5.552955564 0.035595007 0 100 255
18.140021787 5.521805245 0.039550008 0 100 255
18.045079617 5.490654926 0.043505009 0 100 255
17.950137448 5.459504607 0.047460009 0 100 255
17.855195278 5.428354287 0.051415010 0 100 255
17.760253108 5.397203968 0.055370011 0 100 255
17.665310939 5.366053649 0.059325012 0 100 255
17.570368769 5.334903330 0.063280013 0 100 255
17.475426599 5.303753010 0.067235013 0 100 255
17.380484430 5.272602691 0.071190014 0 100 255
17.285542260 5.241452372 0.075145015 0 100 255
17.190600090 5.210302053 0.079100016 0 100 255
17.095657921 5.179151733 0.083055017 0 100 255
17.000715751 5.148001414 0.087010017 0 100 255
16.905773581 5.116851095 0.090965018 0 100 255
16.810831412 5.085700776 0.094920019 0 100 255
16.715889242 5.054550456 0.098875020 0 100 255
16.620947072 5.023400137 0.102830021 0 100 255
16.526004903 4.992249818 0.106785021 0 100 255
16.431062733 4.961099499 0.110740022 0 100 255
16.336120563 4.929949179 0.114695023 0 100 255
16.241178394 4.898798860 0.118650024 0 100 255
19.089443483 5.833308437 0.000000000 255 140 0
19.058253846 5.928319192 -0.000403680 255 140 0
19.027064208 6.023329947 -0.000807359 255 140 0
18.995874570 6.118340702 -0.001211039 255 140 0
18.964684932 6.213351457 -0.001614718 255 140 0
18.933495294 6.308362211 -0.002018398 255 140 0
18.902305656 6.403372966 -0.002422078 255 140 0
18.871116018 6.498383721 -0.002825757 255 140 0
18.839926380 6.593394476 -0.003229437 255 140 0
18.808736742 6.688405231 -0.003633116 255 140 0
18.777547104 6.783415985 -0.004036796 255 140 0
18.746357466 6.878426740 -0.004440475 255 140 0
18.715167828 6.973437495 -0.004844155 255 140 0
18.683978190 7.068448250 -0.005247835 255 140 0
18.652788552 7.163459005 -0.005651514 255 140 0
18.621598914 7.258469759 -0.006055194 255 140 0
18.590409276 7.353480514 -0.006458873 255 140 0
18.559219638 7.448491269 -0.006862553 255 140 0
18.528030001 7.543502024 -0.007266233 255 140 0
18.496840363 7.638512779 -0.007669912 255 140 0
18.465650725 7.733523533 -0.008073592 255 140 0
18.434461087 7.828534288 -0.008477271 255 140 0
18.403271449 7.923545043 -0.008880951 255 140 0
18.372081811 8.018555798 -0.009284631 255 140 0
18.340892173 8.113566553 -0.009688310 255 140 0
18.309702535 8.208577307 -0.010091990 255 140 0
18.278512897 8.303588062 -0.010495669 255 140 0
18.247323259 8.398598817 -0.010899349 255 140 0
18.216133621 8.493609572 -0.011303029 255 140 0
18.184943983 8.588620327 -0.011706708 255 140 0
18.153754345 8.683631081 -0.012110388 255 140 0
9.420387316 2.910669326 0.000000000 255 255 255
9.420387316 2.910669326 0.000000000 0 100 255
9.325030886 2.880838867 0.004158738 0 100 255
9.229674457 2.851008408 0.008317476 0 100 255
9.134318028 2.821177948 0.012476213 0 100 255
9.038961599 2.791347489 0.016634951 0 100 255
8.943605170 2.761517029 0.020793689 0 100 255
8.848248740 2.731686570 0.024952427 0 100 255
8.752892311 2.701856111 0.029111165 0 100 255
8.657535882 2.672025651 0.033269903 0 100 255
8.562179453 2.642195192 0.037428640 0 100 255
8.466823023 2.612364732 0.041587378 0 100 255
8.371466594 2.582534273 0.045746116 0 100 255
8.276110165 2.552703814 0.049904854 0 100 255
8.180753736 2.522873354 0.054063592 0 100 255
8.085397307 2.493042895 0.058222329 0 100 255
7.990040877 2.463212435 0.062381067 0 100 255
7.894684448 2.433381976 0.066539805 0 100 255
7.799328019 2.403551517 0.070698543 0 100 255
7.703971590 2.373721057 0.074857281 0 100 255
7.608615161 2.343890598 0.079016019 0 100 255
7.513258731 2.314060138 0.083174756 0 100 255
7.417902302 2.284229679 0.087333494 0 100 255
7.322545873 2.254399220 0.091492232 0 100 255
7.227189444 2.224568760 0.095650970 0 100 255
7.131833015 2.194738301 0.099809708 0 100 255
7.036476585 2.164907841 0.103968446 0 100 255
6.941120156 2.135077382 0.108127183 0 100 255
6.845763727 2.105246923 0.112285921 0 100 255
6.750407298 2.075416463 0.116444659 0 100 255
6.655050869 2.045586004 0.120603397 0 100 255
6.559694439 2.015755544 0.124762135 0 100 255
9.420387316 2.910669326 0.000000000 255 140 0
9.390534505 3.006109371 0.000087276 255 140 0
9.360681695 3.101549415 0.000174552 255 140 0
9.330828884 3.196989460 0.000261828 255 140 0
9.300976073 3.292429504 0.000349104 255 140 0
9.271123263 3.387869549 0.000436381 255 140 0
9.241270452 3.483309593 0.000523657 255 140 0
9.211417642 3.578749638 0.000610933 255 140 0
9.181564831 3.674189682 0.000698209 255 140 0
9.151712021 3.769629727 0.000785485 255 140 0
9.121859210 3.865069771 0.000872761 255 140 0
9.092006400 3.960509816 0.000960037 255 140 0
9.062153589 4.055949860 0.001047313 255 140 0
9.032300779 4.151389904 0.001134589 255 140 0
9.002447968 4.246829949 0.001221865 255 140 0
8.972595158 4.342269993 0.001309142 255 140 0
8.942742347 4.437710038 0.001396418 255 140 0
8.912889537 4.533150082 0.001483694 255 140 0
8.883036726 4.628590127 0.001570970 255 140 0
8.853183916 4.724030171 0.001658246 255 140 0
8.823331105 4.819470216 0.001745522 255 140 0
8.793478295 4.914910260 0.001832798 255 140 0
8.763625484 5.010350305 0.001920074 255 140 0
8.733772674 5.105790349 0.002007350 255 140 0
8.703919863 5.201230394 0.002094626 255 140 0
8.674067052 5.296670438 0.002181903 255 140 0
8.644214242 5.392110482 0.002269179 255 140 0
8.614361431 5.487550527 0.002356455 255 140 0
8.584508621 5.582990571 0.002443731 255 140 0
8.554655810 5.678430616 0.002531007 255 140 0
8.524803000 5.773870660 0.002618283 255 140 0
