ply
format ascii 1.0
element vertex 136
property double x
property double y
property double z
property uchar red
property uchar green
property uchar blue
end_header
66.149842032 43.944234301 0.172772010 77 56 55
64.952831015 80.757757593 -0.550527770 33 38 34
64.952831015 80.757757593 -0.550527770 33 38 34
60.824731730 85.001370105 2.401256378 43 44 46
60.905516169 85.090307782 3.423497644 146 148 147
61.563128907 85.159054569 2.378790323 127 129 128
62.638489033 84.919660295 2.310592586 77 78 82
62.594538647 85.547143269 2.337010107 137 137 137
62.859143784 85.665906147 2.240798958 42 43 47
62.869254398 85.857904437 2.381500336 140 143 148
63.319534604 85.916335324 3.180068761 35 39 42
63.664844837 85.980275088 2.248332626 27 28 32
67.624054282 82.795170070 0.038368222 131 135 134
67.577289768 82.856488254 0.044350553 131 135 134
64.067021405 92.634798890 2.470087116 28 28 26
64.067021405 92.634798890 2.470087116 28 28 26
68.902272245 86.772302807 -0.157612011 39 42 49
68.705538790 87.110519848 -0.147062366 41 44 51
70.194713932 87.251299848 -0.679886234 34 37 42
75.331160893 103.965363263 1.104740199 137 127 117
75.554671893 103.300822906 0.813495091 210 203 187
76.392469513 100.506741482 -0.925149167 222 215 197
80.081508129 88.802690160 0.967647370 227 222 218
80.562084592 89.253141942 0.942187857 107 95 81
87.524963407 70.682323739 1.422682138 10 4 4
95.111852129 40.502317710 0.160354538 223 219 208
79.699155496 57.857157404 2.671022489 68 69 71
77.572991178 70.431018288 0.781708861 72 67 64
57.351359392 84.179700393 9.858525611 71 68 59
57.439349687 84.168138882 7.017500766 59 54 48
59.851468415 84.875941787 10.934235052 84 100 115
61.336602046 85.249640483 11.722622766 61 64 69
61.359911691 85.226355140 10.776649652 62 67 71
61.883420869 85.462887092 11.742379990 62 70 81
61.827960170 85.539344122 9.652089515 154 167 176
62.737204274 85.821925240 10.929561571 148 157 166
64.658003942 86.563786191 9.164161450 162 174 188
62.041725617 85.415820173 3.909006157 174 174 172
63.930397444 86.088722400 6.314204045 162 175 184
67.507190766 82.960936285 3.723304122 142 144 141
64.514685904 90.377927779 7.340482029 72 67 61
64.725302691 90.449284586 4.206769344 161 159 147
62.605210597 97.072431829 7.725874045 168 165 156
75.647384916 95.051352373 -0.844168029 208 200 179
75.738170479 91.810056813 -1.675066173 103 98 92
76.452290732 89.345828715 -1.706975384 133 129 120
76.253173336 95.324135255 -1.346896778 75 73 60
57.300274838 83.527373228 24.106814913 131 137 135
65.951202627 86.396398936 24.173763183 130 135 138
65.576282559 86.318992120 23.773996745 252 252 250
64.260777483 86.128241953 18.167524489 170 172 169
64.255318685 86.146092718 17.487198440 163 167 166
64.468316280 86.191837969 17.447499750 106 111 114
64.229227477 91.491795695 24.159211490 247 251 250
61.896190270 85.403614474 15.326610307 153 162 171
61.842901455 85.422367398 14.880869743 156 165 172
63.417039769 86.082780358 15.423025499 90 95 91
64.407924913 86.282783792 15.717121199 108 113 116
63.993878511 86.245606627 15.471743376 91 96 99
64.991717363 86.420681224 15.693342333 85 87 86
63.824612151 86.053336377 14.493385732 102 110 123
64.083121583 86.123961181 14.616390356 83 88 94
64.852126901 86.526659030 14.515094223 161 171 181
64.261300773 86.191672774 13.852787570 147 153 149
64.440995224 86.251609916 13.678187778 84 89 92
64.977833450 86.522846094 13.714711338 88 91 96
65.086262798 86.605174264 12.695711979 149 154 150
62.122989173 98.136657515 21.804903229 97 99 98
65.668308711 87.231570068 11.974926762 167 166 161
64.617416550 90.180591559 13.070164658 84 81 72
27.116531545 155.595870615 51.054199933 102 102 104
64.595482428 90.255514418 10.211353561 85 82 75
64.595482428 90.255514418 10.211353561 85 82 75
56.862427216 113.135786815 24.868714945 147 151 160
57.096157949 113.517783164 23.705332439 254 253 251
62.039384736 98.188551340 13.640655228 163 164 158
62.156640860 97.640567625 12.464960136 93 98 101
61.934373015 98.013992433 12.597325574 93 95 94
61.425579774 99.928722575 13.007448609 162 166 167
61.425579774 99.928722575 13.007448609 162 166 167
70.917153189 89.156289625 8.831711616 89 90 95
57.073652153 112.648509933 17.763296068 80 84 83
54.897467877 117.690688454 17.781633702 208 204 195
76.447067756 83.882731590 -1.739771238 149 149 147
77.216656768 97.805413052 29.869360470 71 75 87
77.469324590 97.239616185 27.591568635 138 138 138
77.264843049 97.052463799 24.374559704 81 81 89
77.273720858 97.048845558 24.368031886 79 77 80
76.947412302 97.852976096 24.316598142 240 246 255
80.110482634 72.137547003 -2.371915892 145 146 141
79.743869080 67.413883421 -7.226805156 156 151 157
80.733323701 67.513695692 -2.538765904 234 231 226
80.800620491 67.290556545 -2.548083052 152 144 141
80.796231618 67.204980455 -2.556547839 242 241 236
80.823779655 67.196570901 -2.553110645 180 177 172
80.988209871 66.771614752 -2.575774638 240 239 237
98.030001138 37.490648920 7.626373898 143 147 148
98.030001138 37.490648920 7.626373898 143 147 148
98.030001138 37.490648920 7.626373898 143 147 148
86.749687896 93.237106244 41.618213850 94 111 137
89.228115490 91.236151492 18.814944865 122 90 114
89.089580796 91.256389344 18.240911117 125 92 119
84.180016842 89.652968678 21.276240127 74 75 77
80.510542359 88.581245792 20.591665858 121 130 139
87.745560926 91.095823128 14.383971210 107 111 110
86.312665463 90.619962122 13.517302189 59 68 85
86.656477708 90.770199438 13.122231676 61 77 93
83.131599315 89.499143463 13.682320070 63 70 86
83.531243048 89.895761210 11.061101382 59 68 83
83.767662466 89.906404843 10.546602688 44 48 47
83.767662466 89.906404843 10.546602688 44 48 47
83.564745267 89.769466485 10.342561636 150 153 162
72.153439223 114.308700757 20.979798235 109 104 101
72.153439223 114.308700757 20.979798235 109 104 101
72.054029902 114.653559769 18.383891062 126 123 118
72.006483568 114.868810382 18.462171699 112 111 107
75.121882995 82.591219858 -1.681642656 154 154 152
123.565153471 94.835629123 46.053451227 52 42 50
87.791666030 90.888648904 12.455501962 79 94 113
86.998168240 90.801489820 13.082555791 59 72 88
87.643677631 91.477085527 7.809585349 48 63 84
86.860282717 90.813843970 6.618050215 153 156 161
84.781867450 91.165867376 4.478975388 109 111 123
83.890766306 89.847783237 3.225348472 128 130 142
83.654137598 90.021360106 3.573535806 118 117 122
77.578244653 95.060335305 4.253766480 228 221 203
76.236389479 101.510730120 3.789805725 221 215 203
72.183192237 88.377656564 -1.048616404 51 25 28
72.183192237 88.377656564 -1.048616404 51 25 28
72.469021249 87.218089714 -1.632179207 14 16 15
72.921797230 85.027094302 -0.883488831 63 75 91
72.218972448 85.149439173 -1.503963072 127 122 126
70.279869411 87.020972961 -1.025276839 22 27 31
71.249025511 84.778796227 -1.960015942 161 161 153
67.895406450 82.773892297 -1.847433798 28 38 40
85.387291958 41.206770004 -3.125833026 88 75 58
