ply
format ascii 1.0
element vertex 346
property double x
property double y
property double z
property uchar red
property uchar green
property uchar blue
end_header
86.408593180 36.447149169 -0.062826247 39 52 6
80.039016005 -6.141192914 2.679141883 61 61 59
78.599224558 68.432984764 0.366483934 104 104 104
66.149835749 43.944229135 0.172770877 77 56 55
79.200300212 69.802003173 -0.012974548 79 60 54
64.952837321 80.757754584 -0.550528492 33 38 34
64.952837321 80.757754584 -0.550528492 33 38 34
60.356197067 84.594191826 2.270746661 68 67 65
57.965794450 86.361279064 4.542578385 18 18 16
60.408849472 84.896520919 4.178237543 134 134 132
60.687619471 84.924817557 2.242236641 33 33 33
60.793194670 84.990373257 2.693856175 146 147 149
60.824734388 85.001370777 2.401254953 43 44 46
60.905522615 85.090305070 3.423495685 146 148 147
61.175270909 85.163986904 3.170022517 19 19 21
61.563128309 85.159059220 2.378789519 127 129 128
61.648332189 85.388353105 2.620940893 52 53 58
62.638492275 84.919660269 2.310591242 77 78 82
62.594551668 85.547133504 2.337007482 137 137 137
62.859149400 85.665904179 2.240797251 42 43 47
62.869255658 85.857907269 2.381499275 140 143 148
63.102328451 86.017778789 0.800998131 43 41 42
63.102328451 86.017778789 0.800998131 43 41 42
63.319537290 85.916335460 3.180067389 35 39 42
62.715601921 86.443517783 1.303898018 90 92 91
63.664846982 85.980275907 2.248331442 27 28 32
67.624062608 82.795163781 0.038367301 131 135 134
67.577297059 82.856483356 0.044349633 131 135 134
64.067033090 92.634786520 2.470084408 28 28 26
64.067033090 92.634786520 2.470084408 28 28 26
68.902275112 86.772302245 -0.157612991 39 42 49
68.705541690 87.110519305 -0.147063382 41 44 51
70.194720903 87.251291777 -0.679886938 34 37 42
75.331162892 103.965370286 1.104738724 137 127 117
75.554669278 103.300861235 0.813494313 210 203 187
76.392469195 100.506766116 -0.925151308 222 215 197
80.081509644 88.802699943 0.967646811 227 222 218
80.081509644 88.802699943 0.967646811 227 222 218
80.562086583 89.253145817 0.942187039 107 95 81
93.564622509 76.154724202 3.476037505 23 4 0
87.524964117 70.682322920 1.422681803 10 4 4
98.642919900 69.132824337 2.345478529 173 145 133
95.111838404 40.502338296 0.160353074 223 219 208
79.699154250 57.857156926 2.671022220 68 69 71
75.181539672 44.082320913 6.634658077 26 18 16
59.270688871 47.270133793 20.610935117 178 181 190
76.798969031 69.005609793 1.963673212 52 58 72
77.572991989 70.431018765 0.781708473 72 67 64
76.477642679 72.735265962 1.926233118 128 129 124
57.376181637 84.038546076 15.390390028 91 91 83
57.595080295 84.273460924 15.122523654 143 142 137
57.591666938 83.949204249 13.697147181 103 116 135
58.018247836 84.425734754 13.950308492 91 107 123
58.615192136 85.142195451 15.492695136 81 86 89
56.982622520 83.750273520 10.137280627 85 65 58
56.301461082 84.067330724 9.774306992 156 157 161
57.351365928 84.179698316 9.858521886 71 68 59
60.018646102 84.796611503 12.776690687 108 108 108
60.900139305 84.935046209 13.795701492 153 166 172
58.999229728 84.740904538 10.893477442 93 99 113
57.439346206 84.168144366 7.017500840 59 54 48
59.851476955 84.875937823 10.934230329 84 100 115
58.888547113 85.113464442 9.910891800 46 45 40
61.037454708 85.165948053 11.720955437 54 66 80
61.336610212 85.249636574 11.722617576 61 64 69
61.359922919 85.226347577 10.776642981 62 67 71
61.883423981 85.462887711 11.742377579 62 70 81
61.851421030 85.236977509 10.879762108 97 109 123
62.688285261 85.709606917 11.732995999 66 72 84
60.360696874 84.784947456 6.967529440 146 148 143
61.376610799 85.245215128 8.683179750 134 136 135
61.827961809 85.539346105 9.652088347 154 167 176
62.165684725 85.509387296 9.941978355 63 65 64
62.873574854 85.910268254 11.374824570 162 170 183
62.737208644 85.821923908 10.929559064 148 157 166
62.651468478 85.750427261 9.957551428 50 56 56
61.493323612 85.295000834 7.019368354 140 140 140
61.722875534 85.256005401 7.044274706 53 52 48
61.722875534 85.256005401 7.044274706 53 52 48
60.656180447 84.949093445 4.203462773 24 24 22
63.112937018 85.913220648 8.693197542 176 175 171
62.782269817 85.765736023 8.014224353 162 164 163
61.136803293 85.166704031 4.240229028 49 49 49
64.658009792 86.563783500 9.164158107 162 174 188
62.041732099 85.415816748 3.909004054 174 174 172
63.620590553 86.152247883 6.165929286 179 183 184
63.930404483 86.088717616 6.314201135 162 175 184
63.476982814 86.125552634 5.133558648 48 48 46
62.735404057 86.148348016 4.022474386 157 161 164
63.484303599 85.949576846 4.181495929 147 147 145
67.507195156 82.960934115 3.723302200 142 144 141
64.514689128 90.377927503 7.340480198 72 67 61
64.510159191 90.419516545 4.442256785 59 56 49
64.725304650 90.449286494 4.206767892 161 159 147
63.980474781 92.689026510 4.382923795 52 54 49
62.605221428 97.072420154 7.725868707 168 165 156
64.070958254 92.259491283 3.552149592 151 148 141
63.366514307 94.325357304 4.473970648 45 45 43
63.519386117 94.120649110 3.471026172 31 32 34
75.364361503 95.198608071 -1.207379605 228 216 204
75.647383932 95.051370984 -0.844169871 208 200 179
75.738168357 91.810076986 -1.675068710 103 98 92
76.452288619 89.345847985 -1.706977784 133 129 120
76.253171196 95.324162529 -1.346899366 75 73 60
77.198115340 89.073663724 -1.567448588 120 115 109
79.329241928 54.123133567 8.144929558 102 103 105
79.307661860 67.704763661 1.956864337 63 62 67
79.149113103 68.161100277 1.983412655 89 88 93
63.411575819 47.001800528 23.507215874 33 25 23
63.187548473 46.478693782 40.211421965 50 52 67
47.556263265 46.586858938 86.183615102 78 75 94
57.300282874 83.527369767 24.106805408 131 137 135
57.761418476 83.756847063 24.213907801 134 145 149
58.224249371 83.884927477 23.862737237 255 254 255
58.949229638 84.000510367 23.571152416 253 255 254
65.951207404 86.396396438 24.173755688 130 135 138
65.576284722 86.318993176 23.773994323 252 252 250
59.720953941 84.934489126 18.171775331 113 118 114
64.260779486 86.128243229 18.167523393 170 172 169
60.542380549 84.841605165 15.591470754 84 88 89
64.226409197 86.166755004 17.846482874 165 167 164
61.142582672 84.989982418 15.569975103 85 94 99
64.255318357 86.146095094 17.487198169 163 167 166
64.468320193 86.191837604 17.447496068 106 111 114
64.229230500 91.491796203 24.159208537 247 251 250
64.803158137 86.393321312 17.501009742 105 114 119
65.000985399 86.414163590 17.463045205 105 111 111
61.896190396 85.403617797 15.326610226 153 162 171
60.955118531 85.078514648 14.399898820 164 171 181
61.842902170 85.422370111 14.880868952 156 165 172
64.715721687 89.897308070 20.893820467 129 132 137
63.611470331 86.092733045 15.593535435 176 183 189
63.417040140 86.082783488 15.423025064 90 95 91
64.407926956 86.282784729 15.717119392 108 113 116
63.993879978 86.245608007 15.471741768 91 96 99
64.991721762 86.420679289 15.693338577 85 87 86
64.991721762 86.420679289 15.693338577 85 87 86
63.294214804 86.208847658 14.979242605 71 77 77
64.836087727 86.524940803 15.610294244 159 169 178
64.230317054 86.219720988 14.991108932 150 151 153
63.824615374 86.053336597 14.493383021 102 110 123
64.083124330 86.123961960 14.616388270 83 88 94
64.852131298 86.526656572 14.515089820 161 171 181
64.835540749 86.537961745 14.518310556 161 171 181
64.261300059 86.191676666 13.852787209 147 153 149
64.699999542 89.947437311 17.991617360 119 123 126
64.441001576 86.251606742 13.678182733 84 89 92
62.644669408 85.668768952 12.517228134 77 82 86
63.864169490 92.786776571 20.656131369 101 104 111
64.977836629 86.522846596 13.714708648 88 91 96
60.835042467 98.969438461 26.452128838 145 147 144
64.386784609 86.361007204 12.856571532 64 68 67
64.339306230 86.643400953 12.828323600 150 164 175
65.086269079 86.605169549 12.695706847 149 154 150
71.626822786 81.483659684 8.698482598 92 89 82
64.451870120 86.461227975 11.942321773 158 167 176
64.800812965 86.609934535 11.976753858 166 175 182
64.934975744 86.554840808 11.792217172 54 64 66
64.478225078 90.318908004 15.234828704 100 109 114
64.395854211 86.315100044 10.830155939 75 75 77
62.123000826 98.136644970 21.804891018 97 99 98
65.668311123 87.231570294 11.974924756 167 166 161
60.812718306 101.781775462 24.347206387 160 162 159
60.929928829 102.224190905 24.311123595 252 252 250
64.617419975 90.180590887 13.070161912 84 81 72
64.707539127 90.299530281 12.343212942 170 169 164
64.625791975 90.118235250 11.139249698 171 181 182
59.789005022 105.072112218 22.228570997 119 123 126
65.498445821 87.483152397 9.167051505 163 160 153
62.037742397 98.232535630 17.004371621 165 164 162
62.225992697 97.519058157 16.215542684 80 77 72
27.116557740 155.595844045 51.054178625 102 102 104
64.651764721 89.652775013 9.775421666 97 87 85
64.595483623 90.255516978 10.211352536 85 82 75
64.595483623 90.255516978 10.211352536 85 82 75
61.664884293 99.480998766 16.136762226 96 96 106
56.862428757 113.135792693 24.868715159 147 151 160
55.995479466 114.280157421 25.300871596 219 224 230
64.635980612 90.189842268 9.211181914 97 97 97
57.096167202 113.517774186 23.705322814 254 253 251
62.039390322 98.188549037 13.640651247 163 164 158
32.859053066 145.493628738 37.810881541 203 210 216
63.598436383 93.243590846 10.288179548 45 46 50
62.156644955 97.640566559 12.464957569 93 98 101
61.934374825 98.013995106 12.597324251 93 95 94
63.549153585 93.358084840 9.398018821 24 28 37
61.425590493 99.928710759 13.007441699 162 166 167
61.425590493 99.928710759 13.007441699 162 166 167
61.297715208 100.602606706 13.312092241 85 86 81
70.917156423 89.156287764 8.831709138 89 90 95
60.538366506 102.506610488 12.996312916 93 95 82
62.427182733 96.746520220 9.946513637 91 89 77
57.073651679 112.648520522 17.763296560 80 84 83
60.539731242 102.472921943 12.004106776 184 201 209
54.897470812 117.690694707 17.781632704 208 204 195
76.447066911 83.882740213 -1.739772879 149 149 147
76.376594663 86.805941180 -1.863699790 152 151 149
81.793773991 70.535386186 -1.853596874 118 123 126
81.794490134 70.532450299 -1.852488634 124 132 134
81.472797440 69.778331147 -1.186610562 182 167 128
81.475881328 69.772744711 -1.183636371 212 200 174
80.489163468 88.529725473 22.567714288 107 122 127
77.217430782 97.723648749 29.805228928 54 60 72
77.216659087 97.805417106 29.869361401 71 75 87
77.542261125 98.317370122 29.659355287 136 140 125
77.469327455 97.239613238 27.591561184 138 138 138
77.264845050 97.052466713 24.374560989 81 81 89
77.273722813 97.048850632 24.368034572 79 77 80
76.947414099 97.852984747 24.316603355 240 246 255
78.880995167 74.280378062 -2.569325714 158 157 165
79.451552131 74.121842539 -2.342418473 94 94 96
78.965445644 73.996238094 -2.506017782 165 169 168
79.612720545 73.797114015 -2.352609093 167 169 168
79.193264759 73.297406962 -2.348817004 164 164 164
79.210946577 73.220914036 -2.331998054 179 180 182
79.202232629 73.193345621 -2.326293554 155 159 160
79.762967219 73.228974096 -2.318353758 171 170 178
79.290026569 73.003421687 -2.282627837 163 163 165
79.809018720 73.057460081 -2.280319848 169 168 174
79.808132483 73.057133406 -2.280494362 173 171 182
79.838454427 72.778825609 -2.124696328 103 101 104
79.898269249 72.764199052 -2.212527575 162 163 165
79.893162804 72.737970918 -2.209873730 167 168 173
79.875074075 72.555627579 -2.020674774 95 94 92
79.877974538 72.552113770 -2.019531070 99 95 94
79.926553273 72.646299752 -2.187299651 157 157 159
79.926685689 72.616866970 -2.182763505 171 169 180
79.470061107 72.432653682 -2.154549881 159 159 157
79.490602239 72.362075452 -2.138778952 158 156 157
79.501508889 72.351976799 -2.136133365 165 163 164
80.026050363 72.290908937 -2.107426522 160 160 162
79.575625847 72.022452621 -2.372069033 174 173 171
79.663676937 71.752571063 -1.637723384 174 173 171
80.124393661 72.178095991 -2.374970860 149 147 152
80.110483083 72.137547082 -2.371916346 145 146 141
79.743869027 67.413883874 -7.226805721 156 151 157
80.688297235 67.845261967 -2.514726539 173 164 149
80.733323799 67.513695585 -2.538766092 234 231 226
80.746981099 67.507830185 -2.537594341 248 244 241
80.800620492 67.290556694 -2.548083251 152 144 141
80.796231554 67.204980666 -2.556548164 242 241 236
80.823779624 67.196571158 -2.553110947 180 177 172
80.982489553 66.873714174 -2.575115969 151 143 132
80.988209805 66.771614832 -2.575774901 240 239 237
98.029992611 37.490657895 7.626369530 143 147 148
98.029992611 37.490657895 7.626369530 143 147 148
98.029992611 37.490657895 7.626369530 143 147 148
153.489213158 60.676508590 66.842379464 200 146 76
86.749690319 93.237105576 41.618210051 94 111 137
86.390212315 93.423898826 33.534954752 109 124 143
86.782292655 93.362588939 32.069044664 61 73 89
86.447724412 93.317031072 32.168175841 91 99 110
86.303605057 93.853845468 31.605821994 45 56 74
86.277485476 93.564181550 30.052295762 121 130 145
88.175419330 90.793869355 20.636227767 150 159 158
89.228117317 91.236154022 18.814945033 122 90 114
87.984845538 90.996026017 19.725560107 86 98 110
87.984845538 90.996026017 19.725560107 86 98 110
89.089582970 91.256389255 18.240908638 125 92 119
84.180018647 89.652967960 21.276238156 74 75 77
87.913048191 90.697227883 17.775624959 107 120 136
86.857631872 90.496672152 17.866513572 92 105 124
85.745780785 90.003048506 17.255865688 124 120 111
83.912097275 89.616548417 18.612542172 94 107 116
88.155887807 91.115001862 16.038125515 153 160 166
80.510543945 88.581242163 20.591660045 121 130 139
87.879922655 90.848082648 15.119101503 67 74 82
87.745563239 91.095823245 14.383970096 107 111 110
85.780766456 89.972484767 14.986746612 63 79 102
85.655772713 90.165954532 15.197401128 142 149 159
81.259311089 75.148199267 2.890445154 142 153 159
85.821455813 90.302982147 14.273528699 98 102 101
86.312666751 90.619959722 13.517299519 59 68 85
86.656479760 90.770199007 13.122229264 61 77 93
83.205339956 89.164231296 14.550153820 146 152 164
85.841144870 90.506821983 13.128205136 59 69 81
83.131601401 89.499142296 13.682317469 63 70 86
85.694390872 90.135038153 11.862603094 103 98 92
83.843518494 89.839938373 13.252323153 65 73 84
83.843518494 89.839938373 13.252323153 65 73 84
83.053345511 89.619091538 12.435896750 145 149 160
83.053345511 89.619091538 12.435896750 145 149 160
83.531245382 89.895764302 11.061101864 59 68 83
83.767664652 89.906404945 10.546601712 44 48 47
83.767664652 89.906404945 10.546601712 44 48 47
77.693840460 97.195780956 21.047407227 118 119 114
83.564747039 89.769466957 10.342560224 150 153 162
83.050351102 89.917394178 9.779883124 142 144 156
72.153442940 114.308702854 20.979795799 109 104 101
72.153442940 114.308702854 20.979795799 109 104 101
72.054036030 114.653550318 18.383883886 126 123 118
72.006487990 114.868809519 18.462167537 112 111 107
73.702901047 110.935574668 14.624433381 222 219 212
74.935077034 106.005008017 11.626714674 114 111 102
74.935077034 106.005008017 11.626714674 114 111 102
75.775595505 103.240678874 9.587091784 83 79 70
76.353260823 113.828607699 10.757123396 63 56 48
76.353260823 113.828607699 10.757123396 63 56 48
72.551078330 113.508432554 11.237699208 233 235 232
72.192093438 115.165087953 10.060196054 229 228 223
75.121883620 82.591222297 -1.681643588 154 154 152
77.655152186 74.143448750 -2.853995284 97 96 102
77.690830923 74.061306312 -2.833079836 100 99 105
77.852840209 73.691416186 -2.739263397 95 92 99
77.884293180 73.615388956 -2.719460069 97 96 102
79.303239581 70.406321064 -1.909242246 92 91 96
77.852577178 65.359839946 -5.134711354 197 192 173
87.858620727 40.000433824 -3.461145944 70 70 78
87.468840754 58.951101129 1.318374631 95 43 21
81.523399253 70.965384796 0.585464604 16 7 0
123.565161907 94.835628793 46.053454466 52 42 50
87.791668050 90.888649318 12.455500371 79 94 113
87.791668050 90.888649318 12.455500371 79 94 113
87.815878449 91.185935362 11.834086208 141 146 150
86.998170997 90.801490250 13.082555686 59 72 88
87.871609359 90.958292106 9.597424965 85 89 100
87.896344397 91.128831036 7.747580881 79 87 100
87.841096609 91.137272473 6.952734382 69 78 93
87.643679007 91.477082743 7.809583603 48 63 84
86.644713202 91.032667774 8.108772433 126 143 153
86.860285729 90.813846648 6.618050121 153 156 161
83.736666818 90.048327930 7.891829638 53 65 77
83.736666818 90.048327930 7.891829638 53 65 77
84.781869957 91.165867130 4.478974440 109 111 123
87.861297482 110.518461155 10.480362345 60 72 86
83.890767720 89.847782790 3.225347515 128 130 142
83.654140100 90.021363489 3.573535384 118 117 122
82.931281753 90.489546029 4.340913602 131 133 145
79.925691972 86.361148643 4.294345307 218 209 200
77.578246649 95.060340637 4.253765834 228 221 203
76.263982688 112.539538721 6.111005893 238 234 225
76.236391547 101.510736572 3.789804814 221 215 203
72.183197489 88.377649125 -1.048617018 51 25 28
72.183197489 88.377649125 -1.048617018 51 25 28
72.469025271 87.218085339 -1.632179742 14 16 15
72.921801322 85.027089607 -0.883489485 63 75 91
72.218976789 85.149434959 -1.503963522 127 122 126
70.279871882 87.020972152 -1.025277746 22 27 31
71.612240246 85.938491142 -2.125307869 152 148 145
71.986274029 85.009109536 -1.912570259 145 144 139
71.249030782 84.778790865 -1.960016165 161 161 153
67.895406863 82.773894794 -1.847434810 28 38 40
77.861865441 72.087274594 -0.466430421 77 77 75
84.943650521 42.075316320 -3.468112287 126 117 110
85.387291689 41.206756445 -3.125835827 88 75 58
88.417071312 31.623041477 -3.309609890 168 159 150
